SplineFontDB: 3.2
FontName: Sans-Normalcy
FullName: Sans Normalcy
FamilyName: Sans Normalcy
Weight: Bold
Copyright: Copyright (c) 2022, SYwaves
UComments: "2022-2-24: Created with FontForge (http://fontforge.org)"
Version: 0.1.7
ItalicAngle: 0
UnderlinePosition: -100
UnderlineWidth: 50
Ascent: 747
Descent: 253
InvalidEm: 0
LayerCount: 2
Layer: 0 0 "Back" 1
Layer: 1 0 "Fore" 0
XUID: [1021 570 -906042433 18851]
StyleMap: 0x0000
FSType: 0
OS2Version: 0
OS2_WeightWidthSlopeOnly: 0
OS2_UseTypoMetrics: 1
CreationTime: 1645711195
ModificationTime: 1646293626
PfmFamily: 33
TTFWeight: 700
TTFWidth: 5
LineGap: 90
VLineGap: 0
OS2TypoAscent: 0
OS2TypoAOffset: 1
OS2TypoDescent: 0
OS2TypoDOffset: 1
OS2TypoLinegap: 90
OS2WinAscent: 0
OS2WinAOffset: 1
OS2WinDescent: 0
OS2WinDOffset: 1
HheadAscent: 0
HheadAOffset: 1
HheadDescent: 0
HheadDOffset: 1
OS2Vendor: 'PfEd'
MarkAttachClasses: 1
DEI: 91125
LangName: 1033
Encoding: UnicodeBmp
UnicodeInterp: none
NameList: AGL For New Fonts
DisplaySize: -48
AntiAlias: 1
FitToEm: 0
WidthSeparation: 60
WinInfo: 0 38 13
BeginPrivate: 0
EndPrivate
TeXData: 1 0 0 346030 173015 115343 456887 1048576 115343 783286 444596 497025 792723 393216 433062 380633 303038 157286 324010 404750 52429 2506097 1059062 262144
BeginChars: 65536 440

StartChar: D
Encoding: 68 68 0
Width: 622
VWidth: 1074
Flags: W
HStem: -75 149<252 368.448> 426 153<187 338.492>
VStem: 35 152<-75 426> 437 168<140.847 324.816>
LayerCount: 2
Fore
SplineSet
35 579 m 1
 35 579 25 580 273 579 c 0
 521 578 605 394 605 242 c 0
 605 52 505 -75 321 -75 c 2
 252 -75 l 1
 252 74 l 1
 409 72 437 145 437 244 c 0
 437 303 390 426 259 426 c 2
 187 426 l 1
 187 -75 l 1
 35 -75 l 1
 35 579 l 1
EndSplineSet
EndChar

StartChar: p
Encoding: 112 112 1
Width: 554
VWidth: 1074
Flags: W
HStem: -75 135<249 342.491> 295 131<184 345.156>
VStem: 34 150<-288 295> 399 138<110.13 248.299>
LayerCount: 2
Fore
SplineSet
34 426 m 1
 274 426 l 2
 457 426 537 315 537 169 c 0
 537 23 424 -75 286 -75 c 2
 249 -75 l 1
 249 60 l 1
 327 60 399 91 399 179 c 0
 399 246 361 295 248 295 c 2
 184 295 l 1
 184 -288 l 1
 34 -288 l 1
 34 426 l 1
EndSplineSet
EndChar

StartChar: zero
Encoding: 48 48 2
Width: 537
VWidth: 1074
Flags: W
HStem: -89 151<199.239 333.594> 442 21G<315.5 342> 453 143<200.798 338.14>
VStem: 22 149<93.2217 419.326> 366 150<92.712 351>
LayerCount: 2
Fore
SplineSet
269 596 m 0xb8
 343 596 397 581 434 554 c 1
 322 442 l 1xd8
 309 449 292 453 269 453 c 0
 176 453 171 383 171 336 c 2
 171 163 l 2
 171 100 197 62 269 62 c 0
 341 62 366 102 366 163 c 2
 366 336 l 2
 366 341 366 346 366 351 c 2
 493 478 l 1
 509 440 516 396 516 349 c 2
 516 135 l 2
 516 -24 414 -90 269 -89 c 0
 124 -88 22 -22 22 135 c 2
 22 349 l 2
 22 477 68 596 269 596 c 0xb8
EndSplineSet
EndChar

StartChar: one
Encoding: 49 49 3
Width: 323
VWidth: 1074
Flags: W
HStem: -75 21G<149 302> 559 20G<100.366 302>
VStem: 149 153<-75 426>
LayerCount: 2
Fore
SplineSet
149 -75 m 1
 149 426 l 1
 23 426 l 1
 112 579 l 1
 302 579 l 1
 302 -75 l 1
 149 -75 l 1
EndSplineSet
EndChar

StartChar: two
Encoding: 50 50 4
Width: 469
VWidth: 1074
Flags: W
HStem: -75 153<280 447> 459 136<177.397 282.589>
VStem: 31 131<347.711 439.033> 304 141<333.699 439.085>
LayerCount: 2
Fore
SplineSet
234 595 m 0
 365 595 445 515 445 402 c 0
 445 349 420 298 408 277 c 2
 280 78 l 1
 448 78 l 1
 447 -75 l 1
 17 -75 l 1
 255 293 l 2
 270 316 304 359 304 390 c 0
 304 426 275 459 235 459 c 0
 192 459 161 435 162 394 c 0
 163 356 197 336 211 327 c 1
 139 221 l 1
 139 221 31 268 31 390 c 0
 31 512 119 595 234 595 c 0
EndSplineSet
EndChar

StartChar: three
Encoding: 51 51 5
Width: 413
VWidth: 1074
Flags: W
HStem: -84 153<18.6554 186.104> 426 153<18 164>
VStem: 224 174<106.68 230.34>
LayerCount: 2
Fore
SplineSet
18 579 m 1
 387 579 l 1
 263 342 l 1
 328 316 398 238 398 154 c 0
 398 -21 275 -84 113 -84 c 0
 82 -84 32 -80 18 -75 c 1
 18 -15 18 77 18 77 c 1
 31 74 70 69 104 69 c 0
 185 69 224 110 224 169 c 0
 224 235 168 280 79 284 c 1
 164 426 l 1
 18 426 l 1
 18 579 l 1
EndSplineSet
EndChar

StartChar: four
Encoding: 52 52 6
Width: 560
VWidth: 1074
Flags: W
HStem: -75 21G<316 463> 87 158<201.956 315 463 537> 559 20G<23 169 314 463>
VStem: 23 146<276.492 579> 316 147<-75 87 245 579>
LayerCount: 2
Fore
SplineSet
23 579 m 1
 169 579 l 1
 169 374 l 2
 169 270 196 245 302 245 c 2
 315 245 l 1
 314 579 l 1
 463 579 l 1
 463 245 l 1
 537 245 l 1
 537 87 l 1
 463 87 l 1
 463 -75 l 1
 316 -75 l 1
 316 87 l 1
 252 87 l 2
 89 87 23 201 23 321 c 0
 23 396 23 579 23 579 c 1
EndSplineSet
EndChar

StartChar: five
Encoding: 53 53 7
Width: 469
VWidth: 1074
Flags: W
HStem: -75 152<20 266.738> 201 140<178 268.389> 426 153<178 427>
VStem: 20 158<341 426> 287 164<97.7932 180.931>
LayerCount: 2
Fore
SplineSet
427 426 m 1
 344 426 261 426 178 426 c 1
 178 341 l 1
 231 341 276 339 318 324 c 0
 399 296 451 232 451 131 c 0
 451 12 372 -75 228 -75 c 2
 20 -75 l 1
 20 77 l 1
 182 77 l 2
 225 77 287 89 287 138 c 0
 287 185 244 201 176 201 c 0
 149 201 20 201 20 201 c 1
 20 579 l 1
 427 579 l 1
 427 426 l 1
EndSplineSet
EndChar

StartChar: six
Encoding: 54 54 8
Width: 543
VWidth: 1074
Flags: W
HStem: -100 142<207.845 342.923> 224 135<237 335.411> 427 21G<328 437> 438 153<217.239 436.961>
VStem: 23 149<78.82 395.907> 373 148<74.7926 190.192>
LayerCount: 2
Fore
SplineSet
270 -100 m 0xdc
 92 -100 23 9 23 147 c 2
 23 366 l 2
 23 438 58 503 110 542 c 0
 183 597 280 591 324 591 c 0xdc
 376 591 437 579 437 579 c 1
 437 427 l 1xec
 437 427 392 438 328 438 c 0
 264 438 237 429 210 412 c 0
 192 400 172 378 172 339 c 2
 172 160 l 2
 172 111 183 42 280 42 c 0
 337 42 373 81 373 135 c 0
 373 188 337 227 237 224 c 1
 237 359 l 1
 287 359 l 2
 402 359 521 295 521 131 c 0
 521 -4 460 -100 270 -100 c 0xdc
EndSplineSet
EndChar

StartChar: seven
Encoding: 55 55 9
Width: 511
VWidth: 1074
Flags: W
HStem: -75 21G<64 244.92> 426 153<12 266>
LayerCount: 2
Fore
SplineSet
12 579 m 1
 496 579 l 1
 237 -75 l 1
 64 -75 l 1
 266 426 l 1
 12 426 l 1
 12 579 l 1
EndSplineSet
EndChar

StartChar: eight
Encoding: 56 56 10
Width: 503
VWidth: 1074
Flags: W
HStem: -95 150<193.672 313.998> 454 143<187.453 313.131>
VStem: 18 165<67.8672 149.697> 28 147<359.055 438.8> 327 151<355.617 440.016> 329 156<72.3956 153.366>
LayerCount: 2
Fore
SplineSet
255 597 m 0xd8
 398 597 478 530 478 419 c 0xd8
 478 381 467 335 424 300 c 0
 375 261 315 227 257 190 c 0
 213 162 183 136 183 105 c 0
 183 66 219 55 256 55 c 0
 296 55 329 75 329 109 c 0
 329 126 319 147 298 160 c 1
 415 234 l 1
 455 203 487 161 485 88 c 0
 483 -25 385 -95 252 -95 c 0
 109 -95 18 -21 18 90 c 0xe4
 18 144 45 186 78 210 c 0
 121 242 177 269 255 316 c 0
 286 335 327 366 327 398 c 0
 327 435 299 454 252 454 c 0
 207 454 175 436 175 401 c 0
 175 377 197 355 218 342 c 1
 102 275 l 1
 73 293 28 337 28 408 c 0
 28 537 117 597 255 597 c 0xd8
EndSplineSet
EndChar

StartChar: nine
Encoding: 57 57 11
Width: 538
VWidth: 1074
Flags: W
HStem: -87 153<101.039 320.761> 145 135<202.589 301> 461 143<195.835 331.018>
VStem: 17 148<313.808 428.992> 366 150<108.093 425.18>
LayerCount: 2
Fore
SplineSet
269 604 m 0
 447 604 516 495 516 357 c 2
 516 138 l 2
 516 66 480 1 428 -38 c 0
 355 -93 258 -87 214 -87 c 0
 162 -87 101 -75 101 -75 c 1
 101 77 l 1
 101 77 146 66 210 66 c 0
 274 66 301 75 328 92 c 0
 346 104 366 126 366 165 c 2
 366 344 l 2
 366 393 356 461 259 461 c 0
 202 461 165 423 165 369 c 0
 165 316 201 277 301 280 c 1
 301 145 l 1
 251 145 l 2
 136 145 17 209 17 373 c 0
 17 508 79 604 269 604 c 0
EndSplineSet
EndChar

StartChar: A
Encoding: 65 65 12
Width: 647
VWidth: 1074
Flags: W
HStem: -75 21G<23 185.849 462.074 625> 60 111<312 395> 571 20G<277.5 368.5>
LayerCount: 2
Fore
SplineSet
323 591 m 0
 414 591 442 498 442 498 c 1
 625 -75 l 1
 468 -75 l 1
 428 60 l 1
 280 60 l 1
 312 171 l 1
 395 171 l 1
 323 414 l 1
 180 -75 l 1
 23 -75 l 1
 203 498 l 1
 203 498 232 591 323 591 c 0
EndSplineSet
EndChar

StartChar: B
Encoding: 66 66 13
Width: 554
VWidth: 1074
Flags: W
HStem: -75 116<252 366.993> 196 110<252 341.809> 426 153<187 343.18>
VStem: 34 153<-75 426> 362 157<326.598 451.508> 395 143<69.2027 164.277>
LayerCount: 2
Fore
SplineSet
34 579 m 1xf8
 253 579 l 2
 449 579 519 494 519 406 c 0xf8
 519 361 510 295 445 258 c 1
 504 231 538 183 538 107 c 0
 538 -29 411 -75 343 -75 c 2
 252 -75 l 1
 252 41 l 1
 275 41 l 2
 345 41 395 63 395 115 c 0xf4
 395 183 315 196 252 196 c 1
 252 306 l 1
 315 306 362 323 362 370 c 0
 362 426 286 426 236 426 c 0
 226 426 187 426 187 426 c 1
 187 -75 l 1
 34 -75 l 1
 34 579 l 1xf8
EndSplineSet
EndChar

StartChar: C
Encoding: 67 67 14
Width: 480
VWidth: 1074
Flags: W
HStem: -75 149<260.403 448> 426 153<277.734 448>
VStem: 17 169<147.871 338.212>
LayerCount: 2
Fore
SplineSet
448 579 m 1
 448 426 l 1
 363 426 l 2
 225 426 186 323 186 242 c 0
 186 167 206 74 374 74 c 0
 376 74 448 74 448 74 c 1
 448 -75 l 1
 302 -75 l 2
 118 -75 17 52 17 242 c 0
 17 394 76 579 349 579 c 2
 448 579 l 1
EndSplineSet
EndChar

StartChar: E
Encoding: 69 69 15
Width: 449
VWidth: 1074
Flags: W
HStem: -75 153<187 415> 172 153<187 364> 426 153<187 415>
VStem: 34 381<-75 78 426 579> 34 153<78 172 325 426>
LayerCount: 2
Fore
SplineSet
34 579 m 1xf0
 415 579 l 1
 415 426 l 1xf0
 187 426 l 1
 187 325 l 1
 364 325 l 1
 364 172 l 1
 187 172 l 1
 187 78 l 1xe8
 415 78 l 1
 415 -75 l 1
 34 -75 l 1
 34 579 l 1xf0
EndSplineSet
EndChar

StartChar: F
Encoding: 70 70 16
Width: 438
VWidth: 1074
Flags: W
HStem: -75 21G<34 187> 172 153<187 364> 426 153<187 415>
VStem: 34 153<-75 172 325 426>
LayerCount: 2
Fore
SplineSet
34 579 m 1
 415 579 l 1
 415 426 l 1
 187 426 l 1
 187 325 l 1
 364 325 l 1
 364 172 l 1
 187 172 l 1
 187 -75 l 1
 34 -75 l 1
 34 579 l 1
EndSplineSet
EndChar

StartChar: G
Encoding: 71 71 17
Width: 654
VWidth: 1074
Flags: W
HStem: -99 138<279.942 447.7> 172 137<319 450> 426 21G<413 535> 436 157<301.397 534.966>
VStem: 17 159<137.134 323.958> 450 153<41 172>
LayerCount: 2
Fore
SplineSet
535 579 m 1xdc
 535 426 l 1xec
 535 426 502 436 413 436 c 0
 308 436 176 386 176 228 c 0
 176 122 249 39 373 39 c 0
 420 39 450 43 450 43 c 1
 450 172 l 1
 319 172 l 1
 319 309 l 1
 603 309 l 1
 603 -75 l 1
 603 -75 525 -99 384 -99 c 0
 124 -99 17 37 17 232 c 0
 17 471 172 593 404 593 c 0
 476 593 535 579 535 579 c 1xdc
EndSplineSet
EndChar

StartChar: H
Encoding: 72 72 18
Width: 550
VWidth: 1074
Flags: W
HStem: -75 22G<34 187 363 516> 170 153<187 363> 559 20G<34 187 363 516>
VStem: 34 153<-75 170 323 579> 363 153<-74 170 323 579>
LayerCount: 2
Fore
SplineSet
363 579 m 1
 516 579 l 1
 516 -74 l 1
 363 -74 l 1
 363 170 l 1
 187 170 l 1
 187 -75 l 1
 34 -75 l 1
 34 579 l 1
 187 579 l 1
 187 323 l 1
 363 323 l 1
 363 579 l 1
EndSplineSet
EndChar

StartChar: I
Encoding: 73 73 19
Width: 221
VWidth: 1074
Flags: W
HStem: -75 21G<34 187> 559 20G<34 187>
VStem: 34 153<-75 579>
LayerCount: 2
Fore
SplineSet
34 -75 m 1
 34 579 l 1
 187 579 l 1
 187 -75 l 1
 34 -75 l 1
EndSplineSet
EndChar

StartChar: J
Encoding: 74 74 20
Width: 380
VWidth: 1074
Flags: W
HStem: -75 140<34 135.539> 426 153<40 193>
VStem: 193 153<121.603 426>
LayerCount: 2
Fore
SplineSet
40 579 m 1
 142 579 244 579 346 579 c 1
 346 205 l 2
 346 50 284 -75 34 -75 c 1
 34 65 l 1
 122 65 194 93 193 201 c 2
 193 426 l 1
 40 426 l 1
 40 579 l 1
EndSplineSet
EndChar

StartChar: K
Encoding: 75 75 21
Width: 511
VWidth: 1074
Flags: W
HStem: -75 21G<34 187 329 477> 173 158<187 274.703> 559 20G<34 187 320 469>
VStem: 34 153<-75 173 331 579> 320 149<374.898 579> 329 148<-75 129.973>
LayerCount: 2
Fore
SplineSet
469 579 m 1xf8
 469 579 469 470 469 410 c 0xf8
 469 353 435 291 373 254 c 1
 440 218 477 153 477 94 c 0
 477 34 477 -75 477 -75 c 1
 329 -75 l 1
 329 58 l 2xf4
 329 132 281 176 193 173 c 2
 187 173 l 1
 187 -75 l 1
 34 -75 l 1
 34 579 l 1
 187 579 l 1
 187 331 l 1
 274 329 320 372 320 446 c 2
 320 579 l 1
 469 579 l 1xf8
EndSplineSet
EndChar

StartChar: L
Encoding: 76 76 22
Width: 449
VWidth: 1074
Flags: W
HStem: -75 153<187 415> 559 20G<34 187>
VStem: 34 153<78 578>
LayerCount: 2
Fore
SplineSet
34 579 m 1
 187 578 l 1
 187 78 l 1
 415 78 l 1
 415 -75 l 1
 34 -75 l 1
 34 579 l 1
EndSplineSet
EndChar

StartChar: M
Encoding: 77 77 23
Width: 863
VWidth: 1074
Flags: W
HStem: -75 21G<33 186 355 508 676.95 830> 426 153<186 319.967 533.202 651.614>
VStem: 33 153<-75 426> 355 153<-75 392.309> 677 153<-75 399.582>
CounterMasks: 1 38
LayerCount: 2
Fore
SplineSet
265 579 m 0
 332 579 394 569 434 500 c 1
 474 565 533 583 608 583 c 0
 768 583 830 489 830 358 c 2
 830 -75 l 1
 677 -75 l 1
 676 328 l 2
 676 393 645 429 594 429 c 0
 542 429 508 394 508 327 c 2
 508 -75 l 1
 355 -75 l 1
 355 324 l 2
 355 406 299 426 236 426 c 2
 186 426 l 1
 186 -75 l 1
 33 -75 l 1
 33 579 l 1
 33 579 165 579 265 579 c 0
EndSplineSet
EndChar

StartChar: W
Encoding: 87 87 24
Width: 980
VWidth: 1074
Flags: W
HStem: 418 20G<479.5 504.5> 559 20G<10 172.87 807.089 970>
LayerCount: 2
Fore
SplineSet
10 579 m 1
 167 579 l 1
 312 85 l 1
 413 386 l 2
 425 427 467 438 492 438 c 0
 517 438 556 429 569 386 c 2
 667 85 l 1
 813 579 l 1
 970 579 l 1
 786 1 l 1
 786 1 758 -92 667 -92 c 0
 576 -92 548 1 548 1 c 1
 490 185 l 1
 431 1 l 1
 431 1 403 -92 312 -92 c 0
 221 -92 192 1 192 1 c 1
 10 579 l 1
EndSplineSet
EndChar

StartChar: X
Encoding: 88 88 25
Width: 602
VWidth: 1074
Flags: W
HStem: -74 21G<10 189.942 412.058 592> 559 20G<10 189.942 412.058 592>
LayerCount: 2
Fore
SplineSet
178 579 m 1
 301 373 l 1
 424 579 l 1
 592 579 l 1
 385 252 l 1
 592 -74 l 1
 424 -74 l 1
 301 132 l 1
 178 -74 l 1
 10 -74 l 1
 217 252 l 1
 10 579 l 1
 178 579 l 1
EndSplineSet
EndChar

StartChar: Y
Encoding: 89 89 26
Width: 602
VWidth: 1074
Flags: W
HStem: -75 21G<224 378> 559 20G<10 189.942 412.058 592>
VStem: 224 154<-75 243>
LayerCount: 2
Fore
SplineSet
178 579 m 1
 301 373 l 1
 424 579 l 1
 592 579 l 1
 378 243 l 1
 378 -75 l 1
 224 -75 l 1
 224 243 l 1
 10 579 l 1
 178 579 l 1
EndSplineSet
EndChar

StartChar: Z
Encoding: 90 90 27
Width: 630
VWidth: 1074
Flags: W
HStem: -75 153<286 609> 426 153<20 343>
LayerCount: 2
Fore
SplineSet
20 579 m 1
 610 579 l 1
 286 78 l 1
 609 78 l 1
 609 -75 l 1
 20 -75 l 1
 343 426 l 1
 20 426 l 1
 20 579 l 1
EndSplineSet
EndChar

StartChar: V
Encoding: 86 86 28
Width: 622
VWidth: 1074
Flags: W
HStem: -87 21G<264.5 355.5> 559 20G<10 172.849 449.07 612>
LayerCount: 2
Fore
SplineSet
310 -87 m 0
 219 -87 191 6 191 6 c 1
 10 579 l 1
 167 579 l 1
 310 90 l 1
 455 579 l 1
 612 579 l 1
 429 6 l 1
 429 6 401 -87 310 -87 c 0
EndSplineSet
EndChar

StartChar: U
Encoding: 85 85 29
Width: 583
VWidth: 1074
Flags: W
HStem: -92 159<229.35 352.309> 559 20G<34 192 391 548>
VStem: 34 158<112.041 579> 391 157<111.244 579>
LayerCount: 2
Fore
SplineSet
548 579 m 1
 548 187 l 2
 548 -8 440 -92 290 -92 c 0
 140 -92 34 19 34 175 c 2
 34 579 l 1
 192 579 l 1
 192 219 l 2
 192 113 226 67 291 67 c 0
 358 67 391 110 391 221 c 2
 391 579 l 1
 548 579 l 1
EndSplineSet
EndChar

StartChar: T
Encoding: 84 84 30
Width: 518
VWidth: 1074
Flags: W
HStem: -75 21G<181 334> 426 153<15 181 334 504>
VStem: 181 153<-75 426>
LayerCount: 2
Fore
SplineSet
15 579 m 1
 504 579 l 1
 504 426 l 1
 334 426 l 1
 334 -75 l 1
 181 -75 l 1
 181 426 l 1
 15 426 l 1
 15 579 l 1
EndSplineSet
EndChar

StartChar: S
Encoding: 83 83 31
Width: 482
VWidth: 1074
Flags: W
HStem: -75 152<34 256.309> 426 153<217.187 442>
VStem: 17 175<326.779 403.94> 274 192<92.2745 161.773>
LayerCount: 2
Fore
SplineSet
442 426 m 1
 291 426 l 2
 245 426 192 410 192 363 c 0
 192 313 254 315 320 306 c 0
 414 293 466 216 466 115 c 0
 466 -4 387 -75 243 -75 c 2
 34 -75 l 1
 34 77 l 1
 185 77 l 2
 205 77 274 79 274 128 c 0
 274 176 205 177 153 187 c 0
 96 198 17 242 17 358 c 0
 17 482 56 579 286 579 c 2
 442 579 l 1
 442 426 l 1
EndSplineSet
EndChar

StartChar: R
Encoding: 82 82 32
Width: 578
VWidth: 1074
Flags: W
HStem: -75 21G<34 187 344.323 525> 426 153<187 366.137>
VStem: 34 153<-75 426> 402 159<265.716 392.172>
LayerCount: 2
Fore
SplineSet
34 579 m 1
 276 579 l 2
 471 579 561 489 561 327 c 0
 561 212 498 135 408 101 c 1
 525 -75 l 1
 358 -75 l 1
 252 80 l 1
 252 220 l 1
 330 220 402 245 402 332 c 0
 402 408 344 426 251 426 c 2
 187 426 l 1
 187 -75 l 1
 34 -75 l 1
 34 579 l 1
EndSplineSet
EndChar

StartChar: Q
Encoding: 81 81 33
Width: 703
VWidth: 1074
Flags: W
HStem: -89 21G<259.5 358.5> 431 162<266.496 436.504>
VStem: 17 153<166.951 333.14> 532 155<165.923 333.14>
LayerCount: 2
Fore
SplineSet
352 593 m 0
 537 593 687 441 687 252 c 0
 687 152 644 61 577 -1 c 1
 682 -162 l 1
 530 -162 l 1
 389 75 l 1
 473 93 532 166 532 251 c 0
 532 351 451 431 351 431 c 0
 251 431 170 351 170 251 c 0
 170 175 219 106 291 81 c 1
 391 -87 l 1
 378 -89 365 -89 352 -89 c 0
 167 -89 17 63 17 252 c 0
 17 441 167 593 352 593 c 0
EndSplineSet
EndChar

StartChar: P
Encoding: 80 80 34
Width: 578
VWidth: 1074
Flags: W
HStem: -75 21G<34 187> 80 140<252 349.424> 426 153<187 366.137>
VStem: 34 153<-75 426> 402 159<267.477 392.172>
LayerCount: 2
Fore
SplineSet
34 579 m 1
 276 579 l 2
 471 579 561 489 561 327 c 0
 561 165 436 80 289 80 c 2
 252 80 l 1
 252 220 l 1
 330 220 402 245 402 332 c 0
 402 408 344 426 251 426 c 2
 187 426 l 1
 187 -75 l 1
 34 -75 l 1
 34 579 l 1
EndSplineSet
EndChar

StartChar: O
Encoding: 79 79 35
Width: 703
VWidth: 1074
Flags: W
HStem: -89 160<266.496 436.504> 431 162<266.496 436.504>
VStem: 17 153<165.969 332.918> 532 155<165.969 332.918>
LayerCount: 2
Fore
SplineSet
351 431 m 0
 251 431 170 350 170 251 c 0
 170 152 251 71 351 71 c 0
 451 71 532 152 532 251 c 0
 532 350 451 431 351 431 c 0
352 593 m 0
 537 593 687 441 687 252 c 0
 687 63 537 -89 352 -89 c 0
 167 -89 17 63 17 252 c 0
 17 441 167 593 352 593 c 0
EndSplineSet
EndChar

StartChar: N
Encoding: 78 78 36
Width: 564
VWidth: 1074
Flags: W
HStem: -75 21G<33 186.12 378 531> 426 153<189 333.583>
VStem: 33 153<-75 426> 378 153<-75 386.693>
LayerCount: 2
Fore
SplineSet
285 579 m 0
 469 579 531 462 531 336 c 2
 531 -75 l 1
 378 -75 l 1
 378 310 l 2
 378 401 326 426 252 426 c 2
 189 426 l 1
 186 -75 l 1
 33 -75 l 1
 33 579 l 1
 33 579 185 579 285 579 c 0
EndSplineSet
EndChar

StartChar: a
Encoding: 97 97 37
Width: 547
VWidth: 1074
Flags: W
HStem: -75 135<212.455 306> 295 131<208.844 371>
VStem: 17 139<110.13 248.299> 371 149<-75 295>
LayerCount: 2
Fore
SplineSet
520 426 m 1
 520 -75 l 1
 371 -75 l 1
 371 295 l 1
 307 295 l 2
 194 295 156 246 156 179 c 0
 156 91 228 60 306 60 c 1
 306 -75 l 1
 269 -75 l 2
 131 -75 17 23 17 169 c 0
 17 315 97 426 280 426 c 2
 520 426 l 1
EndSplineSet
EndChar

StartChar: b
Encoding: 98 98 38
Width: 554
VWidth: 1074
Flags: W
HStem: -75 131<184 345.156> 291 135<249 342.491> 626 20G<34 184>
VStem: 34 150<56 646> 399 138<102.701 240.87>
LayerCount: 2
Fore
SplineSet
34 -75 m 1
 34 646 l 1
 184 646 l 1
 184 56 l 1
 248 56 l 2
 361 56 399 105 399 172 c 0
 399 260 327 291 249 291 c 1
 249 426 l 1
 286 426 l 2
 424 426 537 328 537 182 c 0
 537 36 457 -75 274 -75 c 2
 34 -75 l 1
EndSplineSet
EndChar

StartChar: c
Encoding: 99 99 39
Width: 420
VWidth: 1074
Flags: W
HStem: -75 135<212.656 371> 295 131<210.012 371>
VStem: 17 139<111.399 247.18>
LayerCount: 2
Fore
SplineSet
371 426 m 1
 371 295 l 1
 312 295 l 2
 199 295 156 246 156 179 c 0
 156 91 233 60 311 60 c 2
 371 60 l 1
 371 -75 l 1
 269 -75 l 2
 131 -75 17 23 17 169 c 0
 17 315 97 426 280 426 c 2
 371 426 l 1
EndSplineSet
EndChar

StartChar: d
Encoding: 100 100 40
Width: 553
VWidth: 1074
Flags: W
HStem: -75 131<208.844 371> 291 135<212.455 306> 626 20G<371 520>
VStem: 17 139<102.701 240.87> 371 149<56 646>
LayerCount: 2
Fore
SplineSet
520 -75 m 1
 280 -75 l 2
 97 -75 17 36 17 182 c 0
 17 328 131 426 269 426 c 2
 306 426 l 1
 306 291 l 1
 228 291 156 260 156 172 c 0
 156 105 194 56 307 56 c 2
 371 56 l 1
 371 646 l 1
 520 646 l 1
 520 -75 l 1
EndSplineSet
EndChar

StartChar: e
Encoding: 101 101 41
Width: 531
VWidth: 1074
Flags: W
HStem: -83 129<208.562 416.966> 119 88<232 374> 296 141<197.751 340.856>
VStem: 17 133<100.736 246.434>
LayerCount: 2
Fore
SplineSet
512 120 m 1
 445 120 232 119 232 119 c 1
 232 207 l 1
 374 207 l 1
 377 248 343 296 268 296 c 0
 221 296 150 268 150 170 c 0
 150 76 233 46 303 46 c 0
 376 46 417 53 417 53 c 1
 417 -75 l 1
 417 -75 366 -83 306 -83 c 0
 94 -83 17 48 17 171 c 0
 17 321 111 437 265 437 c 0
 402 437 532 367 512 120 c 1
EndSplineSet
EndChar

StartChar: f
Encoding: 102 102 42
Width: 388
VWidth: 1074
Flags: W
HStem: -75 21G<77.9278 225> 202 127<11 77 225 329> 452 136<281.601 377>
VStem: 77 148<-75 202 329 399.182>
LayerCount: 2
Fore
SplineSet
329 329 m 1
 329 202 l 1
 225 202 l 1
 225 -75 l 1
 78 -75 l 1
 78 -75 78 78 77 202 c 1
 11 202 l 1
 11 329 l 1
 77 329 l 1
 83 470 149 588 377 588 c 1
 377 452 l 1
 295 452 228 427 225 329 c 1
 329 329 l 1
EndSplineSet
EndChar

StartChar: g
Encoding: 103 103 43
Width: 571
VWidth: 1074
Flags: W
HStem: -300 125<106.039 325.761> -75 135<212.455 306> 295 131<208.844 371>
VStem: 17 139<110.13 248.299> 371 149<-133.666 295>
LayerCount: 2
Fore
SplineSet
280 426 m 2
 520 426 l 1
 520 -75 l 2
 520 -147 485 -212 433 -251 c 0
 360 -306 263 -300 219 -300 c 0
 167 -300 106 -288 106 -288 c 1
 106 -163 l 1
 106 -163 151 -175 215 -175 c 0
 279 -175 306 -166 333 -149 c 0
 351 -137 371 -114 371 -75 c 2
 371 295 l 1
 307 295 l 2
 194 295 156 246 156 179 c 0
 156 91 228 60 306 60 c 1
 306 -75 l 1
 269 -75 l 2
 131 -75 17 23 17 169 c 0
 17 315 97 426 280 426 c 2
EndSplineSet
EndChar

StartChar: h
Encoding: 104 104 44
Width: 562
VWidth: 1074
Flags: W
HStem: -75 21G<34 183 379 528> 287 139<182 322.571> 626 20G<34 181>
VStem: 34 147<-75 287 426 646> 379 149<-75 230.383>
LayerCount: 2
Fore
SplineSet
379 -75 m 1
 379 141 l 2
 379 235 332 287 244 287 c 2
 182 287 l 1
 183 -75 l 1
 34 -75 l 1
 34 646 l 1
 181 646 l 1
 181 426 l 1
 303 426 l 2
 445 426 527 300 527 188 c 0
 527 113 528 -75 528 -75 c 1
 379 -75 l 1
EndSplineSet
EndChar

StartChar: i
Encoding: 105 105 45
Width: 241
VWidth: 1074
Flags: W
HStem: -75 21G<48 196> 406 20G<48 196> 495 173<64.0848 177.485>
VStem: 34 173<525.085 638.485> 48 148<-75 426>
LayerCount: 2
Fore
SplineSet
34 582 m 0xf0
 34 630 73 668 121 668 c 0
 169 668 207 630 207 582 c 0
 207 534 169 495 121 495 c 0
 73 495 34 534 34 582 c 0xf0
196 426 m 1xe8
 196 -75 l 1
 48 -75 l 1
 48 426 l 1
 196 426 l 1xe8
EndSplineSet
EndChar

StartChar: j
Encoding: 106 106 46
Width: 333
VWidth: 1074
Flags: W
HStem: -288 136<-12 87.5061> 406 20G<141 287.092> 495 173<157.515 270.485>
VStem: 128 172<525.085 638.485> 141 148<-102.014 426>
LayerCount: 2
Fore
SplineSet
287 426 m 1xe8
 287 426 289 104 289 -8 c 0
 289 -157 227 -288 -12 -288 c 1
 -12 -152 l 1
 73 -152 142 -125 141 -21 c 2
 141 426 l 1
 287 426 l 1xe8
128 582 m 0xf0
 128 630 166 668 214 668 c 0
 262 668 300 630 300 582 c 0
 300 534 262 495 214 495 c 0
 166 495 128 534 128 582 c 0xf0
EndSplineSet
EndChar

StartChar: k
Encoding: 107 107 47
Width: 518
VWidth: 1074
Flags: W
HStem: -75 21G<34 183 336 484> 406 20G<303.907 475> 626 20G<34 181.048>
VStem: 34 148<-75 94 233 646> 336 148<-75 35.5637>
LayerCount: 2
Fore
SplineSet
318 426 m 1
 475 426 l 1
 331 221 l 1
 429 186 484 84 484 -8 c 2
 484 -75 l 1
 336 -75 l 1
 336 -52 l 2
 336 42 288 94 200 94 c 2
 182 94 l 1
 183 -75 l 1
 34 -75 l 1
 34 646 l 1
 181 646 l 1
 182 233 l 1
 318 426 l 1
EndSplineSet
EndChar

StartChar: l
Encoding: 108 108 48
Width: 217
VWidth: 1074
Flags: W
HStem: -75 21G<34 183> 626 20G<34 181.055>
VStem: 34 149<-75 646>
LayerCount: 2
Fore
SplineSet
181 646 m 1
 183 -75 l 1
 34 -75 l 1
 34 646 l 1
 181 646 l 1
EndSplineSet
EndChar

StartChar: m
Encoding: 109 109 49
Width: 864
VWidth: 1074
Flags: W
HStem: -75 21G<33 182 357 506 681 830> 294 150<213.444 327.373 536.919 649.556>
VStem: 33 149<-75 257.59> 357 149<-75 261> 681 149<-75 257.59>
CounterMasks: 1 38
LayerCount: 2
Fore
SplineSet
265 444 m 0
 332 444 389 419 431 379 c 1
 473 419 531 444 598 444 c 0
 739 444 830 339 830 192 c 2
 830 -75 l 1
 681 -75 l 1
 681 151 l 2
 681 251 656 294 595 294 c 0
 532 294 506 254 506 150 c 2
 506 -75 l 1
 357 -75 l 1
 357 150 l 2
 357 254 331 294 268 294 c 0
 207 294 182 251 182 151 c 2
 182 -75 l 1
 33 -75 l 1
 33 192 l 2
 33 339 124 444 265 444 c 0
EndSplineSet
EndChar

StartChar: n
Encoding: 110 110 50
Width: 553
VWidth: 1074
Flags: W
HStem: -75 21G<34 183 370 518> 292 150<218.041 334.5>
VStem: 34 149<-75 249.349> 370 148<-75 250.156>
LayerCount: 2
Fore
SplineSet
518 -75 m 1
 370 -75 l 1
 370 147 l 2
 370 251 339 292 276 292 c 0
 215 292 183 248 183 148 c 2
 183 -75 l 1
 34 -75 l 1
 34 190 l 2
 34 337 134 442 275 442 c 0
 416 442 518 362 518 179 c 2
 518 -75 l 1
EndSplineSet
EndChar

StartChar: o
Encoding: 111 111 51
Width: 547
VWidth: 1074
Flags: W
HStem: -83 143<208.371 344.485> 296 141<208.371 344.485>
VStem: 17 140<110.993 244.007> 394 136<110.993 244.007>
LayerCount: 2
Fore
SplineSet
276 296 m 0
 210 296 157 243 157 178 c 0
 157 113 210 60 276 60 c 0
 342 60 394 113 394 178 c 0
 394 243 342 296 276 296 c 0
274 437 m 0
 416 437 530 320 530 177 c 0
 530 34 416 -83 274 -83 c 0
 132 -83 17 34 17 177 c 0
 17 320 132 437 274 437 c 0
EndSplineSet
EndChar

StartChar: q
Encoding: 113 113 52
Width: 554
VWidth: 1074
Flags: W
HStem: -75 135<212.455 306> 295 131<208.844 370>
VStem: 17 139<110.13 248.299> 370 150<-288 295>
LayerCount: 2
Fore
SplineSet
520 426 m 1
 520 -288 l 1
 370 -288 l 1
 370 295 l 1
 307 295 l 2
 194 295 156 246 156 179 c 0
 156 91 228 60 306 60 c 1
 306 -75 l 1
 269 -75 l 2
 131 -75 17 23 17 169 c 0
 17 315 97 426 280 426 c 2
 520 426 l 1
EndSplineSet
EndChar

StartChar: r
Encoding: 114 114 53
Width: 481
VWidth: 1074
Flags: W
HStem: -75 21G<34 182> 285 141<181 287.833>
VStem: 34 148<-75 285>
LayerCount: 2
Fore
SplineSet
162 426 m 1
 249 426 l 2
 394 426 465 314 465 236 c 0
 465 203 465 190 465 189 c 1
 316 189 l 1
 316 198 l 2
 316 260 276 285 211 285 c 2
 181 285 l 1
 182 -75 l 1
 34 -75 l 1
 34 426 l 1
 162 426 l 1
EndSplineSet
EndChar

StartChar: s
Encoding: 115 115 54
Width: 395
VWidth: 1074
Flags: W
HStem: -75 128<48 220.711> 298 128<182.282 360>
VStem: 34 142<225.983 287.917> 224 154<59.0943 113.313>
LayerCount: 2
Fore
SplineSet
360 298 m 1
 244 298 l 2
 208 298 176 289 176 255 c 0
 176 218 221 219 267 212 c 0
 328 202 378 148 378 78 c 0
 378 -27 316 -75 193 -75 c 2
 48 -75 l 1
 48 53 l 1
 163 53 l 2
 178 53 224 55 224 86 c 0
 224 122 167 122 139 126 c 0
 105 131 34 163 34 250 c 0
 34 349 74 426 248 426 c 2
 360 426 l 1
 360 298 l 1
EndSplineSet
EndChar

StartChar: t
Encoding: 116 116 55
Width: 417
VWidth: 1074
Flags: W
HStem: -75 136<283.494 383> 298 128<17 82 230 383> 559 20G<83.8693 230>
VStem: 82 148<110.108 298 426 579>
LayerCount: 2
Fore
SplineSet
383 426 m 1
 383 298 l 1
 230 298 l 1
 230 191 l 2
 229 87 298 61 383 61 c 1
 383 -75 l 1
 144 -75 82 55 82 204 c 0
 82 229 82 262 82 298 c 1
 17 298 l 1
 17 426 l 1
 83 426 l 1
 84 509 84 579 84 579 c 1
 230 579 l 1
 230 426 l 1
 383 426 l 1
EndSplineSet
EndChar

StartChar: u
Encoding: 117 117 56
Width: 553
VWidth: 1074
Flags: W
HStem: -91 150<219.041 335.5> 406 20G<35 184 371 519>
VStem: 35 149<101.651 426> 371 148<100.844 426>
LayerCount: 2
Fore
SplineSet
519 426 m 1
 519 172 l 2
 519 -11 417 -91 276 -91 c 0
 135 -91 35 14 35 161 c 2
 35 426 l 1
 184 426 l 1
 184 203 l 2
 184 103 216 59 277 59 c 0
 340 59 371 100 371 204 c 2
 371 426 l 1
 519 426 l 1
EndSplineSet
EndChar

StartChar: v
Encoding: 118 118 57
Width: 530
VWidth: 1074
Flags: W
HStem: -87 21G<220 310> 406 20G<15 174.647 355.353 515>
LayerCount: 2
Fore
SplineSet
15 426 m 1
 169 426 l 1
 265 86 l 1
 361 426 l 1
 515 426 l 1
 382 4 l 1
 382 4 355 -87 265 -87 c 0
 175 -87 148 4 148 4 c 1
 15 426 l 1
EndSplineSet
EndChar

StartChar: w
Encoding: 119 119 58
Width: 817
VWidth: 1074
Flags: W
HStem: -87 21G<220 310 508 598> 406 20G<15 174.766 355.234 463.723 643.217 803>
LayerCount: 2
Fore
SplineSet
15 426 m 1
 169 426 l 1
 265 93 l 1
 361 426 l 1
 458 426 l 1
 553 94 l 1
 649 426 l 1
 803 426 l 1
 670 4 l 1
 670 4 643 -87 553 -87 c 0
 463 -87 438 4 438 4 c 1
 409 127 l 1
 380 4 l 1
 380 4 355 -87 265 -87 c 0
 175 -87 148 4 148 4 c 1
 15 426 l 1
EndSplineSet
EndChar

StartChar: x
Encoding: 120 120 59
Width: 493
VWidth: 1074
Flags: W
HStem: -75 21G<13 176.086 319.058 482> 406 20G<14 174.199 320.943 482>
LayerCount: 2
Fore
SplineSet
14 426 m 1
 162 426 l 1
 248 285 l 1
 333 426 l 1
 482 426 l 1
 322 175 l 1
 482 -75 l 1
 331 -75 l 1
 248 64 l 1
 164 -75 l 1
 13 -75 l 1
 173 175 l 1
 14 426 l 1
EndSplineSet
EndChar

StartChar: y
Encoding: 121 121 60
Width: 562
VWidth: 1074
Flags: W
HStem: -300 125<113.039 332.761> -75 139<240.423 378> 406 20G<34 183 379 528>
VStem: 35 148<121.574 426> 378 150<-133.666 -75 64 426>
LayerCount: 2
Fore
SplineSet
183 426 m 1
 183 210 l 2
 183 116 230 64 318 64 c 2
 381 64 l 1
 379 426 l 1
 528 426 l 1
 528 -75 l 2
 528 -147 492 -212 440 -251 c 0
 367 -306 270 -300 226 -300 c 0
 174 -300 113 -288 113 -288 c 1
 113 -163 l 1
 113 -163 158 -175 222 -175 c 0
 286 -175 313 -166 340 -149 c 0
 358 -137 378 -114 378 -75 c 1
 260 -75 l 2
 118 -75 35 52 35 164 c 0
 35 239 34 426 34 426 c 1
 183 426 l 1
EndSplineSet
EndChar

StartChar: z
Encoding: 122 122 61
Width: 543
VWidth: 1074
Flags: W
HStem: -75 128<268 473> 298 128<72 276>
LayerCount: 2
Fore
SplineSet
72 426 m 1
 510 426 l 1
 268 53 l 1
 473 53 l 1
 473 -75 l 1
 34 -75 l 1
 276 298 l 1
 72 298 l 1
 72 426 l 1
EndSplineSet
EndChar

StartChar: colon
Encoding: 58 58 63
Width: 241
VWidth: 1074
Flags: W
HStem: -96 173<64.0848 177.485> 273 172<64.5147 177.485>
VStem: 34 173<-66.4853 46.9152 302.515 415.485>
LayerCount: 2
Fore
SplineSet
34 -10 m 0
 34 38 73 77 121 77 c 0
 169 77 207 38 207 -10 c 0
 207 -58 169 -96 121 -96 c 0
 73 -96 34 -58 34 -10 c 0
35 359 m 0
 35 407 73 445 121 445 c 0
 169 445 207 407 207 359 c 0
 207 311 169 273 121 273 c 0
 73 273 35 311 35 359 c 0
EndSplineSet
EndChar

StartChar: semicolon
Encoding: 59 59 64
Width: 309
VWidth: 1074
Flags: W
HStem: 273 172<132.515 245.485>
VStem: 103 172<302.515 415.485>
LayerCount: 2
Fore
SplineSet
103 359 m 0
 103 407 141 445 189 445 c 0
 237 445 275 407 275 359 c 0
 275 311 237 273 189 273 c 0
 141 273 103 311 103 359 c 0
268 131 m 1
 183 -150 l 1
 34 -150 l 1
 122 131 l 1
 268 131 l 1
EndSplineSet
EndChar

StartChar: equal
Encoding: 61 61 65
Width: 417
VWidth: 1074
Flags: W
HStem: 13 108<35 383> 202 110<35 383>
LayerCount: 2
Fore
SplineSet
383 13 m 1
 34 11 l 1
 35 121 l 1
 383 121 l 1
 383 13 l 1
383 203 m 1
 34 202 l 1
 35 312 l 1
 383 312 l 1
 383 203 l 1
EndSplineSet
EndChar

StartChar: grave
Encoding: 96 96 66
Width: 299
VWidth: 1074
Flags: W
HStem: 426 220<118 183>
VStem: 34 230
LayerCount: 2
Fore
SplineSet
264 426 m 1
 118 426 l 1
 34 646 l 1
 183 646 l 1
 264 426 l 1
EndSplineSet
EndChar

StartChar: quotedbl
Encoding: 34 34 67
Width: 507
VWidth: 1074
Flags: W
HStem: 426 220<118 183 326 391>
LayerCount: 2
Fore
SplineSet
264 646 m 1
 183 426 l 1
 34 426 l 1
 118 646 l 1
 264 646 l 1
472 646 m 1
 391 426 l 1
 243 426 l 1
 326 646 l 1
 472 646 l 1
EndSplineSet
EndChar

StartChar: quotesingle
Encoding: 39 39 68
Width: 299
VWidth: 1074
Flags: W
HStem: 426 220<118 183>
VStem: 34 230
LayerCount: 2
Fore
SplineSet
264 646 m 1
 183 426 l 1
 34 426 l 1
 118 646 l 1
 264 646 l 1
EndSplineSet
EndChar

StartChar: plus
Encoding: 43 43 69
Width: 470
VWidth: 1074
Flags: W
HStem: 136 109<35 182 292 436>
VStem: 182 110<-9 136 245 393>
LayerCount: 2
Fore
SplineSet
181 393 m 1
 292 393 l 1
 292 245 l 1
 436 245 l 1
 436 137 l 1
 292 136 l 1
 292 -9 l 1
 183 -9 l 1
 182 136 l 1
 34 135 l 1
 35 245 l 1
 182 245 l 1
 181 393 l 1
EndSplineSet
EndChar

StartChar: comma
Encoding: 44 44 70
Width: 302
VWidth: 1074
Flags: W
HStem: -150 281<122 183>
VStem: 34 234
LayerCount: 2
Fore
SplineSet
268 131 m 1
 183 -150 l 1
 34 -150 l 1
 122 131 l 1
 268 131 l 1
EndSplineSet
EndChar

StartChar: hyphen
Encoding: 45 45 71
Width: 417
VWidth: 1074
Flags: W
HStem: 137 108<35 383>
LayerCount: 2
Fore
SplineSet
383 137 m 1
 34 135 l 1
 35 245 l 1
 383 245 l 1
 383 137 l 1
EndSplineSet
EndChar

StartChar: period
Encoding: 46 46 72
Width: 241
VWidth: 1074
Flags: W
HStem: -96 173<64.0848 177.485>
VStem: 34 173<-66.4853 46.9152>
LayerCount: 2
Fore
SplineSet
34 -10 m 0
 34 38 73 77 121 77 c 0
 169 77 207 38 207 -10 c 0
 207 -58 169 -96 121 -96 c 0
 73 -96 34 -58 34 -10 c 0
EndSplineSet
EndChar

StartChar: slash
Encoding: 47 47 73
Width: 440
VWidth: 1074
Flags: W
HStem: 626 20G<254.264 406>
LayerCount: 2
Fore
SplineSet
406 646 m 1
 183 -142 l 1
 34 -142 l 1
 260 646 l 1
 406 646 l 1
EndSplineSet
EndChar

StartChar: backslash
Encoding: 92 92 74
Width: 440
VWidth: 1074
Flags: W
HStem: 626 20G<34 186.711>
LayerCount: 2
Fore
SplineSet
34 646 m 1
 181 646 l 1
 406 -142 l 1
 258 -142 l 1
 34 646 l 1
EndSplineSet
EndChar

StartChar: underscore
Encoding: 95 95 75
Width: 417
VWidth: 1074
Flags: W
HStem: -185 110<35 383>
LayerCount: 2
Fore
SplineSet
383 -184 m 1
 34 -185 l 1
 35 -75 l 1
 383 -75 l 1
 383 -184 l 1
EndSplineSet
EndChar

StartChar: exclam
Encoding: 33 33 76
Width: 241
VWidth: 1074
Flags: W
HStem: -96 172<64.0848 177.485> 626 20G<48 196>
VStem: 34 173<-66.4853 46.4853> 48 146<145 646>
LayerCount: 2
Fore
SplineSet
194 145 m 1xd0
 48 145 l 1
 48 646 l 1
 196 646 l 1
 194 145 l 1xd0
34 -10 m 0xe0
 34 38 73 76 121 76 c 0
 169 76 207 38 207 -10 c 0
 207 -58 169 -96 121 -96 c 0
 73 -96 34 -58 34 -10 c 0xe0
EndSplineSet
EndChar

StartChar: notequal
Encoding: 8800 8800 77
Width: 417
VWidth: 1074
Flags: W
HStem: -75 21G<96 189.517> 11 110<35 120 239 383> 203 109<35 175 293 383> 406 20G<233.211 326>
LayerCount: 2
Fore
SplineSet
293 312 m 1
 383 312 l 1
 383 203 l 1
 262 203 l 1
 239 121 l 1
 383 121 l 1
 383 13 l 1
 208 12 l 1
 184 -75 l 1
 96 -75 l 1
 120 11 l 1
 34 11 l 1
 35 121 l 1
 152 121 l 1
 175 203 l 1
 34 202 l 1
 35 312 l 1
 206 312 l 1
 239 426 l 1
 326 426 l 1
 293 312 l 1
EndSplineSet
EndChar

StartChar: numbersign
Encoding: 35 35 78
Width: 790
VWidth: 1074
Flags: W
HStem: -75 21G<183 303 488.87 608> 78 121<35 183 397 488 608 756> 373 119<34 183 302 487 608 756> 626 20G<183 302 487 608>
VStem: 183 119<-75 78 199 373 492 646> 488 120<-75 79 199 373 493 646>
LayerCount: 2
Fore
SplineSet
608 493 m 1
 756 493 l 1
 756 373 l 1
 608 373 l 1
 608 199 l 1
 756 199 l 1
 756 80 l 1
 608 79 l 1
 608 -75 l 1
 489 -75 l 1
 488 79 l 1
 397 79 l 1
 397 199 l 1
 488 199 l 1
 488 373 l 1
 302 373 l 1
 303 -75 l 1
 183 -75 l 1
 183 78 l 1
 35 78 l 1
 35 199 l 1
 183 199 l 1
 183 373 l 1
 34 373 l 1
 34 492 l 1
 183 492 l 1
 183 646 l 1
 302 646 l 1
 302 492 l 1
 487 493 l 1
 487 646 l 1
 608 646 l 1
 608 493 l 1
EndSplineSet
EndChar

StartChar: dollar
Encoding: 36 36 79
Width: 517
VWidth: 1074
Flags: W
HStem: -75 152<51 199> 426 153<319 459> 626 20G<199 318.299>
VStem: 199 120<-143 -75 579 646>
LayerCount: 2
Fore
SplineSet
459 426 m 1
 308 426 l 2
 262 426 210 410 210 363 c 0
 210 313 272 315 338 306 c 0
 432 293 483 216 483 115 c 0
 483 14 426 -54 319 -71 c 1
 320 -143 l 1
 199 -143 l 1
 199 -75 l 1
 51 -75 l 1
 51 77 l 1
 202 77 l 2
 222 77 292 79 292 128 c 0
 292 176 223 177 171 187 c 0
 114 198 34 242 34 358 c 0
 34 460 61 544 199 570 c 1
 199 646 l 1
 318 646 l 1
 319 579 l 1
 459 579 l 1
 459 426 l 1
EndSplineSet
EndChar

StartChar: percent
Encoding: 37 37 80
Width: 801
VWidth: 1074
Flags: W
HStem: -107 81<573.452 671.184> -76 21G<143 301.208> 109 81<572.892 671.743> 383 81<132.892 231.743> 599 80<133.452 231.184> 625 20G<502.722 659>
VStem: 34 80<482.966 579.295> 250 77<482.966 579.295> 474 80<-6.79537 89.5872> 690 77<-6.79537 89.5872>
LayerCount: 2
Fore
SplineSet
659 645 m 1x77c0
 291 -76 l 1
 143 -75 l 1
 513 645 l 1
 659 645 l 1x77c0
181 679 m 0x3bc0
 262 679 327 613 327 531 c 0
 327 449 262 383 181 383 c 0
 100 383 34 449 34 531 c 0
 34 613 100 679 181 679 c 0x3bc0
182 599 m 0
 145 599 114 568 114 531 c 0
 114 494 145 464 182 464 c 0
 219 464 250 494 250 531 c 0
 250 568 219 599 182 599 c 0
621 190 m 0
 702 190 767 123 767 41 c 0
 767 -41 702 -107 621 -107 c 0xb3c0
 540 -107 474 -41 474 41 c 0
 474 123 540 190 621 190 c 0
622 109 m 0
 585 109 554 79 554 42 c 0
 554 5 585 -26 622 -26 c 0
 659 -26 690 5 690 42 c 0
 690 79 659 109 622 109 c 0
EndSplineSet
EndChar

StartChar: less
Encoding: 60 60 81
Width: 448
VWidth: 1074
Flags: W
HStem: -75 21G<228.187 414> 406 20G<228.12 414>
LayerCount: 2
Fore
SplineSet
245 426 m 1
 414 426 l 1
 206 176 l 1
 414 -75 l 1
 245 -75 l 1
 34 176 l 1
 245 426 l 1
EndSplineSet
EndChar

StartChar: greater
Encoding: 62 62 82
Width: 448
VWidth: 1074
Flags: W
HStem: -75 21G<34 220.733> 406 20G<35 220.8>
LayerCount: 2
Fore
SplineSet
204 426 m 1
 414 176 l 1
 204 -75 l 1
 34 -75 l 1
 243 176 l 1
 35 426 l 1
 204 426 l 1
EndSplineSet
EndChar

StartChar: at
Encoding: 64 64 83
Width: 1000
VWidth: 1074
Flags: W
HStem: -288 144<407.383 966> -75 135<444.455 538> 295 131<440.844 603> 493 153<408.579 816>
VStem: 34 148<47.2561 298.383> 249 139<110.13 248.299> 603 149<74 295> 816 149<74 493>
LayerCount: 2
Fore
SplineSet
598 646 m 2
 877 646 l 1
 965 646 l 1
 965 -75 l 1
 603 -75 l 1
 603 295 l 1
 539 295 l 2
 426 295 388 246 388 179 c 0
 388 91 460 60 538 60 c 1
 538 -75 l 1
 501 -75 l 2
 363 -75 249 23 249 169 c 0
 249 315 329 426 512 426 c 2
 752 426 l 1
 752 74 l 1
 816 74 l 1
 816 493 l 1
 577 493 l 2
 251 493 182 322 182 176 c 0
 182 -121 424 -144 613 -144 c 0
 617 -144 963 -145 966 -145 c 1
 966 -288 l 1
 560 -288 l 2
 340 -288 34 -254 34 176 c 0
 34 577 371 646 598 646 c 2
EndSplineSet
EndChar

StartChar: exclamdown
Encoding: 161 161 84
Width: 241
VWidth: 1074
Flags: W
HStem: 282 173<64.0848 177.485>
VStem: 34 173<312.085 425.485> 48 148<-288 213>
LayerCount: 2
Fore
SplineSet
194 213 m 1xa0
 196 -288 l 1
 48 -288 l 1
 48 213 l 1
 194 213 l 1xa0
34 369 m 0xc0
 34 417 73 455 121 455 c 0
 169 455 207 417 207 369 c 0
 207 321 169 282 121 282 c 0
 73 282 34 321 34 369 c 0xc0
EndSplineSet
EndChar

StartChar: questiondown
Encoding: 191 191 85
Width: 433
VWidth: 1074
Flags: W
HStem: -317 106<175.005 270.059> 285 172<162.515 275.485>
VStem: 34 126<-196.948 -90.324> 133 172<314.515 427.485> 152 132<93 217> 286 114<-193.912 -103.527>
LayerCount: 2
Fore
SplineSet
305 371 m 0xd0
 305 323 267 285 219 285 c 0
 171 285 133 323 133 371 c 0
 133 419 171 457 219 457 c 0
 267 457 305 419 305 371 c 0xd0
223 -317 m 0
 104 -317 34 -242 34 -145 c 0xe4
 34 -96 54 -62 57 -57 c 2
 152 93 l 1
 154 217 l 1
 284 217 l 1
 284 70 l 1xc8
 197 -66 l 2
 182 -89 160 -123 160 -148 c 0
 160 -184 186 -211 219 -211 c 0
 258 -211 286 -182 286 -151 c 0
 286 -109 246 -90 246 -90 c 1
 302 -5 l 1
 302 -5 400 -46 400 -154 c 0xe4
 400 -266 305 -317 223 -317 c 0
EndSplineSet
EndChar

StartChar: question
Encoding: 63 63 86
Width: 433
VWidth: 1074
Flags: W
HStem: -96 172<158.515 271.485> 572 106<164.461 258.995>
VStem: 34 114<463.567 554.207> 129 172<-66.4853 46.4853> 150 130<143 267> 274 126<450.621 557.745>
LayerCount: 2
Fore
SplineSet
129 -10 m 0xd0
 129 38 167 76 215 76 c 0
 263 76 301 38 301 -10 c 0
 301 -58 263 -96 215 -96 c 0
 167 -96 129 -58 129 -10 c 0xd0
211 678 m 0
 330 678 400 603 400 506 c 0xe4
 400 457 380 422 377 417 c 2
 282 267 l 1
 280 143 l 1
 150 143 l 1
 150 290 l 1xc8
 237 426 l 2
 252 449 274 483 274 508 c 0
 274 544 248 572 215 572 c 0
 176 572 148 542 148 511 c 0
 148 469 188 450 188 450 c 1
 132 366 l 1
 132 366 34 406 34 514 c 0xe4
 34 626 129 678 211 678 c 0
EndSplineSet
EndChar

StartChar: asciicircum
Encoding: 94 94 87
Width: 488
VWidth: 1074
Flags: W
HStem: 426 246<161.763 187 301 326.237>
LayerCount: 2
Fore
SplineSet
244 672 m 0
 324 672 366 627 387 579 c 0
 443 451 453 429 454 426 c 1
 301 426 l 1
 244 554 l 1
 187 426 l 1
 35 426 l 1
 36 429 46 451 101 579 c 0
 122 627 164 672 244 672 c 0
35 426 m 1
 35 426 35 425 35 426 c 1
EndSplineSet
EndChar

StartChar: acircumflex
Encoding: 226 226 88
Width: 571
VWidth: 1074
Flags: W
HStem: -75 135<212.455 306> 295 131<208.844 371>
VStem: 17 139<110.13 248.299> 371 149<-75 295>
LayerCount: 2
Fore
SplineSet
520 426 m 1
 520 -75 l 1
 371 -75 l 1
 371 295 l 1
 307 295 l 2
 194 295 156 246 156 179 c 0
 156 91 228 60 306 60 c 1
 306 -75 l 1
 269 -75 l 2
 131 -75 17 23 17 169 c 0
 17 315 97 426 280 426 c 2
 520 426 l 1
311 686 m 0
 369 686 400 653 415 618 c 2
 464 507 l 1
 353 507 l 1
 311 600 l 1
 270 507 l 1
 160 507 l 1
 161 509 168 525 208 618 c 0
 223 653 253 686 311 686 c 0
EndSplineSet
EndChar

StartChar: Acircumflex
Encoding: 194 194 89
Width: 647
VWidth: 1074
Flags: W
HStem: -75 21G<23 185.849 462.074 625> 60 111<312 395> 571 20G<277.5 368.5> 646 21G<172 290.817 355.968 476>
LayerCount: 2
Fore
SplineSet
323 591 m 0
 414 591 442 498 442 498 c 1
 625 -75 l 1
 468 -75 l 1
 428 60 l 1
 280 60 l 1
 312 171 l 1
 395 171 l 1
 323 414 l 1
 180 -75 l 1
 23 -75 l 1
 203 498 l 1
 203 498 232 591 323 591 c 0
323 825 m 0
 381 825 412 792 427 757 c 0
 475 646 476 646 476 646 c 1
 365 646 l 1
 323 739 l 1
 282 646 l 1
 172 646 l 1
 220 757 l 2
 235 792 265 825 323 825 c 0
EndSplineSet
EndChar

StartChar: Ecircumflex
Encoding: 202 202 90
Width: 449
VWidth: 1074
Flags: W
HStem: -75 153<187 415> 172 153<187 364> 426 153<187 415> 646 21G<72 191.817 256.968 376>
VStem: 34 381<-75 78 426 579> 34 153<78 172 325 426>
LayerCount: 2
Fore
SplineSet
224 825 m 0xf0
 282 825 313 792 328 757 c 2
 376 646 l 1
 266 646 l 1
 224 739 l 1
 183 646 l 1
 72 646 l 1
 73 648 80 664 120 757 c 0
 135 792 166 825 224 825 c 0xf0
34 579 m 1xf8
 415 579 l 1
 415 426 l 1xf8
 187 426 l 1
 187 325 l 1
 364 325 l 1
 364 172 l 1
 187 172 l 1
 187 78 l 1xf4
 415 78 l 1
 415 -75 l 1
 34 -75 l 1
 34 579 l 1xf8
EndSplineSet
EndChar

StartChar: ecircumflex
Encoding: 234 234 91
Width: 531
VWidth: 1074
Flags: W
HStem: -83 129<208.562 416.966> 119 88<232 374> 296 141<197.751 340.856>
VStem: 17 133<100.736 246.434>
LayerCount: 2
Fore
SplineSet
512 120 m 1
 445 120 232 119 232 119 c 1
 232 207 l 1
 374 207 l 1
 377 248 343 296 268 296 c 0
 221 296 150 268 150 170 c 0
 150 76 233 46 303 46 c 0
 376 46 417 53 417 53 c 1
 417 -75 l 1
 417 -75 366 -83 306 -83 c 0
 94 -83 17 48 17 171 c 0
 17 321 111 437 265 437 c 0
 402 437 532 367 512 120 c 1
269 687 m 0
 327 687 358 654 373 619 c 2
 421 508 l 1
 310 508 l 1
 269 601 l 1
 228 508 l 1
 117 508 l 1
 118 510 125 526 165 619 c 0
 180 654 211 687 269 687 c 0
EndSplineSet
EndChar

StartChar: Icircumflex
Encoding: 206 206 92
Width: 327
VWidth: 1074
Flags: W
HStem: -75 21G<89 242> 559 20G<89 242> 646 21G<12 131.817 196.183 316>
VStem: 89 153<-75 579>
LayerCount: 2
Fore
SplineSet
164 825 m 0
 222 825 253 792 268 757 c 2
 316 646 l 1
 205 646 l 1
 164 739 l 1
 123 646 l 1
 12 646 l 1
 13 648 20 664 60 757 c 0
 75 792 106 825 164 825 c 0
89 -75 m 1
 89 579 l 1
 242 579 l 1
 242 -75 l 1
 89 -75 l 1
12 646 m 1
 12 646 12 645 12 646 c 1
EndSplineSet
EndChar

StartChar: Ocircumflex
Encoding: 212 212 93
Width: 703
VWidth: 1074
Flags: W
HStem: -89 160<266.496 436.504> 431 162<266.496 436.504> 646 21G<200 319.817 384.968 504>
VStem: 17 153<165.969 332.918> 532 155<165.969 332.918>
LayerCount: 2
Fore
SplineSet
352 825 m 0
 410 825 441 792 456 757 c 2
 504 646 l 1
 394 646 l 1
 352 739 l 1
 311 646 l 1
 200 646 l 1
 201 648 208 664 248 757 c 0
 263 792 294 825 352 825 c 0
351 431 m 0
 251 431 170 350 170 251 c 0
 170 152 251 71 351 71 c 0
 451 71 532 152 532 251 c 0
 532 350 451 431 351 431 c 0
352 593 m 0
 537 593 687 441 687 252 c 0
 687 63 537 -89 352 -89 c 0
 167 -89 17 63 17 252 c 0
 17 441 167 593 352 593 c 0
200 646 m 1
 200 646 200 645 200 646 c 1
EndSplineSet
EndChar

StartChar: Ucircumflex
Encoding: 219 219 94
Width: 583
VWidth: 1074
Flags: W
HStem: -91 159<230.306 352.309> 559 20G<34 192 391 548> 646 21G<139 258.032 323.183 443>
VStem: 34 158<113.041 579> 391 157<112.244 579>
LayerCount: 2
Fore
SplineSet
548 579 m 1
 548 188 l 2
 548 -7 440 -91 290 -91 c 0
 140 -91 34 20 34 176 c 2
 34 579 l 1
 192 579 l 1
 192 221 l 2
 192 115 226 68 291 68 c 0
 358 68 391 111 391 222 c 2
 391 579 l 1
 548 579 l 1
291 825 m 0
 349 825 380 792 395 757 c 2
 443 646 l 1
 332 646 l 1
 291 739 l 1
 249 646 l 1
 139 646 l 1
 140 648 147 664 187 757 c 0
 202 792 233 825 291 825 c 0
139 646 m 1
 139 646 139 645 139 646 c 1
EndSplineSet
EndChar

StartChar: oacute
Encoding: 243 243 95
Width: 547
VWidth: 1074
Flags: W
HStem: -83 142<208.371 344.485> 295 141<208.371 344.485>
VStem: 17 140<110.493 243.475> 394 136<110.493 243.475>
LayerCount: 2
Fore
SplineSet
276 295 m 0
 210 295 157 242 157 177 c 0
 157 112 210 59 276 59 c 0
 342 59 394 112 394 177 c 0
 394 242 342 295 276 295 c 0
274 436 m 0
 416 436 530 320 530 177 c 0
 530 34 416 -83 274 -83 c 0
 132 -83 17 34 17 177 c 0
 17 320 132 436 274 436 c 0
197 507 m 1
 301 695 l 1
 450 695 l 1
 343 507 l 1
 197 507 l 1
EndSplineSet
EndChar

StartChar: icircumflex
Encoding: 238 238 96
Width: 303
VWidth: 1074
Flags: W
HStem: -75 21G<80 229> 406 20G<80 227.08>
VStem: 80 149<-75 426>
LayerCount: 2
Fore
SplineSet
152 686 m 0
 210 686 241 653 256 618 c 2
 304 507 l 1
 193 507 l 1
 152 600 l 1
 111 507 l 1
 0 507 l 1
 1 509 8 525 48 618 c 0
 63 653 94 686 152 686 c 0
227 426 m 1
 229 -75 l 1
 80 -75 l 1
 80 426 l 1
 227 426 l 1
EndSplineSet
EndChar

StartChar: ucircumflex
Encoding: 251 251 97
Width: 553
VWidth: 1074
Flags: W
HStem: -91 150<218.041 334.5> 406 20G<34 183 370 518>
VStem: 34 149<101.651 426> 370 148<100.844 426>
LayerCount: 2
Fore
SplineSet
518 426 m 1
 518 172 l 2
 518 -11 416 -91 275 -91 c 0
 134 -91 34 14 34 161 c 2
 34 426 l 1
 183 426 l 1
 183 203 l 2
 183 103 215 59 276 59 c 0
 339 59 370 100 370 204 c 2
 370 426 l 1
 518 426 l 1
276 686 m 0
 334 686 365 653 380 618 c 2
 428 507 l 1
 317 507 l 1
 276 600 l 1
 235 507 l 1
 124 507 l 1
 125 509 132 525 172 618 c 0
 187 653 218 686 276 686 c 0
124 507 m 1
 124 507 124 506 124 507 c 1
EndSplineSet
EndChar

StartChar: asciitilde
Encoding: 126 126 98
Width: 417
VWidth: 1074
Flags: W
HStem: 117 110<203.999 365.576> 154 110<53.1168 219.361>
LayerCount: 2
Fore
SplineSet
383 151 m 1x80
 383 151 349 117 308 117 c 0x80
 211 117 212 154 118 154 c 0
 75 154 34 119 34 119 c 1
 35 229 l 1
 35 229 74 264 118 264 c 0x40
 213 264 210 227 305 227 c 0
 345 227 383 262 383 262 c 1
 383 151 l 1x80
EndSplineSet
EndChar

StartChar: Agrave
Encoding: 192 192 99
Width: 647
VWidth: 1074
Flags: W
HStem: -75 21G<23 185.849 462.074 625> 60 111<312 395> 571 20G<277 368.5> 646 21G<242.723 401>
LayerCount: 2
Fore
SplineSet
323 591 m 0
 414 591 442 498 442 498 c 1
 625 -75 l 1
 468 -75 l 1
 428 60 l 1
 280 60 l 1
 312 171 l 1
 395 171 l 1
 323 414 l 1
 180 -75 l 1
 23 -75 l 1
 204 498 l 1
 204 498 231 591 323 591 c 0
401 646 m 1
 254 646 l 1
 148 834 l 1
 297 835 l 1
 401 646 l 1
EndSplineSet
EndChar

StartChar: Aacute
Encoding: 193 193 100
Width: 647
VWidth: 1074
Flags: W
HStem: -75 21G<23 185.849 462.074 625> 60 111<312 395> 571 20G<277.5 368.5> 646 21G<237 394.277>
LayerCount: 2
Fore
SplineSet
323 591 m 0
 414 591 442 498 442 498 c 1
 625 -75 l 1
 468 -75 l 1
 428 60 l 1
 280 60 l 1
 312 171 l 1
 395 171 l 1
 323 414 l 1
 180 -75 l 1
 23 -75 l 1
 203 498 l 1
 203 498 232 591 323 591 c 0
237 646 m 1
 341 835 l 1
 489 834 l 1
 383 646 l 1
 237 646 l 1
EndSplineSet
EndChar

StartChar: Atilde
Encoding: 195 195 101
Width: 647
VWidth: 1074
Flags: W
HStem: -75 21G<23 185.849 462.074 625> 60 111<312 395> 571 20G<277 368.5> 637 110<320.514 467.388> 674 110<178.649 328.615>
LayerCount: 2
Fore
SplineSet
323 591 m 0xe0
 414 591 442 498 442 498 c 1
 625 -75 l 1
 468 -75 l 1
 428 60 l 1
 280 60 l 1
 312 171 l 1
 395 171 l 1
 323 414 l 1
 180 -75 l 1
 23 -75 l 1
 204 498 l 1
 204 498 231 591 323 591 c 0xe0
485 674 m 1xe8
 485 674 450 637 411 637 c 0xf0
 317 637 322 674 238 674 c 0xe8
 198 674 158 637 158 637 c 1
 159 747 l 1xf0
 159 747 198 784 240 784 c 0xe8
 329 784 329 747 414 747 c 0xf0
 452 747 485 784 485 784 c 1
 485 674 l 1xe8
EndSplineSet
EndChar

StartChar: Adieresis
Encoding: 196 196 102
Width: 647
VWidth: 1074
Flags: W
HStem: -75 21G<23 185.849 462.074 625> 60 111<312 395> 571 20G<277 368.5> 636 142<120.875 221.125 424.875 525.125>
VStem: 100 142<656.875 757.125> 404 142<656.375 757.125>
LayerCount: 2
Fore
SplineSet
323 591 m 0
 414 591 442 498 442 498 c 1
 625 -75 l 1
 468 -75 l 1
 428 60 l 1
 280 60 l 1
 312 171 l 1
 395 171 l 1
 323 414 l 1
 180 -75 l 1
 23 -75 l 1
 204 498 l 1
 204 498 231 591 323 591 c 0
475 778 m 0
 514 778 546 746 546 707 c 0
 546 668 514 635 475 635 c 0
 436 635 404 668 404 707 c 0
 404 746 436 778 475 778 c 0
171 778 m 0
 210 778 242 746 242 707 c 0
 242 668 210 636 171 636 c 0
 132 636 100 668 100 707 c 0
 100 746 132 778 171 778 c 0
EndSplineSet
EndChar

StartChar: Aring
Encoding: 197 197 103
Width: 647
VWidth: 1074
Flags: W
HStem: -75 21G<23 185.849 462.074 625> 60 111<312 395> 571 20G<277 368.5> 633 64<282.796 365.477> 796 64<282.486 365.797>
VStem: 211 64<705.721 788.289> 374 62<706.042 787.98>
LayerCount: 2
Fore
SplineSet
323 591 m 0
 414 591 442 498 442 498 c 1
 625 -75 l 1
 468 -75 l 1
 428 60 l 1
 280 60 l 1
 312 171 l 1
 395 171 l 1
 323 414 l 1
 180 -75 l 1
 23 -75 l 1
 204 498 l 1
 204 498 231 591 323 591 c 0
324 796 m 0
 295 796 275 776 275 747 c 0
 275 718 295 697 324 697 c 0
 353 697 374 718 374 747 c 0
 374 776 353 796 324 796 c 0
324 860 m 0
 386 860 436 809 436 746 c 0
 436 683 386 633 324 633 c 0
 262 633 211 683 211 746 c 0
 211 809 262 860 324 860 c 0
EndSplineSet
EndChar

StartChar: agrave
Encoding: 224 224 104
Width: 571
VWidth: 1074
Flags: W
HStem: -75 135<212.455 306> 295 131<208.844 371>
VStem: 17 139<110.13 248.299> 371 149<-75 295>
LayerCount: 2
Fore
SplineSet
520 426 m 1
 520 -75 l 1
 371 -75 l 1
 371 295 l 1
 307 295 l 2
 194 295 156 246 156 179 c 0
 156 91 228 60 306 60 c 1
 306 -75 l 1
 269 -75 l 2
 131 -75 17 23 17 169 c 0
 17 315 97 426 280 426 c 2
 520 426 l 1
418 507 m 1
 272 507 l 1
 166 695 l 1
 314 695 l 1
 418 507 l 1
EndSplineSet
EndChar

StartChar: aacute
Encoding: 225 225 105
Width: 571
VWidth: 1074
Flags: W
HStem: -75 135<212.455 306> 295 131<208.844 371>
VStem: 17 139<110.13 248.299> 371 149<-75 295>
LayerCount: 2
Fore
SplineSet
520 426 m 1
 520 -75 l 1
 371 -75 l 1
 371 295 l 1
 307 295 l 2
 194 295 156 246 156 179 c 0
 156 91 228 60 306 60 c 1
 306 -75 l 1
 269 -75 l 2
 131 -75 17 23 17 169 c 0
 17 315 97 426 280 426 c 2
 520 426 l 1
232 507 m 1
 337 695 l 1
 485 695 l 1
 379 507 l 1
 232 507 l 1
EndSplineSet
EndChar

StartChar: atilde
Encoding: 227 227 106
Width: 571
VWidth: 1074
Flags: W
HStem: -75 135<212.455 306> 295 131<208.844 371> 536 110<293.514 440.388> 573 110<151.352 301.615>
VStem: 17 139<110.13 248.299> 371 149<-75 295>
LayerCount: 2
Fore
SplineSet
520 426 m 1xcc
 520 -75 l 1
 371 -75 l 1
 371 295 l 1
 307 295 l 2
 194 295 156 246 156 179 c 0
 156 91 228 60 306 60 c 1
 306 -75 l 1
 269 -75 l 2
 131 -75 17 23 17 169 c 0
 17 315 97 426 280 426 c 2
 520 426 l 1xcc
458 573 m 1xdc
 458 573 423 536 384 536 c 0xec
 290 536 295 573 211 573 c 0xdc
 171 573 131 536 131 536 c 1
 131 646 l 1xec
 131 646 171 683 213 683 c 0xdc
 302 683 302 646 387 646 c 0xec
 425 646 458 683 458 683 c 1
 458 573 l 1xdc
EndSplineSet
EndChar

StartChar: adieresis
Encoding: 228 228 107
Width: 571
VWidth: 1074
Flags: W
HStem: -75 135<212.455 306> 295 131<208.844 371> 534 142<90.875 191.125 394.875 495.125>
VStem: 17 139<110.13 248.299> 70 142<554.875 655.125> 371 149<-75 295 558.622 651.378>
LayerCount: 2
Fore
SplineSet
520 426 m 1xf4
 520 -75 l 1
 371 -75 l 1
 371 295 l 1
 307 295 l 2
 194 295 156 246 156 179 c 0
 156 91 228 60 306 60 c 1
 306 -75 l 1
 269 -75 l 2
 131 -75 17 23 17 169 c 0
 17 315 97 426 280 426 c 2
 520 426 l 1xf4
141 676 m 0
 180 676 212 644 212 605 c 0
 212 566 180 534 141 534 c 0
 102 534 70 566 70 605 c 0xec
 70 644 102 676 141 676 c 0
445 676 m 0
 484 676 516 644 516 605 c 0
 516 566 484 534 445 534 c 0
 406 534 374 566 374 605 c 0
 374 644 406 676 445 676 c 0
EndSplineSet
EndChar

StartChar: aring
Encoding: 229 229 108
Width: 571
VWidth: 1074
Flags: W
HStem: -75 135<212.455 306> 295 131<208.844 371> 501 65<262.023 344.977> 665 64<261.703 345.297>
VStem: 17 139<110.13 248.299> 191 63<574.98 656.98> 354 61<574.98 656.98> 371 149<-75 295>
LayerCount: 2
Fore
SplineSet
520 426 m 1xfd
 520 -75 l 1
 371 -75 l 1
 371 295 l 1
 307 295 l 2
 194 295 156 246 156 179 c 0
 156 91 228 60 306 60 c 1
 306 -75 l 1
 269 -75 l 2
 131 -75 17 23 17 169 c 0
 17 315 97 426 280 426 c 2
 520 426 l 1xfd
303 729 m 0
 365 729 415 678 415 615 c 0xfe
 415 552 365 501 303 501 c 0
 241 501 191 552 191 615 c 0
 191 678 241 729 303 729 c 0
304 665 m 0
 275 665 254 645 254 616 c 0
 254 587 275 566 304 566 c 0
 333 566 354 587 354 616 c 0
 354 645 333 665 304 665 c 0
EndSplineSet
EndChar

StartChar: uni018F
Encoding: 399 399 109
Width: 565
VWidth: 1074
Flags: W
HStem: -107 141<208.098 347.86> 123 88<175 317> 284 129<132.034 336.255>
VStem: 398 134<83.5659 229.264>
LayerCount: 2
Fore
SplineSet
36 211 m 1
 103 211 317 211 317 211 c 1
 317 123 l 1
 175 123 l 1
 172 82 206 34 281 34 c 0
 328 34 398 62 398 160 c 0
 398 254 316 284 246 284 c 0
 173 284 132 277 132 277 c 1
 132 405 l 1
 132 405 183 413 243 413 c 0
 455 413 532 282 532 159 c 0
 532 9 438 -107 284 -107 c 0
 147 -107 16 -36 36 211 c 1
EndSplineSet
EndChar

StartChar: asterisk
Encoding: 42 42 110
Width: 424
VWidth: 1074
Flags: W
HStem: 559 20G<158 266>
VStem: 158 110<231 318 492 579>
LayerCount: 2
Fore
SplineSet
268 231 m 1
 158 231 l 1
 162 318 l 1
 89 270 l 1
 34 366 l 1
 113 405 l 1
 34 446 l 1
 89 540 l 1
 162 492 l 1
 158 579 l 1
 266 579 l 1
 262 492 l 1
 336 540 l 1
 390 446 l 1
 312 405 l 1
 390 366 l 1
 335 270 l 1
 263 318 l 1
 268 231 l 1
EndSplineSet
EndChar

StartChar: Egrave
Encoding: 200 200 111
Width: 449
VWidth: 1074
Flags: W
HStem: -75 153<187 415> 171 153<187 364> 426 153<187 415> 646 21G<171.723 330>
VStem: 34 381<-75 78 426 579> 34 153<78 171 324 426>
LayerCount: 2
Fore
SplineSet
34 579 m 1xf8
 415 579 l 1
 415 426 l 1xf8
 187 426 l 1
 187 324 l 1
 364 324 l 1
 364 171 l 1
 187 171 l 1
 187 78 l 1xf4
 415 78 l 1
 415 -75 l 1
 34 -75 l 1
 34 579 l 1xf8
330 646 m 1
 183 646 l 1
 77 834 l 1
 226 835 l 1
 330 646 l 1
EndSplineSet
EndChar

StartChar: Eacute
Encoding: 201 201 112
Width: 449
VWidth: 1074
Flags: W
HStem: -75 153<187 415> 171 153<187 364> 426 153<187 415> 646 21G<158 315.383>
VStem: 34 381<-75 78 426 579> 34 153<78 171 324 426>
LayerCount: 2
Fore
SplineSet
158 646 m 1xf0
 262 835 l 1
 411 834 l 1
 304 646 l 1
 158 646 l 1xf0
34 579 m 1xf8
 415 579 l 1
 415 426 l 1xf8
 187 426 l 1
 187 324 l 1
 364 324 l 1
 364 171 l 1
 187 171 l 1
 187 78 l 1xf4
 415 78 l 1
 415 -75 l 1
 34 -75 l 1
 34 579 l 1xf8
EndSplineSet
EndChar

StartChar: Edieresis
Encoding: 203 203 113
Width: 515
VWidth: 1074
Flags: W
HStem: -75 153<218 446> 172 153<218 395> 426 153<218 446> 636 142<55.375 156.125 359.875 460.125>
VStem: 34 143<656.875 757.125> 65 381<-75 78 426 579> 65 153<78 172 325 426> 339 142<656.375 757.125>
LayerCount: 2
Fore
SplineSet
106 778 m 0xf8
 145 778 177 746 177 707 c 0
 177 668 145 636 106 636 c 0
 67 636 34 668 34 707 c 0
 34 746 67 778 106 778 c 0xf8
410 778 m 0
 449 778 481 746 481 707 c 0
 481 668 449 635 410 635 c 0
 371 635 339 668 339 707 c 0xf1
 339 746 371 778 410 778 c 0
65 579 m 1xf4
 446 579 l 1
 446 426 l 1xf4
 218 426 l 1
 218 325 l 1
 395 325 l 1
 395 172 l 1
 218 172 l 1
 218 78 l 1xf2
 446 78 l 1
 446 -75 l 1
 65 -75 l 1
 65 579 l 1xf4
EndSplineSet
EndChar

StartChar: egrave
Encoding: 232 232 114
Width: 531
VWidth: 1074
Flags: W
HStem: -83 129<208.562 416.966> 119 88<232 374> 296 141<197.751 340.856>
VStem: 17 133<100.736 246.434>
LayerCount: 2
Fore
SplineSet
354 507 m 1
 207 507 l 1
 101 695 l 1
 250 695 l 1
 354 507 l 1
512 120 m 1
 445 120 232 119 232 119 c 1
 232 207 l 1
 374 207 l 1
 377 248 343 296 268 296 c 0
 221 296 150 268 150 170 c 0
 150 76 233 46 303 46 c 0
 376 46 417 53 417 53 c 1
 417 -75 l 1
 417 -75 366 -83 306 -83 c 0
 94 -83 17 48 17 171 c 0
 17 321 111 437 265 437 c 0
 402 437 532 367 512 120 c 1
EndSplineSet
EndChar

StartChar: eacute
Encoding: 233 233 115
Width: 531
VWidth: 1074
Flags: W
HStem: -83 129<208.562 416.966> 119 88<232 374> 296 141<197.751 340.856>
VStem: 17 133<100.736 246.434>
LayerCount: 2
Fore
SplineSet
200 507 m 1
 304 695 l 1
 453 695 l 1
 346 507 l 1
 200 507 l 1
512 120 m 1
 445 120 232 119 232 119 c 1
 232 207 l 1
 374 207 l 1
 377 248 343 296 268 296 c 0
 221 296 150 268 150 170 c 0
 150 76 233 46 303 46 c 0
 376 46 417 53 417 53 c 1
 417 -75 l 1
 417 -75 366 -83 306 -83 c 0
 94 -83 17 48 17 171 c 0
 17 321 111 437 265 437 c 0
 402 437 532 367 512 120 c 1
EndSplineSet
EndChar

StartChar: edieresis
Encoding: 235 235 116
Width: 531
VWidth: 1074
Flags: W
HStem: -83 129<208.562 416.966> 119 88<232 374> 296 141<197.751 340.856> 534 142<70.875 171.125 374.875 475.125>
VStem: 17 133<100.736 246.434> 50 142<554.875 655.125> 354 142<554.875 655.125>
LayerCount: 2
Fore
SplineSet
121 676 m 0xf6
 160 676 192 644 192 605 c 0
 192 566 160 534 121 534 c 0
 82 534 50 566 50 605 c 0
 50 644 82 676 121 676 c 0xf6
425 676 m 0
 464 676 496 644 496 605 c 0
 496 566 464 534 425 534 c 0
 386 534 354 566 354 605 c 0
 354 644 386 676 425 676 c 0
512 120 m 1
 445 120 232 119 232 119 c 1
 232 207 l 1
 374 207 l 1
 377 248 343 296 268 296 c 0
 221 296 150 268 150 170 c 0
 150 76 233 46 303 46 c 0
 376 46 417 53 417 53 c 1
 417 -75 l 1
 417 -75 366 -83 306 -83 c 0
 94 -83 17 48 17 171 c 0xfa
 17 321 111 437 265 437 c 0
 402 437 532 367 512 120 c 1
EndSplineSet
EndChar

StartChar: bracketleft
Encoding: 91 91 117
Width: 353
VWidth: 1074
Flags: W
HStem: -228 153<187 319> 426 153<187 319>
VStem: 34 285<-228 -75 426 579> 34 153<-75 426>
LayerCount: 2
Fore
SplineSet
34 579 m 1xe0
 319 579 l 1
 319 426 l 1xe0
 187 426 l 1
 187 -75 l 1xd0
 319 -75 l 1
 319 -228 l 1
 34 -228 l 1
 34 579 l 1xe0
EndSplineSet
EndChar

StartChar: bracketright
Encoding: 93 93 118
Width: 353
VWidth: 1074
Flags: W
HStem: -228 153<35 166> 426 153<35 166>
VStem: 34 285<-228 -75 426 579> 166 153<-75 426>
LayerCount: 2
Fore
SplineSet
319 579 m 1xe0
 319 -228 l 1
 34 -228 l 1xe0
 35 -75 l 1
 166 -75 l 1
 166 426 l 1xd0
 35 426 l 1
 34 579 l 1
 319 579 l 1xe0
EndSplineSet
EndChar

StartChar: parenleft
Encoding: 40 40 119
Width: 353
VWidth: 1074
Flags: W
HStem: -235 153<223.252 319> 433 153<223.252 319>
VStem: 34 153<-46 397.997>
LayerCount: 2
Fore
SplineSet
272 586 m 2
 319 586 l 1
 319 433 l 1
 286 433 l 2
 203 433 187 390 187 274 c 2
 187 77 l 2
 187 -39 211 -82 286 -82 c 2
 319 -82 l 1
 319 -235 l 1
 272 -235 l 2
 48 -235 34 -97 34 31 c 2
 34 320 l 2
 34 448 48 586 272 586 c 2
EndSplineSet
EndChar

StartChar: parenright
Encoding: 41 41 120
Width: 353
VWidth: 1074
Flags: W
HStem: -235 153<35 129.748> 433 153<35 129.748>
VStem: 166 153<-46 397.997>
LayerCount: 2
Fore
SplineSet
81 586 m 2
 305 586 319 448 319 320 c 2
 319 31 l 2
 319 -97 305 -235 81 -235 c 2
 34 -235 l 1
 35 -82 l 1
 67 -82 l 2
 142 -82 166 -39 166 77 c 2
 166 274 l 2
 166 390 150 433 67 433 c 2
 35 433 l 1
 34 586 l 1
 81 586 l 2
EndSplineSet
EndChar

StartChar: braceleft
Encoding: 123 123 121
Width: 466
VWidth: 1074
Flags: W
HStem: -235 153<337.252 433> 433 153<337.252 433>
VStem: 148 153<-46 100.689 253.491 397.997>
LayerCount: 2
Fore
SplineSet
386 586 m 2
 433 586 l 1
 433 433 l 1
 400 433 l 2
 317 433 301 390 301 274 c 0
 301 237 270 202 237 183 c 1
 271 163 301 114 301 77 c 0
 301 -39 325 -82 400 -82 c 2
 433 -82 l 1
 433 -235 l 1
 386 -235 l 2
 162 -235 148 -97 148 31 c 0
 148 103 76 169 34 180 c 1
 75 191 148 249 148 320 c 0
 148 448 162 586 386 586 c 2
EndSplineSet
EndChar

StartChar: braceright
Encoding: 125 125 122
Width: 466
VWidth: 1074
Flags: W
HStem: -235 153<35 129.748> 433 153<35 129.748>
VStem: 166 153<-46 100.689 253.491 397.997>
LayerCount: 2
Fore
SplineSet
81 586 m 2
 305 586 319 448 319 320 c 0
 319 249 392 191 433 180 c 1
 391 169 319 103 319 31 c 0
 319 -97 305 -235 81 -235 c 2
 34 -235 l 1
 35 -82 l 1
 67 -82 l 2
 142 -82 166 -39 166 77 c 0
 166 114 196 163 230 183 c 1
 197 202 166 237 166 274 c 0
 166 390 150 433 67 433 c 2
 35 433 l 1
 34 586 l 1
 81 586 l 2
EndSplineSet
EndChar

StartChar: bar
Encoding: 124 124 123
Width: 217
VWidth: 1074
Flags: W
HStem: 626 20G<34 181.043>
VStem: 34 149<-287 646>
LayerCount: 2
Fore
SplineSet
181 646 m 1
 183 -288 l 1
 34 -287 l 1
 34 646 l 1
 181 646 l 1
EndSplineSet
EndChar

StartChar: ocircumflex
Encoding: 244 244 124
Width: 547
VWidth: 1074
Flags: W
HStem: -83 142<208.371 344.485> 295 141<208.371 344.485>
VStem: 17 140<110.493 243.475> 394 136<110.493 243.475>
LayerCount: 2
Fore
SplineSet
276 295 m 0
 210 295 157 242 157 177 c 0
 157 112 210 59 276 59 c 0
 342 59 394 112 394 177 c 0
 394 242 342 295 276 295 c 0
274 436 m 0
 416 436 530 320 530 177 c 0
 530 34 416 -83 274 -83 c 0
 132 -83 17 34 17 177 c 0
 17 320 132 436 274 436 c 0
275 686 m 0
 333 686 364 653 379 618 c 2
 427 507 l 1
 317 507 l 1
 275 600 l 1
 234 507 l 1
 123 507 l 1
 124 509 132 525 172 618 c 0
 187 653 217 686 275 686 c 0
123 507 m 1
 123 507 123 506 123 507 c 1
EndSplineSet
EndChar

StartChar: otilde
Encoding: 245 245 125
Width: 547
VWidth: 1074
Flags: W
HStem: -83 142<208.371 344.485> 295 141<208.371 344.485> 535 110<275.264 422.388> 572 110<133.137 282.391>
VStem: 17 140<110.493 243.475> 394 136<110.493 243.475>
LayerCount: 2
Fore
SplineSet
276 295 m 0xcc
 210 295 157 242 157 177 c 0
 157 112 210 59 276 59 c 0
 342 59 394 112 394 177 c 0
 394 242 342 295 276 295 c 0xcc
274 436 m 0
 416 436 530 320 530 177 c 0
 530 34 416 -83 274 -83 c 0
 132 -83 17 34 17 177 c 0
 17 320 132 436 274 436 c 0
440 572 m 1xdc
 440 572 405 535 366 535 c 0xec
 272 535 276 572 192 572 c 0xdc
 152 572 113 535 113 535 c 1
 113 645 l 1xec
 113 645 153 682 195 682 c 0xdc
 284 682 284 645 369 645 c 0xec
 407 645 440 682 440 682 c 1
 440 572 l 1xdc
EndSplineSet
EndChar

StartChar: odieresis
Encoding: 246 246 126
Width: 547
VWidth: 1074
Flags: W
HStem: -83 143<208.371 344.485> 296 141<208.371 344.485> 534 142<71.875 172.125 375.875 476.125>
VStem: 17 140<110.993 244.007> 51 142<554.875 655.125> 355 142<554.875 655.125> 394 136<110.993 244.007>
LayerCount: 2
Fore
SplineSet
276 296 m 0xf2
 210 296 157 243 157 178 c 0
 157 113 210 60 276 60 c 0
 342 60 394 113 394 178 c 0
 394 243 342 296 276 296 c 0xf2
274 437 m 0
 416 437 530 320 530 177 c 0
 530 34 416 -83 274 -83 c 0
 132 -83 17 34 17 177 c 0
 17 320 132 437 274 437 c 0
426 676 m 0
 465 676 497 644 497 605 c 0
 497 566 465 534 426 534 c 0
 387 534 355 566 355 605 c 0xe4
 355 644 387 676 426 676 c 0
122 676 m 0
 161 676 193 644 193 605 c 0
 193 566 161 534 122 534 c 0
 83 534 51 566 51 605 c 0xe8
 51 644 83 676 122 676 c 0
EndSplineSet
EndChar

StartChar: ograve
Encoding: 242 242 127
Width: 547
VWidth: 1074
Flags: W
HStem: -83 142<208.371 344.485> 295 141<208.371 344.485>
VStem: 17 140<110.493 243.475> 394 136<110.493 243.475>
LayerCount: 2
Fore
SplineSet
276 295 m 0
 210 295 157 242 157 177 c 0
 157 112 210 59 276 59 c 0
 342 59 394 112 394 177 c 0
 394 242 342 295 276 295 c 0
274 436 m 0
 416 436 530 320 530 177 c 0
 530 34 416 -83 274 -83 c 0
 132 -83 17 34 17 177 c 0
 17 320 132 436 274 436 c 0
367 507 m 1
 220 507 l 1
 114 695 l 1
 263 695 l 1
 367 507 l 1
EndSplineSet
EndChar

StartChar: Ntilde
Encoding: 209 209 128
Width: 564
VWidth: 1074
Flags: W
HStem: -75 21G<33 186.12 378 531> 426 153<189 333.583> 637 110<256.764 404.173> 674 110<114.934 264.911>
VStem: 33 153<-75 426> 378 153<-75 386.693>
LayerCount: 2
Fore
SplineSet
285 579 m 0xcc
 469 579 531 462 531 336 c 2
 531 -75 l 1
 378 -75 l 1
 378 310 l 2
 378 401 326 426 252 426 c 2
 189 426 l 1
 186 -75 l 1
 33 -75 l 1
 33 579 l 1
 33 579 185 579 285 579 c 0xcc
422 674 m 1xdc
 422 674 387 637 348 637 c 0xec
 254 637 258 674 174 674 c 0xdc
 134 674 95 637 95 637 c 1
 95 747 l 1xec
 95 747 134 784 176 784 c 0xdc
 265 784 265 747 350 747 c 0xec
 388 747 422 784 422 784 c 1
 422 674 l 1xdc
EndSplineSet
EndChar

StartChar: ntilde
Encoding: 241 241 129
Width: 552
VWidth: 1074
Flags: W
HStem: -75 21G<33 182 369 517> 292 150<217.041 333.5> 536 110<277.264 424.388> 573 110<135.137 284.391>
VStem: 33 149<-75 249.349> 369 148<-75 250.156>
LayerCount: 2
Fore
SplineSet
517 -75 m 1xcc
 369 -75 l 1
 369 147 l 2
 369 251 338 292 275 292 c 0
 214 292 182 248 182 148 c 2
 182 -75 l 1
 33 -75 l 1
 33 190 l 2
 33 337 133 442 274 442 c 0
 415 442 517 362 517 179 c 2
 517 -75 l 1xcc
442 573 m 1xdc
 442 573 407 536 368 536 c 0xec
 274 536 278 573 194 573 c 0xdc
 154 573 115 536 115 536 c 1
 115 646 l 1xec
 115 646 155 683 197 683 c 0xdc
 286 683 286 646 371 646 c 0xec
 409 646 442 683 442 683 c 1
 442 573 l 1xdc
EndSplineSet
EndChar

StartChar: ampersand
Encoding: 38 38 130
Width: 692
VWidth: 1074
Flags: W
HStem: -90 745<152 322> -75 21G<460.288 664>
VStem: 88 335<466 577.992>
LayerCount: 2
Fore
SplineSet
249 655 m 0xa0
 369 655 423 569 423 507 c 0
 423 446 405 416 371 376 c 2
 239 220 l 2
 195 168 145 110 197 65 c 0
 220 45 275 45 309 85 c 2
 490 298 l 1
 664 298 l 1
 507 107 l 1
 664 -75 l 1
 477 -75 l 1x60
 416 -2 l 1
 361 -58 322 -90 237 -90 c 0
 139 -90 30 -29 30 97 c 0
 30 165 68 208 137 296 c 2
 272 459 l 2
 286 475 307 505 281 527 c 0
 260 544 236 538 216 514 c 2
 137 420 l 1
 124 426 88 466 88 512 c 0
 88 593 152 655 249 655 c 0xa0
EndSplineSet
EndChar

StartChar: Igrave
Encoding: 204 204 131
Width: 262
VWidth: 1074
Flags: W
HStem: -75 21G<75 228> 559 20G<75 228> 646 21G<65.7234 224>
VStem: 75 153<-75 579>
LayerCount: 2
Fore
SplineSet
75 -75 m 1
 75 579 l 1
 228 579 l 1
 228 -75 l 1
 75 -75 l 1
224 646 m 1
 77 646 l 1
 -29 834 l 1
 120 835 l 1
 224 646 l 1
EndSplineSet
EndChar

StartChar: Iacute
Encoding: 205 205 132
Width: 262
VWidth: 1074
Flags: W
HStem: -75 21G<34 187> 559 20G<34 187> 646 21G<38 196.277>
VStem: 34 153<-75 579>
LayerCount: 2
Fore
SplineSet
34 -75 m 1
 34 579 l 1
 187 579 l 1
 187 -75 l 1
 34 -75 l 1
38 646 m 1
 143 835 l 1
 291 834 l 1
 185 646 l 1
 38 646 l 1
EndSplineSet
EndChar

StartChar: Idieresis
Encoding: 207 207 133
Width: 430
VWidth: 1074
Flags: W
HStem: -75 21G<138 291> 559 20G<138 291> 636 142<12.875 113.125 316.875 417.125>
VStem: -8 142<656.875 757.125> 138 153<-75 579> 296 142<656.375 757.125>
LayerCount: 2
Fore
SplineSet
63 778 m 0
 102 778 134 746 134 707 c 0
 134 668 102 636 63 636 c 0
 24 636 -8 668 -8 707 c 0
 -8 746 24 778 63 778 c 0
367 778 m 0
 406 778 438 746 438 707 c 0
 438 668 406 635 367 635 c 0
 328 635 296 668 296 707 c 0
 296 746 328 778 367 778 c 0
138 -75 m 1
 138 579 l 1
 291 579 l 1
 291 -75 l 1
 138 -75 l 1
EndSplineSet
EndChar

StartChar: Ograve
Encoding: 210 210 134
Width: 703
VWidth: 1074
Flags: W
HStem: -89 160<266.496 436.504> 431 162<266.496 436.504> 646 21G<282.723 441>
VStem: 17 153<165.969 332.918> 532 155<165.969 332.918>
LayerCount: 2
Fore
SplineSet
441 646 m 1
 294 646 l 1
 188 834 l 1
 336 835 l 1
 441 646 l 1
351 431 m 0
 251 431 170 350 170 251 c 0
 170 152 251 71 351 71 c 0
 451 71 532 152 532 251 c 0
 532 350 451 431 351 431 c 0
352 593 m 0
 537 593 687 441 687 252 c 0
 687 63 537 -89 352 -89 c 0
 167 -89 17 63 17 252 c 0
 17 441 167 593 352 593 c 0
EndSplineSet
EndChar

StartChar: Oacute
Encoding: 211 211 135
Width: 703
VWidth: 1074
Flags: W
HStem: -89 160<266.496 436.504> 431 162<266.496 436.504> 646 21G<287 444.277>
VStem: 17 153<165.969 332.918> 532 155<165.969 332.918>
LayerCount: 2
Fore
SplineSet
287 646 m 1
 391 835 l 1
 539 834 l 1
 433 646 l 1
 287 646 l 1
351 431 m 0
 251 431 170 350 170 251 c 0
 170 152 251 71 351 71 c 0
 451 71 532 152 532 251 c 0
 532 350 451 431 351 431 c 0
352 593 m 0
 537 593 687 441 687 252 c 0
 687 63 537 -89 352 -89 c 0
 167 -89 17 63 17 252 c 0
 17 441 167 593 352 593 c 0
EndSplineSet
EndChar

StartChar: Otilde
Encoding: 213 213 136
Width: 703
VWidth: 1074
Flags: W
HStem: -89 160<266.496 436.504> 431 162<266.496 436.504> 636 110<358.264 505.388> 673 110<216.137 365.391>
VStem: 17 153<165.969 332.918> 532 155<165.969 332.918>
LayerCount: 2
Fore
SplineSet
523 673 m 1xdc
 523 673 488 636 449 636 c 0xec
 355 636 359 673 275 673 c 0xdc
 235 673 196 636 196 636 c 1
 196 746 l 1xec
 196 746 236 783 278 783 c 0xdc
 367 783 367 746 452 746 c 0xec
 490 746 523 783 523 783 c 1
 523 673 l 1xdc
351 431 m 0
 251 431 170 350 170 251 c 0
 170 152 251 71 351 71 c 0
 451 71 532 152 532 251 c 0
 532 350 451 431 351 431 c 0
352 593 m 0
 537 593 687 441 687 252 c 0
 687 63 537 -89 352 -89 c 0
 167 -89 17 63 17 252 c 0
 17 441 167 593 352 593 c 0
EndSplineSet
EndChar

StartChar: Odieresis
Encoding: 214 214 137
Width: 703
VWidth: 1074
Flags: W
HStem: -89 160<266.496 436.504> 431 162<266.496 436.504> 636 142<148.875 249.125 452.875 553.125>
VStem: 17 153<165.969 332.918> 128 142<656.875 757.125> 432 142<656.875 757.125> 532 155<165.969 332.918>
LayerCount: 2
Fore
SplineSet
503 778 m 0xe4
 542 778 574 746 574 707 c 0
 574 668 542 636 503 636 c 0
 464 636 432 668 432 707 c 0
 432 746 464 778 503 778 c 0xe4
199 778 m 0
 238 778 270 746 270 707 c 0
 270 668 238 636 199 636 c 0
 160 636 128 668 128 707 c 0xe8
 128 746 160 778 199 778 c 0
351 431 m 0
 251 431 170 350 170 251 c 0
 170 152 251 71 351 71 c 0
 451 71 532 152 532 251 c 0xf2
 532 350 451 431 351 431 c 0
352 593 m 0
 537 593 687 441 687 252 c 0
 687 63 537 -89 352 -89 c 0
 167 -89 17 63 17 252 c 0
 17 441 167 593 352 593 c 0
EndSplineSet
EndChar

StartChar: Ugrave
Encoding: 217 217 138
Width: 583
VWidth: 1074
Flags: W
HStem: -91 159<230.306 352.309> 559 20G<34 192 391 548> 646 21G<229.617 387>
VStem: 34 158<113.041 579> 391 157<112.244 579>
LayerCount: 2
Fore
SplineSet
548 579 m 1
 548 188 l 2
 548 -7 440 -91 290 -91 c 0
 140 -91 34 20 34 176 c 2
 34 579 l 1
 192 579 l 1
 192 221 l 2
 192 115 226 68 291 68 c 0
 358 68 391 111 391 222 c 2
 391 579 l 1
 548 579 l 1
387 646 m 1
 241 646 l 1
 134 834 l 1
 283 835 l 1
 387 646 l 1
EndSplineSet
EndChar

StartChar: Uacute
Encoding: 218 218 139
Width: 583
VWidth: 1074
Flags: W
HStem: -91 159<230.306 352.309> 559 20G<34 192 391 548> 646 21G<193 350.277>
VStem: 34 158<113.041 579> 391 157<112.244 579>
LayerCount: 2
Fore
SplineSet
548 579 m 1
 548 188 l 2
 548 -7 440 -91 290 -91 c 0
 140 -91 34 20 34 176 c 2
 34 579 l 1
 192 579 l 1
 192 221 l 2
 192 115 226 68 291 68 c 0
 358 68 391 111 391 222 c 2
 391 579 l 1
 548 579 l 1
193 646 m 1
 297 835 l 1
 445 834 l 1
 339 646 l 1
 193 646 l 1
EndSplineSet
EndChar

StartChar: Udieresis
Encoding: 220 220 140
Width: 583
VWidth: 1074
Flags: W
HStem: -91 159<230.306 352.309> 559 20G<34 192 391 548> 636 142<88.875 189.125 393.875 494.125>
VStem: 34 158<113.041 579> 68 142<656.875 757.125> 373 142<656.375 757.125> 391 157<112.244 579>
LayerCount: 2
Fore
SplineSet
548 579 m 1xf2
 548 188 l 2
 548 -7 440 -91 290 -91 c 0
 140 -91 34 20 34 176 c 2
 34 579 l 1
 192 579 l 1
 192 221 l 2
 192 115 226 68 291 68 c 0
 358 68 391 111 391 222 c 2
 391 579 l 1
 548 579 l 1xf2
444 778 m 0
 483 778 515 746 515 707 c 0
 515 668 483 635 444 635 c 0
 405 635 373 668 373 707 c 0xe4
 373 746 405 778 444 778 c 0
139 778 m 0
 178 778 210 746 210 707 c 0
 210 668 178 636 139 636 c 0
 100 636 68 668 68 707 c 0xe8
 68 746 100 778 139 778 c 0
EndSplineSet
EndChar

StartChar: igrave
Encoding: 236 236 141
Width: 264
VWidth: 1074
Flags: W
HStem: -75 21G<64 213> 406 20G<64 211.08>
VStem: 64 149<-75 426>
LayerCount: 2
Fore
SplineSet
211 426 m 1
 213 -75 l 1
 64 -75 l 1
 64 426 l 1
 211 426 l 1
230 507 m 1
 83 507 l 1
 -23 695 l 1
 125 695 l 1
 230 507 l 1
EndSplineSet
EndChar

StartChar: iacute
Encoding: 237 237 142
Width: 262
VWidth: 1074
Flags: W
HStem: -75 21G<46 195> 406 20G<46 193.08>
VStem: 46 149<-75 426>
LayerCount: 2
Fore
SplineSet
193 426 m 1
 195 -75 l 1
 46 -75 l 1
 46 426 l 1
 193 426 l 1
35 507 m 1
 139 695 l 1
 288 695 l 1
 181 507 l 1
 35 507 l 1
EndSplineSet
EndChar

StartChar: idieresis
Encoding: 239 239 143
Width: 415
VWidth: 1074
Flags: W
HStem: -75 21G<135 283> 406 20G<135 283> 534 142<6.875 107.125 310.875 411.125>
VStem: -14 142<554.875 655.125> 135 148<-75 426> 290 142<554.875 655.125>
CounterMasks: 1 1c
LayerCount: 2
Fore
SplineSet
57 676 m 0
 96 676 128 644 128 605 c 0
 128 566 96 534 57 534 c 0
 18 534 -14 566 -14 605 c 0
 -14 644 18 676 57 676 c 0
361 676 m 0
 400 676 432 644 432 605 c 0
 432 566 400 534 361 534 c 0
 322 534 290 566 290 605 c 0
 290 644 322 676 361 676 c 0
283 426 m 1
 283 -75 l 1
 135 -75 l 1
 135 426 l 1
 283 426 l 1
EndSplineSet
EndChar

StartChar: ugrave
Encoding: 249 249 144
Width: 553
VWidth: 1074
Flags: W
HStem: -91 150<218.041 334.5> 406 20G<34 183 370 518>
VStem: 34 149<101.651 426> 370 148<100.844 426>
LayerCount: 2
Fore
SplineSet
518 426 m 1
 518 172 l 2
 518 -11 416 -91 275 -91 c 0
 134 -91 34 14 34 161 c 2
 34 426 l 1
 183 426 l 1
 183 203 l 2
 183 103 215 59 276 59 c 0
 339 59 370 100 370 204 c 2
 370 426 l 1
 518 426 l 1
386 507 m 1
 240 507 l 1
 133 695 l 1
 282 695 l 1
 386 507 l 1
EndSplineSet
EndChar

StartChar: uacute
Encoding: 250 250 145
Width: 553
VWidth: 1074
Flags: W
HStem: -91 150<218.041 334.5> 406 20G<34 183 370 518>
VStem: 34 149<101.651 426> 370 148<100.844 426>
LayerCount: 2
Fore
SplineSet
518 426 m 1
 518 172 l 2
 518 -11 416 -91 275 -91 c 0
 134 -91 34 14 34 161 c 2
 34 426 l 1
 183 426 l 1
 183 203 l 2
 183 103 215 59 276 59 c 0
 339 59 370 100 370 204 c 2
 370 426 l 1
 518 426 l 1
177 507 m 1
 281 695 l 1
 430 695 l 1
 324 507 l 1
 177 507 l 1
EndSplineSet
EndChar

StartChar: udieresis
Encoding: 252 252 146
Width: 553
VWidth: 1074
Flags: W
HStem: -91 150<218.041 334.5> 406 20G<34 183 370 518> 534 142<73.875 174.125 378.875 479.125>
VStem: 34 149<101.651 426> 53 142<554.875 655.125> 358 142<554.875 655.125> 370 148<100.844 426>
LayerCount: 2
Fore
SplineSet
518 426 m 1xf2
 518 172 l 2
 518 -11 416 -91 275 -91 c 0
 134 -91 34 14 34 161 c 2
 34 426 l 1
 183 426 l 1
 183 203 l 2
 183 103 215 59 276 59 c 0
 339 59 370 100 370 204 c 2
 370 426 l 1
 518 426 l 1xf2
429 676 m 0
 468 676 500 644 500 605 c 0
 500 566 468 534 429 534 c 0
 390 534 358 566 358 605 c 0xe4
 358 644 390 676 429 676 c 0
124 676 m 0
 163 676 195 644 195 605 c 0
 195 566 163 534 124 534 c 0
 85 534 53 566 53 605 c 0xe8
 53 644 85 676 124 676 c 0
EndSplineSet
EndChar

StartChar: yacute
Encoding: 253 253 147
Width: 562
VWidth: 1074
Flags: W
HStem: -300 125<113.039 332.761> -75 139<240.423 378> 406 20G<34 183 379 528>
VStem: 35 148<121.574 426> 378 150<-133.666 -75 64 426>
LayerCount: 2
Fore
SplineSet
208 507 m 1
 312 695 l 1
 460 695 l 1
 354 507 l 1
 208 507 l 1
183 426 m 1
 183 210 l 2
 183 116 230 64 318 64 c 2
 381 64 l 1
 379 426 l 1
 528 426 l 1
 528 -75 l 2
 528 -147 492 -212 440 -251 c 0
 367 -306 270 -300 226 -300 c 0
 174 -300 113 -288 113 -288 c 1
 113 -163 l 1
 113 -163 158 -175 222 -175 c 0
 286 -175 313 -166 340 -149 c 0
 358 -137 378 -114 378 -75 c 1
 260 -75 l 2
 118 -75 35 52 35 164 c 0
 35 239 34 426 34 426 c 1
 183 426 l 1
EndSplineSet
EndChar

StartChar: Yacute
Encoding: 221 221 148
Width: 650
VWidth: 1074
Flags: W
HStem: -75 21G<248 402> 559 20G<34 213.942 436.058 616> 646 21G<247 404.277>
VStem: 248 154<-75 243>
LayerCount: 2
Fore
SplineSet
202 579 m 1
 325 373 l 1
 448 579 l 1
 616 579 l 1
 402 243 l 1
 402 -75 l 1
 248 -75 l 1
 248 243 l 1
 34 579 l 1
 202 579 l 1
247 646 m 1
 351 835 l 1
 499 834 l 1
 393 646 l 1
 247 646 l 1
EndSplineSet
EndChar

StartChar: ccedilla
Encoding: 231 231 149
Width: 422
VWidth: 1074
Flags: W
HStem: -288 63<199 292.442> -163 63<265 293.082> -75 135<275 371> 295 131<210.012 371>
VStem: 17 139<112.32 247.18> 295 74<-219.828 -167.55>
LayerCount: 2
Fore
SplineSet
371 426 m 1
 371 295 l 1
 312 295 l 2
 199 295 156 246 156 179 c 0
 156 91 233 60 311 60 c 2
 371 60 l 1
 371 -75 l 1
 275 -75 l 1
 265 -100 l 1
 286 -100 307 -104 323 -112 c 0
 348 -125 368 -153 369 -191 c 0
 370 -251 323 -288 267 -288 c 2
 199 -288 l 1
 199 -225 l 1
 245 -225 l 2
 263 -225 295 -220 295 -196 c 0
 295 -176 282 -163 239 -163 c 0
 229 -163 187 -163 187 -163 c 1
 217 -70 l 1
 104 -49 17 42 17 169 c 0
 17 315 97 426 280 426 c 2
 371 426 l 1
EndSplineSet
EndChar

StartChar: Ccedilla
Encoding: 199 199 150
Width: 499
VWidth: 1074
Flags: W
HStem: -288 63<224 317.442> -163 63<290 318.082> -75 149<300 442> 426 153<271.758 442>
VStem: 12 168<145.202 338.212> 320 74<-219.828 -167.55>
LayerCount: 2
Fore
SplineSet
442 579 m 1
 442 426 l 1
 358 426 l 2
 220 426 180 323 180 242 c 0
 180 167 201 74 369 74 c 0
 371 74 442 74 442 74 c 1
 442 -75 l 1
 300 -75 l 1
 290 -100 l 1
 311 -100 332 -104 348 -112 c 0
 373 -125 393 -153 394 -191 c 0
 395 -251 348 -288 292 -288 c 2
 224 -288 l 1
 224 -225 l 1
 270 -225 l 2
 288 -225 320 -220 320 -196 c 0
 320 -176 307 -163 264 -163 c 0
 254 -163 212 -163 212 -163 c 1
 242 -71 l 1
 92 -48 12 71 12 242 c 0
 12 394 70 579 343 579 c 2
 442 579 l 1
EndSplineSet
EndChar

StartChar: guillemotleft
Encoding: 171 171 151
Width: 539
VWidth: 1074
Flags: W
LayerCount: 2
Fore
SplineSet
395 357 m 1
 511 357 l 1
 435 266 l 1
 360 176 l 1
 435 85 l 1
 511 -6 l 1
 395 -6 l 1
 243 176 l 1
 395 357 l 1
181 357 m 1
 296 357 l 1
 221 266 l 1
 146 176 l 1
 221 85 l 1
 296 -6 l 1
 181 -6 l 1
 29 176 l 1
 181 357 l 1
EndSplineSet
EndChar

StartChar: guillemotright
Encoding: 187 187 152
Width: 539
VWidth: 1074
Flags: W
LayerCount: 2
Fore
SplineSet
144 357 m 1
 296 176 l 1
 144 -6 l 1
 29 -6 l 1
 104 85 l 1
 179 176 l 1
 104 266 l 1
 29 357 l 1
 144 357 l 1
359 357 m 1
 511 176 l 1
 359 -6 l 1
 243 -6 l 1
 318 85 l 1
 393 176 l 1
 318 266 l 1
 243 357 l 1
 359 357 l 1
EndSplineSet
EndChar

StartChar: Eth
Encoding: 208 208 153
Width: 667
VWidth: 1074
Flags: W
HStem: -75 149<297 413.448> 171 128<9 80 232 375> 426 153<232 383.492>
VStem: 80 152<-75 171 299 426> 482 168<140.847 324.816>
LayerCount: 2
Fore
SplineSet
375 299 m 1
 375 171 l 1
 232 171 l 1
 232 -75 l 1
 80 -75 l 1
 80 7 80 89 80 171 c 1
 9 171 l 1
 9 299 l 1
 80 299 l 1
 80 392 80 486 80 579 c 1
 80 579 70 580 318 579 c 0
 566 578 650 394 650 242 c 0
 650 52 550 -75 366 -75 c 2
 297 -75 l 1
 297 74 l 1
 454 72 482 145 482 244 c 0
 482 303 435 426 304 426 c 2
 232 426 l 1
 232 299 l 1
 375 299 l 1
EndSplineSet
EndChar

StartChar: Dcroat
Encoding: 272 272 154
Width: 667
VWidth: 1074
Flags: W
HStem: -75 149<303 419.196> 171 128<15 85 238 381> 426 153<238 389.492>
VStem: 85 153<-75 171 299 426> 487 169<140.847 324.816>
LayerCount: 2
Fore
SplineSet
381 299 m 1
 381 171 l 1
 238 171 l 1
 238 -75 l 1
 85 -75 l 1
 85 7 85 89 85 171 c 1
 15 171 l 1
 15 299 l 1
 85 299 l 1
 85 392 85 486 85 579 c 1
 85 579 76 580 324 579 c 0
 572 578 656 394 656 242 c 0
 656 52 556 -75 372 -75 c 2
 303 -75 l 1
 303 74 l 1
 460 72 487 145 487 244 c 0
 487 303 441 426 310 426 c 2
 238 426 l 1
 238 299 l 1
 381 299 l 1
EndSplineSet
EndChar

StartChar: Abreve
Encoding: 258 258 155
Width: 670
VWidth: 1074
Flags: W
HStem: -75 21G<34 196.849 473.074 636> 60 111<323 406> 571 20G<288.5 379.5> 636 92<285.632 384.56>
VStem: 169 102<744.72 808> 397 101<741.561 808>
LayerCount: 2
Fore
SplineSet
498 808 m 1
 498 776 l 2
 498 677 429 636 333 636 c 0
 237 636 169 690 169 770 c 2
 169 808 l 1
 271 808 l 1
 271 795 l 2
 271 751 298 728 335 728 c 0
 374 728 397 750 397 793 c 2
 397 808 l 1
 498 808 l 1
334 591 m 0
 425 591 453 498 453 498 c 1
 636 -75 l 1
 479 -75 l 1
 439 60 l 1
 292 60 l 1
 323 171 l 1
 406 171 l 1
 334 414 l 1
 191 -75 l 1
 34 -75 l 1
 215 498 l 1
 215 498 243 591 334 591 c 0
EndSplineSet
EndChar

StartChar: abreve
Encoding: 259 259 156
Width: 571
VWidth: 1074
Flags: W
HStem: -75 135<229.455 323> 295 131<225.844 388> 504 92<289.632 388.56>
VStem: 34 139<110.13 248.299> 173 102<612.72 676> 388 149<-75 295> 401 101<609.561 676>
LayerCount: 2
Fore
SplineSet
502 676 m 1xea
 502 644 l 2
 502 545 433 504 337 504 c 0
 241 504 173 558 173 638 c 2
 173 676 l 1
 275 676 l 1
 275 663 l 2
 275 619 302 596 339 596 c 0
 378 596 401 618 401 661 c 2
 401 676 l 1
 502 676 l 1xea
537 426 m 1xf4
 537 -75 l 1
 388 -75 l 1
 388 295 l 1
 324 295 l 2
 211 295 173 246 173 179 c 0
 173 91 245 60 323 60 c 1
 323 -75 l 1
 286 -75 l 2
 148 -75 34 23 34 169 c 0
 34 315 114 426 297 426 c 2
 537 426 l 1xf4
EndSplineSet
EndChar

StartChar: uni1EA0
Encoding: 7840 7840 157
Width: 670
VWidth: 1074
Flags: W
HStem: -246 122<291.77 384.23> -75 21G<34 196.849 473.074 636> 60 111<323 406> 571 20G<288.5 379.5>
VStem: 277 122<-231.23 -138.77>
LayerCount: 2
Fore
SplineSet
277 -185 m 0
 277 -151 304 -124 338 -124 c 0
 372 -124 399 -151 399 -185 c 0
 399 -219 372 -246 338 -246 c 0
 304 -246 277 -219 277 -185 c 0
334 591 m 0
 425 591 453 498 453 498 c 1
 636 -75 l 1
 479 -75 l 1
 439 60 l 1
 292 60 l 1
 323 171 l 1
 406 171 l 1
 334 414 l 1
 191 -75 l 1
 34 -75 l 1
 215 498 l 1
 215 498 243 591 334 591 c 0
EndSplineSet
EndChar

StartChar: uni1EA1
Encoding: 7841 7841 158
Width: 571
VWidth: 1074
Flags: W
HStem: -246 122<247.77 340.23> -75 135<212.455 306> 295 131<208.844 371>
VStem: 17 139<110.13 248.299> 233 122<-231.23 -138.77> 371 149<-75 295>
LayerCount: 2
Fore
SplineSet
520 426 m 1
 520 -75 l 1
 371 -75 l 1
 371 295 l 1
 307 295 l 2
 194 295 156 246 156 179 c 0
 156 91 228 60 306 60 c 1
 306 -75 l 1
 269 -75 l 2
 131 -75 17 23 17 169 c 0
 17 315 97 426 280 426 c 2
 520 426 l 1
233 -185 m 0
 233 -151 260 -124 294 -124 c 0
 328 -124 355 -151 355 -185 c 0
 355 -219 328 -246 294 -246 c 0
 260 -246 233 -219 233 -185 c 0
EndSplineSet
EndChar

StartChar: uni1EA2
Encoding: 7842 7842 159
Width: 670
VWidth: 1074
Flags: W
HStem: -75 21G<34 196.849 473.074 636> 60 111<323 406> 571 20G<288.5 379.5> 646 21G<291 394.53> 829 71<298.081 371.162>
VStem: 225 68<752.805 823.617> 375 75<743.583 824.378>
LayerCount: 2
Fore
SplineSet
336 900 m 0
 410 900 450 849 450 788 c 0
 450 757 436 732 434 729 c 2
 382 646 l 1
 291 646 l 1
 349 737 l 2
 357 750 375 774 375 789 c 0
 375 814 358 829 335 829 c 0
 311 829 293 813 293 789 c 0
 293 759 319 750 319 750 c 1
 285 697 l 1
 285 697 225 722 225 790 c 0
 225 858 278 900 336 900 c 0
334 591 m 0
 425 591 453 498 453 498 c 1
 636 -75 l 1
 479 -75 l 1
 439 60 l 1
 292 60 l 1
 323 171 l 1
 406 171 l 1
 334 414 l 1
 191 -75 l 1
 34 -75 l 1
 215 498 l 1
 215 498 243 591 334 591 c 0
EndSplineSet
EndChar

StartChar: uni1EA3
Encoding: 7843 7843 160
Width: 571
VWidth: 1074
Flags: W
HStem: -75 135<212.455 306> 295 131<208.844 371> 690 71<277.485 350.162>
VStem: 17 139<110.13 248.299> 204 69<613.327 685.289> 354 75<603.414 685.378> 371 149<-75 295>
LayerCount: 2
Fore
SplineSet
315 761 m 0xfc
 389 761 429 710 429 649 c 0
 429 618 415 593 413 590 c 2
 361 507 l 1
 270 507 l 1
 329 598 l 2
 337 611 354 635 354 650 c 0
 354 675 337 690 314 690 c 0
 290 690 273 674 273 650 c 0
 273 620 298 612 298 612 c 1
 264 559 l 1
 264 559 204 584 204 652 c 0
 204 720 257 761 315 761 c 0xfc
520 426 m 1xfa
 520 -75 l 1
 371 -75 l 1
 371 295 l 1
 307 295 l 2
 194 295 156 246 156 179 c 0
 156 91 228 60 306 60 c 1
 306 -75 l 1
 269 -75 l 2
 131 -75 17 23 17 169 c 0
 17 315 97 426 280 426 c 2
 520 426 l 1xfa
EndSplineSet
EndChar

StartChar: uni1EA4
Encoding: 7844 7844 161
Width: 777
VWidth: 1074
Flags: W
HStem: -75 21G<34 196.849 473.074 636> 60 111<323 406> 571 20G<288.5 379.5> 646 21G<181 299.817 364.968 485>
LayerCount: 2
Fore
SplineSet
332 825 m 0
 390 825 421 792 436 757 c 0
 484 646 485 646 485 646 c 1
 374 646 l 1
 332 739 l 1
 291 646 l 1
 181 646 l 1
 229 757 l 2
 244 792 274 825 332 825 c 0
334 591 m 0
 425 591 453 498 453 498 c 1
 636 -75 l 1
 479 -75 l 1
 439 60 l 1
 292 60 l 1
 323 171 l 1
 406 171 l 1
 334 414 l 1
 191 -75 l 1
 34 -75 l 1
 215 498 l 1
 215 498 243 591 334 591 c 0
490 755 m 1
 594 944 l 1
 742 944 l 1
 636 755 l 1
 490 755 l 1
EndSplineSet
EndChar

StartChar: uni1EA5
Encoding: 7845 7845 162
Width: 629
VWidth: 1074
Flags: W
HStem: -75 135<212.455 306> 295 131<208.844 371>
VStem: 17 139<110.13 248.299> 371 149<-75 295>
LayerCount: 2
Fore
SplineSet
462 613 m 1
 566 802 l 1
 715 802 l 1
 609 613 l 1
 462 613 l 1
311 686 m 0
 369 686 400 653 415 618 c 0
 463 507 464 507 464 507 c 1
 353 507 l 1
 311 600 l 1
 270 507 l 1
 160 507 l 1
 208 618 l 2
 223 653 253 686 311 686 c 0
520 426 m 1
 520 -75 l 1
 371 -75 l 1
 371 295 l 1
 307 295 l 2
 194 295 156 246 156 179 c 0
 156 91 228 60 306 60 c 1
 306 -75 l 1
 269 -75 l 2
 131 -75 17 23 17 169 c 0
 17 315 97 426 280 426 c 2
 520 426 l 1
EndSplineSet
EndChar

StartChar: uni1EA6
Encoding: 7846 7846 163
Width: 670
VWidth: 1074
Flags: W
HStem: -75 21G<34 196.849 473.074 636> 60 111<323 406> 571 20G<288.5 379.5> 646 21G<181 299.817 364.968 485>
LayerCount: 2
Fore
SplineSet
636 755 m 1
 490 755 l 1
 384 944 l 1
 532 944 l 1
 636 755 l 1
332 825 m 0
 390 825 421 792 436 757 c 2
 485 646 l 1
 374 646 l 1
 332 739 l 1
 291 646 l 1
 181 646 l 1
 181 646 181 646 229 757 c 0
 244 792 274 825 332 825 c 0
334 591 m 0
 425 591 453 498 453 498 c 1
 636 -75 l 1
 479 -75 l 1
 439 60 l 1
 292 60 l 1
 323 171 l 1
 406 171 l 1
 334 414 l 1
 191 -75 l 1
 34 -75 l 1
 215 498 l 1
 215 498 243 591 334 591 c 0
EndSplineSet
EndChar

StartChar: uni1EA8
Encoding: 7848 7848 164
Width: 683
VWidth: 1074
Flags: W
HStem: -75 21G<34 196.849 473.074 636> 60 111<323 406> 571 20G<288.5 379.5> 646 21G<181 299.817 364.968 485> 938 71<497.02 570.162>
VStem: 423 69<862.726 933.078> 574 75<852.583 933.378>
LayerCount: 2
Fore
SplineSet
535 1009 m 0
 609 1009 649 958 649 897 c 0
 649 866 635 841 633 838 c 2
 581 755 l 1
 490 755 l 1
 548 846 l 2
 556 859 574 883 574 898 c 0
 574 923 557 938 534 938 c 0
 510 938 492 922 492 898 c 0
 492 868 518 860 518 860 c 1
 484 807 l 1
 484 807 423 832 423 900 c 0
 423 968 477 1009 535 1009 c 0
332 825 m 0
 390 825 421 792 436 757 c 0
 484 646 485 646 485 646 c 1
 374 646 l 1
 332 739 l 1
 291 646 l 1
 181 646 l 1
 181 646 181 646 229 757 c 0
 244 792 274 825 332 825 c 0
334 591 m 0
 425 591 453 498 453 498 c 1
 636 -75 l 1
 479 -75 l 1
 439 60 l 1
 292 60 l 1
 323 171 l 1
 406 171 l 1
 334 414 l 1
 191 -75 l 1
 34 -75 l 1
 215 498 l 1
 215 498 243 591 334 591 c 0
EndSplineSet
EndChar

StartChar: uni1EA7
Encoding: 7847 7847 165
Width: 618
VWidth: 1074
Flags: W
HStem: -75 135<212.455 306> 295 131<208.844 371>
VStem: 17 139<110.13 248.299> 371 149<-75 295>
LayerCount: 2
Fore
SplineSet
650 613 m 1
 504 613 l 1
 397 802 l 1
 546 802 l 1
 650 613 l 1
311 686 m 0
 369 686 400 653 415 618 c 2
 464 507 l 1
 353 507 l 1
 311 600 l 1
 270 507 l 1
 160 507 l 1
 208 618 l 2
 223 653 253 686 311 686 c 0
520 426 m 1
 520 -75 l 1
 371 -75 l 1
 371 295 l 1
 307 295 l 2
 194 295 156 246 156 179 c 0
 156 91 228 60 306 60 c 1
 306 -75 l 1
 269 -75 l 2
 131 -75 17 23 17 169 c 0
 17 315 97 426 280 426 c 2
 520 426 l 1
EndSplineSet
EndChar

StartChar: uni1EA9
Encoding: 7849 7849 166
Width: 596
VWidth: 1074
Flags: W
HStem: -75 135<212.455 306> 295 131<208.844 371> 796 72<483.485 556.162>
VStem: 17 139<110.13 248.299> 371 149<-75 295> 410 69<719.327 791.328> 560 75<709.414 791.431>
LayerCount: 2
Fore
SplineSet
521 868 m 0xf6
 595 868 635 816 635 755 c 0
 635 724 621 699 619 696 c 2
 567 613 l 1
 476 613 l 1
 535 704 l 2
 543 717 560 741 560 756 c 0
 560 781 543 796 520 796 c 0xfa
 496 796 479 780 479 756 c 0
 479 726 504 718 504 718 c 1
 470 665 l 1
 470 665 410 690 410 758 c 0
 410 826 463 868 521 868 c 0xf6
311 686 m 0
 369 686 400 653 415 618 c 2
 464 507 l 1
 353 507 l 1
 311 600 l 1
 270 507 l 1
 160 507 l 1
 208 618 l 2
 223 653 253 686 311 686 c 0
520 426 m 1
 520 -75 l 1
 371 -75 l 1
 371 295 l 1
 307 295 l 2
 194 295 156 246 156 179 c 0
 156 91 228 60 306 60 c 1
 306 -75 l 1
 269 -75 l 2
 131 -75 17 23 17 169 c 0
 17 315 97 426 280 426 c 2
 520 426 l 1
EndSplineSet
EndChar

StartChar: uni1EAA
Encoding: 7850 7850 167
Width: 670
VWidth: 1074
Flags: W
HStem: -75 21G<34 196.849 473.074 636> 60 111<323 406> 571 20G<288.5 379.5> 646 21G<181 299.817 364.968 485> 827 110<406.514 553.388> 864 110<264.649 414.615>
LayerCount: 2
Fore
SplineSet
571 864 m 1xf4
 571 864 536 827 497 827 c 0xf8
 403 827 408 864 324 864 c 0xf4
 284 864 244 827 244 827 c 1
 245 937 l 1xf8
 245 937 284 974 326 974 c 0xf4
 415 974 415 937 500 937 c 0xf8
 538 937 571 974 571 974 c 1
 571 864 l 1xf4
332 825 m 0
 390 825 421 792 436 757 c 0
 484 646 485 646 485 646 c 1
 374 646 l 1
 332 739 l 1
 291 646 l 1
 181 646 l 1
 181 646 181 646 229 757 c 0
 244 792 274 825 332 825 c 0
334 591 m 0
 425 591 453 498 453 498 c 1
 636 -75 l 1
 479 -75 l 1
 439 60 l 1
 292 60 l 1
 323 171 l 1
 406 171 l 1
 334 414 l 1
 191 -75 l 1
 34 -75 l 1
 215 498 l 1
 215 498 243 591 334 591 c 0
EndSplineSet
EndChar

StartChar: uni1EAB
Encoding: 7851 7851 168
Width: 603
VWidth: 1074
Flags: W
HStem: -75 135<212.455 306> 295 131<208.844 371> 692 110<386.764 534.173> 729 110<244.649 394.911>
VStem: 17 139<110.13 248.299> 371 149<-75 295>
LayerCount: 2
Fore
SplineSet
552 729 m 1xdc
 552 729 517 692 478 692 c 0xec
 384 692 388 729 304 729 c 0xdc
 264 729 224 692 224 692 c 1
 225 802 l 1xec
 225 802 264 839 306 839 c 0xdc
 395 839 395 802 480 802 c 0xec
 518 802 552 839 552 839 c 1
 552 729 l 1xdc
311 686 m 0
 369 686 400 653 415 618 c 0
 463 507 464 507 464 507 c 1
 353 507 l 1
 311 600 l 1
 270 507 l 1
 160 507 l 1
 208 618 l 2
 223 653 253 686 311 686 c 0
520 426 m 1
 520 -75 l 1
 371 -75 l 1
 371 295 l 1
 307 295 l 2
 194 295 156 246 156 179 c 0
 156 91 228 60 306 60 c 1
 306 -75 l 1
 269 -75 l 2
 131 -75 17 23 17 169 c 0
 17 315 97 426 280 426 c 2
 520 426 l 1
EndSplineSet
EndChar

StartChar: uni1EAC
Encoding: 7852 7852 169
Width: 670
VWidth: 1074
Flags: W
HStem: -246 122<291.77 384.23> -75 21G<34 196.849 473.074 636> 60 111<323 406> 571 20G<288.5 379.5> 646 21G<182 301.817 366.183 486>
VStem: 277 122<-231.23 -138.77>
LayerCount: 2
Fore
SplineSet
334 825 m 0
 392 825 423 792 438 757 c 2
 486 646 l 1
 375 646 l 1
 334 739 l 1
 293 646 l 1
 182 646 l 1
 182 646 182 646 230 757 c 0
 245 792 276 825 334 825 c 0
277 -185 m 0
 277 -151 304 -124 338 -124 c 0
 372 -124 399 -151 399 -185 c 0
 399 -219 372 -246 338 -246 c 0
 304 -246 277 -219 277 -185 c 0
334 591 m 0
 425 591 453 498 453 498 c 1
 636 -75 l 1
 479 -75 l 1
 439 60 l 1
 292 60 l 1
 323 171 l 1
 406 171 l 1
 334 414 l 1
 191 -75 l 1
 34 -75 l 1
 215 498 l 1
 215 498 243 591 334 591 c 0
EndSplineSet
EndChar

StartChar: uni1EAD
Encoding: 7853 7853 170
Width: 571
VWidth: 1074
Flags: W
HStem: -244 121<268.77 361.23> -75 135<212.455 306> 295 131<208.844 371>
VStem: 17 139<110.13 248.299> 254 122<-229.23 -137.34> 371 149<-75 295>
LayerCount: 2
Fore
SplineSet
254 -183 m 0xf8
 254 -149 281 -123 315 -123 c 0
 349 -123 376 -149 376 -183 c 0
 376 -217 349 -244 315 -244 c 0
 281 -244 254 -217 254 -183 c 0xf8
311 686 m 0
 369 686 400 653 415 618 c 0
 463 507 464 507 464 507 c 1
 353 507 l 1
 311 600 l 1
 270 507 l 1
 160 507 l 1
 208 618 l 2
 223 653 253 686 311 686 c 0
520 426 m 1xf4
 520 -75 l 1
 371 -75 l 1
 371 295 l 1
 307 295 l 2
 194 295 156 246 156 179 c 0
 156 91 228 60 306 60 c 1
 306 -75 l 1
 269 -75 l 2
 131 -75 17 23 17 169 c 0
 17 315 97 426 280 426 c 2
 520 426 l 1xf4
EndSplineSet
EndChar

StartChar: uni1EAE
Encoding: 7854 7854 171
Width: 670
VWidth: 1074
Flags: W
HStem: -75 21G<34 196.849 473.074 636> 60 111<323 406> 571 20G<288.5 379.5> 636 92<285.632 384.56>
VStem: 169 102<744.72 808> 397 101<741.561 808>
LayerCount: 2
Fore
SplineSet
271 840 m 1
 375 1029 l 1
 523 1029 l 1
 417 840 l 1
 271 840 l 1
498 808 m 1
 498 776 l 2
 498 677 429 636 333 636 c 0
 237 636 169 690 169 770 c 2
 169 808 l 1
 271 808 l 1
 271 795 l 2
 271 751 298 728 335 728 c 0
 374 728 397 750 397 793 c 2
 397 808 l 1
 498 808 l 1
334 591 m 0
 425 591 453 498 453 498 c 1
 636 -75 l 1
 479 -75 l 1
 439 60 l 1
 292 60 l 1
 323 171 l 1
 406 171 l 1
 334 414 l 1
 191 -75 l 1
 34 -75 l 1
 215 498 l 1
 215 498 243 591 334 591 c 0
EndSplineSet
EndChar

StartChar: uni1EAF
Encoding: 7855 7855 172
Width: 571
VWidth: 1074
Flags: W
HStem: -75 135<212.455 306> 295 131<208.844 371> 498 91<264.156 362.173>
VStem: 17 139<110.13 248.299> 148 101<603.411 670> 371 149<-75 295> 375 102<603.561 670>
LayerCount: 2
Fore
SplineSet
249 702 m 1xe8
 353 890 l 1
 502 890 l 1
 395 702 l 1
 249 702 l 1xe8
477 670 m 1xea
 477 638 l 2
 477 539 407 498 311 498 c 0
 215 498 148 552 148 632 c 2
 148 670 l 1
 249 670 l 1
 249 657 l 2
 249 613 276 589 313 589 c 0
 352 589 375 612 375 655 c 2
 375 670 l 1
 477 670 l 1xea
520 426 m 1xf4
 520 -75 l 1
 371 -75 l 1
 371 295 l 1
 307 295 l 2
 194 295 156 246 156 179 c 0
 156 91 228 60 306 60 c 1
 306 -75 l 1
 269 -75 l 2
 131 -75 17 23 17 169 c 0
 17 315 97 426 280 426 c 2
 520 426 l 1xf4
EndSplineSet
EndChar

StartChar: uni1EB0
Encoding: 7856 7856 173
Width: 670
VWidth: 1074
Flags: W
HStem: -75 21G<34 196.849 473.074 636> 60 111<323 406> 571 20G<288.5 379.5> 636 92<285.632 384.56>
VStem: 169 102<744.72 808> 397 101<741.561 808>
LayerCount: 2
Fore
SplineSet
417 840 m 1
 271 840 l 1
 164 1029 l 1
 313 1029 l 1
 417 840 l 1
498 808 m 1
 498 776 l 2
 498 677 429 636 333 636 c 0
 237 636 169 690 169 770 c 2
 169 808 l 1
 271 808 l 1
 271 795 l 2
 271 751 298 728 335 728 c 0
 374 728 397 750 397 793 c 2
 397 808 l 1
 498 808 l 1
334 591 m 0
 425 591 453 498 453 498 c 1
 636 -75 l 1
 479 -75 l 1
 439 60 l 1
 292 60 l 1
 323 171 l 1
 406 171 l 1
 334 414 l 1
 191 -75 l 1
 34 -75 l 1
 215 498 l 1
 215 498 243 591 334 591 c 0
EndSplineSet
EndChar

StartChar: uni1EB1
Encoding: 7857 7857 174
Width: 571
VWidth: 1074
Flags: W
HStem: -75 135<212.455 306> 295 131<208.844 371> 498 91<264.156 362.173>
VStem: 17 139<110.13 248.299> 148 101<603.411 670> 371 149<-75 295> 375 102<603.561 670>
LayerCount: 2
Fore
SplineSet
395 702 m 1xe8
 249 702 l 1
 143 890 l 1
 291 890 l 1
 395 702 l 1xe8
477 670 m 1xea
 477 638 l 2
 477 539 407 498 311 498 c 0
 215 498 148 552 148 632 c 2
 148 670 l 1
 249 670 l 1
 249 657 l 2
 249 613 276 589 313 589 c 0
 352 589 375 612 375 655 c 2
 375 670 l 1
 477 670 l 1xea
520 426 m 1xf4
 520 -75 l 1
 371 -75 l 1
 371 295 l 1
 307 295 l 2
 194 295 156 246 156 179 c 0
 156 91 228 60 306 60 c 1
 306 -75 l 1
 269 -75 l 2
 131 -75 17 23 17 169 c 0
 17 315 97 426 280 426 c 2
 520 426 l 1xf4
EndSplineSet
EndChar

StartChar: uni1EB2
Encoding: 7858 7858 175
Width: 670
VWidth: 1074
Flags: W
HStem: -75 21G<34 196.849 473.074 636> 60 111<323 406> 571 20G<288.5 379.5> 636 92<285.632 384.56> 1023 71<301.485 374.162>
VStem: 169 102<744.72 808> 228 69<945.827 1018.29> 378 75<937.583 1018.38> 397 101<741.561 808>
LayerCount: 2
Fore
SplineSet
339 1094 m 0xfb
 413 1094 453 1043 453 982 c 0
 453 951 439 926 437 923 c 2
 385 840 l 1
 294 840 l 1
 352 931 l 2
 360 944 378 968 378 983 c 0
 378 1008 361 1023 338 1023 c 0
 314 1023 297 1007 297 983 c 0
 297 953 322 944 322 944 c 1
 288 891 l 1
 288 891 228 917 228 985 c 0
 228 1053 281 1094 339 1094 c 0xfb
498 808 m 1xfc80
 498 776 l 2
 498 677 429 636 333 636 c 0
 237 636 169 690 169 770 c 2
 169 808 l 1
 271 808 l 1
 271 795 l 2
 271 751 298 728 335 728 c 0
 374 728 397 750 397 793 c 2
 397 808 l 1
 498 808 l 1xfc80
334 591 m 0
 425 591 453 498 453 498 c 1xf9
 636 -75 l 1
 479 -75 l 1
 439 60 l 1
 292 60 l 1
 323 171 l 1
 406 171 l 1
 334 414 l 1
 191 -75 l 1
 34 -75 l 1
 215 498 l 1
 215 498 243 591 334 591 c 0
EndSplineSet
EndChar

StartChar: uni1EB3
Encoding: 7859 7859 176
Width: 571
VWidth: 1074
Flags: W
HStem: -75 135<212.455 306> 295 131<208.844 371> 498 91<264.156 362.173> 885 71<282.24 355.162>
VStem: 17 139<110.13 248.299> 148 101<603.411 670> 208 69<808.726 879.501> 359 75<798.924 881.227> 371 149<-75 295> 375 102<603.561 670>
LayerCount: 2
Fore
SplineSet
320 956 m 0xf3
 394 956 434 904 434 843 c 0
 434 812 420 788 418 785 c 2
 366 702 l 1
 275 702 l 1
 333 792 l 2
 341 805 359 830 359 845 c 0
 359 870 342 885 319 885 c 0
 295 885 277 868 277 844 c 0
 277 814 303 806 303 806 c 1
 269 753 l 1
 269 753 208 778 208 846 c 0
 208 914 262 956 320 956 c 0xf3
477 670 m 1xf440
 477 638 l 2
 477 539 407 498 311 498 c 0
 215 498 148 552 148 632 c 2
 148 670 l 1
 249 670 l 1
 249 657 l 2
 249 613 276 589 313 589 c 0
 352 589 375 612 375 655 c 2
 375 670 l 1
 477 670 l 1xf440
520 426 m 1xf880
 520 -75 l 1
 371 -75 l 1
 371 295 l 1
 307 295 l 2
 194 295 156 246 156 179 c 0
 156 91 228 60 306 60 c 1
 306 -75 l 1
 269 -75 l 2
 131 -75 17 23 17 169 c 0
 17 315 97 426 280 426 c 2
 520 426 l 1xf880
EndSplineSet
EndChar

StartChar: uni1EB4
Encoding: 7860 7860 177
Width: 670
VWidth: 1074
Flags: W
HStem: -75 21G<34 196.849 473.074 636> 60 111<323 406> 571 20G<288.5 379.5> 636 92<285.632 384.56> 850 110<334.764 482.173> 887 110<192.934 342.911>
VStem: 169 102<744.72 808> 397 101<741.561 808>
LayerCount: 2
Fore
SplineSet
500 887 m 1xf7
 500 887 465 850 426 850 c 0xfb
 332 850 336 887 252 887 c 0xf7
 212 887 173 850 173 850 c 1
 173 960 l 1xfb
 173 960 212 997 254 997 c 0xf7
 343 997 343 960 428 960 c 0xfb
 466 960 500 997 500 997 c 1
 500 887 l 1xf7
498 808 m 1
 498 776 l 2
 498 677 429 636 333 636 c 0
 237 636 169 690 169 770 c 2
 169 808 l 1
 271 808 l 1
 271 795 l 2
 271 751 298 728 335 728 c 0
 374 728 397 750 397 793 c 2
 397 808 l 1
 498 808 l 1
334 591 m 0
 425 591 453 498 453 498 c 1
 636 -75 l 1
 479 -75 l 1
 439 60 l 1
 292 60 l 1
 323 171 l 1
 406 171 l 1
 334 414 l 1
 191 -75 l 1
 34 -75 l 1
 215 498 l 1
 215 498 243 591 334 591 c 0
EndSplineSet
EndChar

StartChar: uni1EB5
Encoding: 7861 7861 178
Width: 571
VWidth: 1074
Flags: W
HStem: -75 135<212.455 306> 295 131<208.844 371> 498 91<264.156 362.173> 712 110<315.764 463.173> 749 110<173.934 323.911>
VStem: 17 139<110.13 248.299> 148 101<603.411 670> 371 149<-75 295> 375 102<603.561 670>
LayerCount: 2
Fore
SplineSet
481 749 m 1xe8
 481 749 446 712 407 712 c 0xf0
 313 712 317 749 233 749 c 0xe8
 193 749 154 712 154 712 c 1
 154 822 l 1xf0
 154 822 193 859 235 859 c 0xe8
 324 859 324 822 409 822 c 0xf0
 447 822 481 859 481 859 c 1
 481 749 l 1xe8
477 670 m 1xe280
 477 638 l 2
 477 539 407 498 311 498 c 0
 215 498 148 552 148 632 c 2
 148 670 l 1
 249 670 l 1
 249 657 l 2
 249 613 276 589 313 589 c 0
 352 589 375 612 375 655 c 2
 375 670 l 1
 477 670 l 1xe280
520 426 m 1xe5
 520 -75 l 1
 371 -75 l 1
 371 295 l 1
 307 295 l 2
 194 295 156 246 156 179 c 0
 156 91 228 60 306 60 c 1
 306 -75 l 1
 269 -75 l 2
 131 -75 17 23 17 169 c 0
 17 315 97 426 280 426 c 2
 520 426 l 1xe5
EndSplineSet
EndChar

StartChar: uni1EB6
Encoding: 7862 7862 179
Width: 670
VWidth: 1074
Flags: W
HStem: -246 122<291.77 384.23> -75 21G<34 196.849 473.074 636> 60 111<323 406> 571 20G<288.5 379.5> 646 21G<182 301.817 366.183 486>
VStem: 277 122<-231.23 -138.77>
LayerCount: 2
Fore
SplineSet
334 825 m 0
 392 825 423 792 438 757 c 2
 486 646 l 1
 375 646 l 1
 334 739 l 1
 293 646 l 1
 182 646 l 1
 182 646 182 646 230 757 c 0
 245 792 276 825 334 825 c 0
277 -185 m 0
 277 -151 304 -124 338 -124 c 0
 372 -124 399 -151 399 -185 c 0
 399 -219 372 -246 338 -246 c 0
 304 -246 277 -219 277 -185 c 0
334 591 m 0
 425 591 453 498 453 498 c 1
 636 -75 l 1
 479 -75 l 1
 439 60 l 1
 292 60 l 1
 323 171 l 1
 406 171 l 1
 334 414 l 1
 191 -75 l 1
 34 -75 l 1
 215 498 l 1
 215 498 243 591 334 591 c 0
EndSplineSet
EndChar

StartChar: uni1EB7
Encoding: 7863 7863 180
Width: 571
VWidth: 1074
Flags: W
HStem: -246 122<247.77 340.23> -75 135<212.455 306> 295 131<208.844 371> 498 91<264.156 362.173>
VStem: 17 139<110.13 248.299> 148 101<603.411 670> 233 122<-231.23 -138.77> 371 149<-75 295> 375 102<603.561 670>
LayerCount: 2
Fore
SplineSet
233 -185 m 0xf2
 233 -151 260 -124 294 -124 c 0
 328 -124 355 -151 355 -185 c 0
 355 -219 328 -246 294 -246 c 0
 260 -246 233 -219 233 -185 c 0xf2
477 670 m 1xf480
 477 638 l 2
 477 539 407 498 311 498 c 0
 215 498 148 552 148 632 c 2
 148 670 l 1
 249 670 l 1
 249 657 l 2
 249 613 276 589 313 589 c 0
 352 589 375 612 375 655 c 2
 375 670 l 1
 477 670 l 1xf480
520 426 m 1xf9
 520 -75 l 1
 371 -75 l 1
 371 295 l 1
 307 295 l 2
 194 295 156 246 156 179 c 0
 156 91 228 60 306 60 c 1
 306 -75 l 1
 269 -75 l 2
 131 -75 17 23 17 169 c 0
 17 315 97 426 280 426 c 2
 520 426 l 1xf9
EndSplineSet
EndChar

StartChar: uni1EB8
Encoding: 7864 7864 181
Width: 448
VWidth: 1074
Flags: W
HStem: -246 122<181.77 274.23> -75 153<186 414> 172 153<186 363> 426 153<186 414>
VStem: 33 381<-75 78 426 579> 33 153<78 172 325 426> 167 122<-231.23 -138.77>
LayerCount: 2
Fore
SplineSet
33 579 m 1xf8
 414 579 l 1
 414 426 l 1xf8
 186 426 l 1
 186 325 l 1
 363 325 l 1
 363 172 l 1
 186 172 l 1
 186 78 l 1xf4
 414 78 l 1
 414 -75 l 1
 33 -75 l 1
 33 579 l 1xf8
167 -185 m 0xf2
 167 -151 194 -124 228 -124 c 0
 262 -124 289 -151 289 -185 c 0
 289 -219 262 -246 228 -246 c 0
 194 -246 167 -219 167 -185 c 0xf2
EndSplineSet
EndChar

StartChar: uni1EB9
Encoding: 7865 7865 182
Width: 529
VWidth: 1074
Flags: W
HStem: -246 122<221.77 314.23> -83 129<207.562 415.966> 119 88<230 372> 296 141<196.751 339.664>
VStem: 16 133<100.736 246.434> 207 122<-231.23 -138.77>
LayerCount: 2
Fore
SplineSet
511 120 m 1
 444 120 230 119 230 119 c 1
 230 207 l 1
 372 207 l 1
 375 248 342 296 267 296 c 0
 220 296 149 268 149 170 c 0
 149 76 232 46 302 46 c 0
 375 46 416 53 416 53 c 1
 416 -75 l 1
 416 -75 365 -83 305 -83 c 0
 93 -83 16 48 16 171 c 0
 16 321 110 437 264 437 c 0
 401 437 531 367 511 120 c 1
207 -185 m 0
 207 -151 234 -124 268 -124 c 0
 302 -124 329 -151 329 -185 c 0
 329 -219 302 -246 268 -246 c 0
 234 -246 207 -219 207 -185 c 0
EndSplineSet
EndChar

StartChar: uni1EBA
Encoding: 7866 7866 183
Width: 448
VWidth: 1074
Flags: W
HStem: -75 153<186 414> 172 153<186 363> 426 153<186 414> 646 21G<186 289.53> 829 71<193.485 266.162>
VStem: 33 381<-75 78 426 579> 33 153<78 172 325 426> 120 69<752.576 823.828> 270 75<743.583 824.378>
LayerCount: 2
Fore
SplineSet
33 579 m 1xfc
 414 579 l 1
 414 426 l 1xfc
 186 426 l 1
 186 325 l 1
 363 325 l 1
 363 172 l 1
 186 172 l 1
 186 78 l 1xfa
 414 78 l 1
 414 -75 l 1
 33 -75 l 1
 33 579 l 1xfc
231 900 m 0
 305 900 345 849 345 788 c 0
 345 757 331 732 329 729 c 2
 277 646 l 1
 186 646 l 1xfa80
 244 737 l 2
 252 750 270 774 270 789 c 0
 270 814 253 829 230 829 c 0
 206 829 189 813 189 789 c 0
 189 759 214 750 214 750 c 1
 180 697 l 1
 180 697 120 722 120 790 c 0xf980
 120 858 173 900 231 900 c 0
EndSplineSet
EndChar

StartChar: uni1EBB
Encoding: 7867 7867 184
Width: 529
VWidth: 1074
Flags: W
HStem: -83 129<207.562 415.966> 119 88<230 372> 296 141<196.751 339.664> 690 71<237.485 310.162>
VStem: 16 133<100.736 246.434> 164 69<613.327 685.289> 314 75<604.583 685.378>
LayerCount: 2
Fore
SplineSet
511 120 m 1
 444 120 230 119 230 119 c 1
 230 207 l 1
 372 207 l 1
 375 248 342 296 267 296 c 0
 220 296 149 268 149 170 c 0
 149 76 232 46 302 46 c 0
 375 46 416 53 416 53 c 1
 416 -75 l 1
 416 -75 365 -83 305 -83 c 0
 93 -83 16 48 16 171 c 0
 16 321 110 437 264 437 c 0
 401 437 531 367 511 120 c 1
275 761 m 0
 349 761 389 710 389 649 c 0
 389 618 375 593 373 590 c 2
 321 507 l 1
 230 507 l 1
 288 598 l 2
 296 611 314 635 314 650 c 0
 314 675 297 690 274 690 c 0
 250 690 233 674 233 650 c 0
 233 620 258 612 258 612 c 1
 224 559 l 1
 224 559 164 584 164 652 c 0
 164 720 217 761 275 761 c 0
EndSplineSet
EndChar

StartChar: uni1EBC
Encoding: 7868 7868 185
Width: 449
VWidth: 1074
Flags: W
HStem: -75 153<186 414> 172 153<186 363> 426 153<186 414> 637 110<228.764 376.173> 674 110<86.9336 236.911>
VStem: 33 381<-75 78 426 579> 33 153<78 172 325 426>
LayerCount: 2
Fore
SplineSet
33 579 m 1xe4
 414 579 l 1
 414 426 l 1xe4
 186 426 l 1
 186 325 l 1
 363 325 l 1
 363 172 l 1
 186 172 l 1
 186 78 l 1xe2
 414 78 l 1
 414 -75 l 1
 33 -75 l 1
 33 579 l 1xe4
394 674 m 1xe8
 394 674 359 637 320 637 c 0xf0
 226 637 230 674 146 674 c 0xe8
 106 674 67 637 67 637 c 1
 67 747 l 1xf0
 67 747 106 784 148 784 c 0xe8
 237 784 237 747 322 747 c 0xf0
 360 747 394 784 394 784 c 1
 394 674 l 1xe8
EndSplineSet
EndChar

StartChar: uni1EBD
Encoding: 7869 7869 186
Width: 529
VWidth: 1074
Flags: W
HStem: -83 129<207.562 415.966> 119 88<230 372> 296 141<196.751 339.664> 536 110<271.264 418.388> 573 110<129.137 278.391>
VStem: 16 133<100.736 246.434>
LayerCount: 2
Fore
SplineSet
511 120 m 1xe4
 444 120 230 119 230 119 c 1
 230 207 l 1
 372 207 l 1
 375 248 342 296 267 296 c 0
 220 296 149 268 149 170 c 0
 149 76 232 46 302 46 c 0
 375 46 416 53 416 53 c 1
 416 -75 l 1
 416 -75 365 -83 305 -83 c 0
 93 -83 16 48 16 171 c 0
 16 321 110 437 264 437 c 0
 401 437 531 367 511 120 c 1xe4
436 573 m 1xec
 436 573 401 536 362 536 c 0xf4
 268 536 272 573 188 573 c 0xec
 148 573 109 536 109 536 c 1
 109 646 l 1xf4
 109 646 149 683 191 683 c 0xec
 280 683 280 646 365 646 c 0xf4
 403 646 436 683 436 683 c 1
 436 573 l 1xec
EndSplineSet
EndChar

StartChar: uni1EBE
Encoding: 7870 7870 187
Width: 450
VWidth: 1074
Flags: W
HStem: -75 153<186 414> 172 153<186 363> 426 153<186 414> 646 21G<73 192.817 257.183 377>
VStem: 34 380<-75 78 426 579> 34 152<78 172 325 426>
LayerCount: 2
Fore
SplineSet
34 579 m 1xf8
 414 579 l 1
 414 426 l 1xf8
 186 426 l 1
 186 325 l 1
 363 325 l 1
 363 172 l 1
 186 172 l 1
 186 78 l 1xf4
 414 78 l 1
 414 -75 l 1
 34 -75 l 1
 34 579 l 1xf8
225 825 m 0
 283 825 314 792 329 757 c 2
 377 646 l 1
 266 646 l 1
 225 739 l 1
 184 646 l 1
 73 646 l 1
 121 757 l 2
 136 792 167 825 225 825 c 0
382 755 m 1
 486 944 l 1
 635 944 l 1
 529 755 l 1
 382 755 l 1
EndSplineSet
EndChar

StartChar: uni1EBF
Encoding: 7871 7871 188
Width: 554
VWidth: 1074
Flags: W
HStem: -83 129<207.562 415.966> 119 88<230 372> 296 141<196.751 339.664>
VStem: 16 133<100.736 246.434>
LayerCount: 2
Fore
SplineSet
511 120 m 1
 444 120 230 119 230 119 c 1
 230 207 l 1
 372 207 l 1
 375 248 342 296 267 296 c 0
 220 296 149 268 149 170 c 0
 149 76 232 46 302 46 c 0
 375 46 416 53 416 53 c 1
 416 -75 l 1
 416 -75 365 -83 305 -83 c 0
 93 -83 16 48 16 171 c 0
 16 321 110 437 264 437 c 0
 401 437 531 367 511 120 c 1
415 613 m 1
 519 802 l 1
 667 802 l 1
 561 613 l 1
 415 613 l 1
264 686 m 0
 322 686 353 653 368 618 c 2
 416 507 l 1
 306 507 l 1
 264 600 l 1
 223 507 l 1
 112 507 l 1
 161 618 l 2
 176 653 206 686 264 686 c 0
EndSplineSet
EndChar

StartChar: uni1EC1
Encoding: 7873 7873 189
Width: 541
VWidth: 1074
Flags: W
HStem: -83 129<207.562 415.966> 119 88<230 372> 296 141<196.751 339.664>
VStem: 16 133<100.736 246.434>
LayerCount: 2
Fore
SplineSet
511 120 m 1
 444 120 230 119 230 119 c 1
 230 207 l 1
 372 207 l 1
 375 248 342 296 267 296 c 0
 220 296 149 268 149 170 c 0
 149 76 232 46 302 46 c 0
 375 46 416 53 416 53 c 1
 416 -75 l 1
 416 -75 365 -83 305 -83 c 0
 93 -83 16 48 16 171 c 0
 16 321 110 437 264 437 c 0
 401 437 531 367 511 120 c 1
603 613 m 1
 457 613 l 1
 351 802 l 1
 499 802 l 1
 603 613 l 1
265 686 m 0
 323 686 354 653 369 618 c 2
 417 507 l 1
 307 507 l 1
 265 600 l 1
 224 507 l 1
 113 507 l 1
 161 618 l 2
 176 653 207 686 265 686 c 0
EndSplineSet
EndChar

StartChar: uni1EC0
Encoding: 7872 7872 190
Width: 560
VWidth: 1074
Flags: W
HStem: -75 153<186 414> 172 153<186 363> 426 153<186 414> 646 21G<72 191.817 256.968 376>
VStem: 33 381<-75 78 426 579> 33 153<78 172 325 426>
LayerCount: 2
Fore
SplineSet
33 579 m 1xf8
 414 579 l 1
 414 426 l 1xf8
 186 426 l 1
 186 325 l 1
 363 325 l 1
 363 172 l 1
 186 172 l 1
 186 78 l 1xf4
 414 78 l 1
 414 -75 l 1
 33 -75 l 1
 33 579 l 1xf8
528 755 m 1
 382 755 l 1
 275 944 l 1
 424 944 l 1
 528 755 l 1
224 825 m 0
 282 825 313 792 328 757 c 2
 376 646 l 1
 266 646 l 1
 224 739 l 1
 183 646 l 1
 72 646 l 1
 121 757 l 2
 136 792 166 825 224 825 c 0
EndSplineSet
EndChar

StartChar: uni1EC2
Encoding: 7874 7874 191
Width: 572
VWidth: 1074
Flags: W
HStem: -75 153<186 414> 172 153<186 363> 426 153<186 414> 646 21G<72 191.032 256.183 376> 938 71<388.923 460.16>
VStem: 33 381<-75 78 426 579> 33 153<78 172 325 426> 315 69<862.726 933.289> 465 75<851.414 933.378>
LayerCount: 2
Fore
SplineSet
33 579 m 1xfc80
 414 579 l 1
 414 426 l 1xfc80
 186 426 l 1
 186 325 l 1
 363 325 l 1
 363 172 l 1
 186 172 l 1
 186 78 l 1xfa80
 414 78 l 1
 414 -75 l 1
 33 -75 l 1
 33 579 l 1xfc80
427 1009 m 0
 501 1009 540 958 540 897 c 0
 540 866 526 841 524 838 c 2
 472 755 l 1
 381 755 l 1
 440 846 l 2
 448 859 465 883 465 898 c 0
 465 923 448 938 425 938 c 0
 401 938 384 922 384 898 c 0
 384 868 410 860 410 860 c 1
 375 807 l 1
 375 807 315 832 315 900 c 0xf980
 315 968 369 1009 427 1009 c 0
224 825 m 0
 282 825 313 792 328 757 c 2
 376 646 l 1
 265 646 l 1
 224 739 l 1
 182 646 l 1
 72 646 l 1
 120 757 l 2
 135 792 166 825 224 825 c 0
EndSplineSet
EndChar

StartChar: uni1EC3
Encoding: 7875 7875 192
Width: 546
VWidth: 1074
Flags: W
HStem: -83 129<207.562 415.966> 119 88<230 372> 296 141<196.751 339.664> 796 72<438.485 511.162>
VStem: 16 133<100.736 246.434> 365 69<719.327 791.328> 515 75<710.583 791.431>
LayerCount: 2
Fore
SplineSet
511 120 m 1
 444 120 230 119 230 119 c 1
 230 207 l 1
 372 207 l 1
 375 248 342 296 267 296 c 0
 220 296 149 268 149 170 c 0
 149 76 232 46 302 46 c 0
 375 46 416 53 416 53 c 1
 416 -75 l 1
 416 -75 365 -83 305 -83 c 0
 93 -83 16 48 16 171 c 0
 16 321 110 437 264 437 c 0
 401 437 531 367 511 120 c 1
476 868 m 0
 550 868 590 816 590 755 c 0
 590 724 576 699 574 696 c 2
 522 613 l 1
 431 613 l 1
 489 704 l 2
 497 717 515 741 515 756 c 0
 515 781 498 796 475 796 c 0
 451 796 434 780 434 756 c 0
 434 726 459 718 459 718 c 1
 425 665 l 1
 425 665 365 690 365 758 c 0
 365 826 418 868 476 868 c 0
266 686 m 0
 324 686 355 653 370 618 c 2
 419 507 l 1
 308 507 l 1
 266 600 l 1
 225 507 l 1
 115 507 l 1
 163 618 l 2
 178 653 208 686 266 686 c 0
EndSplineSet
EndChar

StartChar: uni1EC4
Encoding: 7876 7876 193
Width: 494
VWidth: 1074
Flags: W
HStem: -75 153<186 414> 172 153<186 363> 426 153<186 414> 646 21G<72 190.817 255.968 376> 827 110<297.514 444.388> 864 110<155.649 305.615>
VStem: 33 381<-75 78 426 579> 33 153<78 172 325 426>
LayerCount: 2
Fore
SplineSet
33 579 m 1xf2
 414 579 l 1
 414 426 l 1xf2
 186 426 l 1
 186 325 l 1
 363 325 l 1
 363 172 l 1
 186 172 l 1
 186 78 l 1xf1
 414 78 l 1
 414 -75 l 1
 33 -75 l 1
 33 579 l 1xf2
462 864 m 1xf4
 462 864 427 827 388 827 c 0xf8
 294 827 299 864 215 864 c 0xf4
 175 864 135 827 135 827 c 1
 136 937 l 1xf8
 136 937 175 974 217 974 c 0xf4
 306 974 306 937 391 937 c 0xf8
 429 937 462 974 462 974 c 1
 462 864 l 1xf4
223 825 m 0
 281 825 312 792 327 757 c 2
 376 646 l 1
 265 646 l 1
 223 739 l 1
 182 646 l 1
 72 646 l 1
 120 757 l 2
 135 792 165 825 223 825 c 0
EndSplineSet
EndChar

StartChar: uni1EC5
Encoding: 7877 7877 194
Width: 529
VWidth: 1074
Flags: W
HStem: -83 129<207.562 415.966> 119 88<230 372> 296 141<196.751 339.664> 692 110<339.764 487.173> 729 110<197.934 347.911>
VStem: 16 133<100.736 246.434>
LayerCount: 2
Fore
SplineSet
511 120 m 1xe4
 444 120 230 119 230 119 c 1
 230 207 l 1
 372 207 l 1
 375 248 342 296 267 296 c 0
 220 296 149 268 149 170 c 0
 149 76 232 46 302 46 c 0
 375 46 416 53 416 53 c 1
 416 -75 l 1
 416 -75 365 -83 305 -83 c 0
 93 -83 16 48 16 171 c 0
 16 321 110 437 264 437 c 0
 401 437 531 367 511 120 c 1xe4
505 729 m 1xec
 505 729 470 692 431 692 c 0xf4
 337 692 341 729 257 729 c 0xec
 217 729 178 692 178 692 c 1
 178 802 l 1xf4
 178 802 217 839 259 839 c 0xec
 348 839 348 802 433 802 c 0xf4
 471 802 505 839 505 839 c 1
 505 729 l 1xec
265 686 m 0
 323 686 354 653 369 618 c 2
 417 507 l 1
 306 507 l 1
 265 600 l 1
 224 507 l 1
 113 507 l 1
 161 618 l 2
 176 653 207 686 265 686 c 0
EndSplineSet
EndChar

StartChar: uni1EC6
Encoding: 7878 7878 195
Width: 448
VWidth: 1074
Flags: W
HStem: -246 122<181.77 274.23> -75 153<186 414> 172 153<186 363> 426 153<186 414> 646 21G<72 191.817 256.183 376>
VStem: 33 381<-75 78 426 579> 33 153<78 172 325 426> 167 122<-231.23 -138.77>
LayerCount: 2
Fore
SplineSet
33 579 m 1xfc
 414 579 l 1
 414 426 l 1xfc
 186 426 l 1
 186 325 l 1
 363 325 l 1
 363 172 l 1
 186 172 l 1
 186 78 l 1xfa
 414 78 l 1
 414 -75 l 1
 33 -75 l 1
 33 579 l 1xfc
224 825 m 0
 282 825 313 792 328 757 c 2
 376 646 l 1
 265 646 l 1
 224 739 l 1
 183 646 l 1
 72 646 l 1
 120 757 l 2
 135 792 166 825 224 825 c 0
167 -185 m 0xf9
 167 -151 194 -124 228 -124 c 0
 262 -124 289 -151 289 -185 c 0
 289 -219 262 -246 228 -246 c 0
 194 -246 167 -219 167 -185 c 0xf9
EndSplineSet
EndChar

StartChar: uni1EC7
Encoding: 7879 7879 196
Width: 529
VWidth: 1074
Flags: W
HStem: -244 121<223.77 316.23> -83 129<207.562 415.966> 119 88<230 372> 296 141<196.751 339.664>
VStem: 16 133<100.736 246.434> 209 122<-229.23 -137.34>
LayerCount: 2
Fore
SplineSet
511 120 m 1
 444 120 230 119 230 119 c 1
 230 207 l 1
 372 207 l 1
 375 248 342 296 267 296 c 0
 220 296 149 268 149 170 c 0
 149 76 232 46 302 46 c 0
 375 46 416 53 416 53 c 1
 416 -75 l 1
 416 -75 365 -83 305 -83 c 0
 93 -83 16 48 16 171 c 0
 16 321 110 437 264 437 c 0
 401 437 531 367 511 120 c 1
209 -183 m 0
 209 -149 236 -123 270 -123 c 0
 304 -123 331 -149 331 -183 c 0
 331 -217 304 -244 270 -244 c 0
 236 -244 209 -217 209 -183 c 0
266 686 m 0
 324 686 355 653 370 618 c 2
 419 507 l 1
 308 507 l 1
 266 600 l 1
 225 507 l 1
 115 507 l 1
 163 618 l 2
 178 653 208 686 266 686 c 0
EndSplineSet
EndChar

StartChar: uni1EC8
Encoding: 7880 7880 197
Width: 285
VWidth: 1074
Flags: W
HStem: -75 21G<66 219> 559 20G<66 219> 646 21G<96 199.53> 829 71<103.923 175.16>
VStem: 30 69<752.805 823.828> 66 153<-75 579> 180 75<742.414 824.378>
LayerCount: 2
Fore
SplineSet
142 900 m 0xfa
 216 900 255 849 255 788 c 0
 255 757 241 732 239 729 c 2
 187 646 l 1
 96 646 l 1
 155 737 l 2
 163 750 180 774 180 789 c 0
 180 814 163 829 140 829 c 0
 116 829 99 813 99 789 c 0
 99 759 125 750 125 750 c 1
 90 697 l 1
 90 697 30 722 30 790 c 0
 30 858 84 900 142 900 c 0xfa
66 -75 m 1xf4
 66 579 l 1
 219 579 l 1
 219 -75 l 1
 66 -75 l 1xf4
EndSplineSet
EndChar

StartChar: uni1EC9
Encoding: 7881 7881 198
Width: 285
VWidth: 1074
Flags: W
HStem: -75 21G<66 214> 406 20G<66 214> 690 71<103.923 175.16>
VStem: 30 69<614.726 685.289> 66 148<-75 426> 180 75<603.414 685.378>
LayerCount: 2
Fore
SplineSet
214 426 m 1xe8
 214 -75 l 1
 66 -75 l 1
 66 426 l 1
 214 426 l 1xe8
142 761 m 0
 216 761 255 710 255 649 c 0
 255 618 241 593 239 590 c 2
 187 507 l 1
 96 507 l 1
 155 598 l 2
 163 611 180 635 180 650 c 0
 180 675 163 690 140 690 c 0
 116 690 99 674 99 650 c 0
 99 620 125 612 125 612 c 1
 90 559 l 1
 90 559 30 584 30 652 c 0xf4
 30 720 84 761 142 761 c 0
EndSplineSet
EndChar

StartChar: uni1ECA
Encoding: 7882 7882 199
Width: 221
VWidth: 1074
Flags: W
HStem: -246 122<67.7704 159.66> -75 21G<34 187> 559 20G<34 187>
VStem: 34 153<-75 579> 53 121<-231.23 -138.77>
LayerCount: 2
Fore
SplineSet
34 -75 m 1xf0
 34 579 l 1
 187 579 l 1
 187 -75 l 1
 34 -75 l 1xf0
53 -185 m 0xe8
 53 -151 80 -124 114 -124 c 0
 148 -124 174 -151 174 -185 c 0
 174 -219 148 -246 114 -246 c 0
 80 -246 53 -219 53 -185 c 0xe8
EndSplineSet
EndChar

StartChar: uni1ECB
Encoding: 7883 7883 200
Width: 232
VWidth: 1074
Flags: W
HStem: -246 122<70.7704 163.23> -75 21G<43 191> 406 20G<43 191> 495 173<59.5147 172.485>
VStem: 30 172<525.085 638.485> 43 148<-75 426> 56 122<-231.23 -138.77>
LayerCount: 2
Fore
SplineSet
30 582 m 0xf8
 30 630 68 668 116 668 c 0
 164 668 202 630 202 582 c 0
 202 534 164 495 116 495 c 0
 68 495 30 534 30 582 c 0xf8
191 426 m 1xf4
 191 -75 l 1
 43 -75 l 1
 43 426 l 1
 191 426 l 1xf4
56 -185 m 0xf2
 56 -151 83 -124 117 -124 c 0
 151 -124 178 -151 178 -185 c 0
 178 -219 151 -246 117 -246 c 0
 83 -246 56 -219 56 -185 c 0xf2
EndSplineSet
EndChar

StartChar: dcroat
Encoding: 273 273 201
Width: 610
VWidth: 1074
Flags: W
HStem: -75 131<208.844 371> 291 135<212.455 306> 473 106<284 371 520 587> 626 20G<371 520>
VStem: 17 139<102.701 240.87> 371 149<56 473 579 646>
LayerCount: 2
Fore
SplineSet
587 579 m 1
 587 473 l 1
 520 473 l 1
 520 -75 l 1
 280 -75 l 2
 97 -75 17 36 17 182 c 0
 17 328 131 426 269 426 c 2
 306 426 l 1
 306 291 l 1
 228 291 156 260 156 172 c 0
 156 105 194 56 307 56 c 2
 371 56 l 1
 371 473 l 1
 284 473 l 1
 284 579 l 1
 371 579 l 1
 371 646 l 1
 520 646 l 1
 520 579 l 1
 587 579 l 1
EndSplineSet
EndChar

StartChar: ydieresis
Encoding: 255 255 202
Width: 558
VWidth: 1074
Flags: W
HStem: -300 125<110.039 329.476> -75 139<236.423 375> 406 20G<31 179 376 524> 534 142<81.875 182.125 385.875 486.125>
VStem: 31 148<120.617 426> 61 142<554.875 655.125> 365 142<554.875 655.125> 375 149<-133.666 -75 64 426>
LayerCount: 2
Fore
SplineSet
179 426 m 1xf9
 179 209 l 2
 179 115 227 64 315 64 c 2
 377 64 l 1
 376 426 l 1
 524 426 l 1
 524 -75 l 2
 524 -147 488 -212 436 -251 c 0
 363 -306 267 -300 223 -300 c 0
 171 -300 110 -288 110 -288 c 1
 110 -163 l 1
 110 -163 155 -175 219 -175 c 0
 283 -175 310 -166 337 -149 c 0
 355 -137 375 -114 375 -75 c 1
 256 -75 l 2
 114 -75 31 51 31 163 c 0
 31 238 31 426 31 426 c 1
 179 426 l 1xf9
436 676 m 0
 475 676 507 644 507 605 c 0
 507 566 475 534 436 534 c 0
 397 534 365 566 365 605 c 0xf2
 365 644 397 676 436 676 c 0
132 676 m 0
 171 676 203 644 203 605 c 0
 203 566 171 534 132 534 c 0
 93 534 61 566 61 605 c 0xf4
 61 644 93 676 132 676 c 0
EndSplineSet
EndChar

StartChar: degree
Encoding: 176 176 203
Width: 252
VWidth: 1074
Flags: W
HStem: 422 65<84.7031 168.366> 586 64<85.0234 168.046>
VStem: 14 63<495.822 577.822> 177 62<495.822 577.822>
LayerCount: 2
Fore
SplineSet
127 586 m 0
 98 586 77 565 77 536 c 0
 77 507 98 487 127 487 c 0
 156 487 177 507 177 536 c 0
 177 565 156 586 127 586 c 0
126 650 m 0
 188 650 239 599 239 536 c 0
 239 473 188 422 126 422 c 0
 64 422 14 473 14 536 c 0
 14 599 64 650 126 650 c 0
EndSplineSet
EndChar

StartChar: macron
Encoding: 175 175 204
Width: 458
VWidth: 1074
Flags: W
HStem: 579 106<23 435>
LayerCount: 2
Fore
SplineSet
435 685 m 1
 435 579 l 1
 23 579 l 1
 23 685 l 1
 435 685 l 1
EndSplineSet
EndChar

StartChar: Amacron
Encoding: 256 256 205
Width: 661
VWidth: 1074
Flags: W
HStem: -75 21G<30 192.849 469.074 632> 60 111<318 402> 571 20G<284.5 375.5> 646 106<123 536>
LayerCount: 2
Fore
SplineSet
536 752 m 1
 536 646 l 1
 123 646 l 1
 123 752 l 1
 536 752 l 1
330 591 m 0
 421 591 449 498 449 498 c 1
 632 -75 l 1
 475 -75 l 1
 435 60 l 1
 287 60 l 1
 318 171 l 1
 402 171 l 1
 330 414 l 1
 187 -75 l 1
 30 -75 l 1
 210 498 l 1
 210 498 239 591 330 591 c 0
EndSplineSet
EndChar

StartChar: amacron
Encoding: 257 257 206
Width: 565
VWidth: 1074
Flags: W
HStem: -75 135<206.509 300> 295 131<202.897 365> 507 106<85 497>
VStem: 12 138<110.13 248.299> 365 149<-75 295>
LayerCount: 2
Fore
SplineSet
497 613 m 1
 497 507 l 1
 85 507 l 1
 85 613 l 1
 497 613 l 1
514 426 m 1
 514 -75 l 1
 365 -75 l 1
 365 295 l 1
 301 295 l 2
 188 295 150 246 150 179 c 0
 150 91 222 60 300 60 c 1
 300 -75 l 1
 263 -75 l 2
 125 -75 12 23 12 169 c 0
 12 315 91 426 274 426 c 2
 514 426 l 1
EndSplineSet
EndChar

StartChar: Itilde
Encoding: 296 296 207
Width: 326
VWidth: 1074
Flags: W
HStem: -75 21G<86 239> 559 20G<86 239> 637 110<162.264 309.388> 674 110<20.137 169.391>
VStem: 86 153<-75 579>
LayerCount: 2
Fore
SplineSet
86 -75 m 1xc8
 86 579 l 1
 239 579 l 1
 239 -75 l 1
 86 -75 l 1xc8
327 674 m 1xd8
 327 674 292 637 253 637 c 0xe8
 159 637 163 674 79 674 c 0xd8
 39 674 0 637 0 637 c 1
 0 747 l 1xe8
 0 747 40 784 82 784 c 0xd8
 171 784 171 747 256 747 c 0xe8
 294 747 327 784 327 784 c 1
 327 674 l 1xd8
EndSplineSet
EndChar

StartChar: itilde
Encoding: 297 297 208
Width: 326
VWidth: 1074
Flags: W
HStem: -75 21G<92 241> 406 20G<92 241> 536 110<162.264 309.388> 573 110<20.137 169.391>
VStem: 92 149<-75 426>
LayerCount: 2
Fore
SplineSet
241 426 m 1xc8
 241 -75 l 1
 92 -75 l 1
 92 426 l 1
 241 426 l 1xc8
327 573 m 1xd8
 327 573 292 536 253 536 c 0xe8
 159 536 163 573 79 573 c 0xd8
 39 573 0 536 0 536 c 1
 0 646 l 1xe8
 0 646 40 683 82 683 c 0xd8
 171 683 171 646 256 646 c 0xe8
 294 646 327 683 327 683 c 1
 327 573 l 1xd8
EndSplineSet
EndChar

StartChar: Ygrave
Encoding: 7922 7922 209
Width: 642
VWidth: 1074
Flags: W
HStem: -75 21G<244 398> 559 20G<30 209.039 432.058 611> 646 21G<251.617 409>
VStem: 244 154<-75 243>
LayerCount: 2
Fore
SplineSet
409 646 m 1
 263 646 l 1
 156 834 l 1
 305 835 l 1
 409 646 l 1
197 579 m 1
 321 373 l 1
 444 579 l 1
 611 579 l 1
 398 243 l 1
 398 -75 l 1
 244 -75 l 1
 244 243 l 1
 30 579 l 1
 197 579 l 1
EndSplineSet
EndChar

StartChar: ygrave
Encoding: 7923 7923 210
Width: 562
VWidth: 1074
Flags: W
HStem: -300 125<112.039 331.761> -75 139<238.423 377> 406 20G<33 182 378 526>
VStem: 33 149<121.574 426> 377 149<-133.666 -75 64 426>
LayerCount: 2
Fore
SplineSet
182 426 m 1
 182 210 l 2
 182 116 229 64 317 64 c 2
 379 64 l 1
 378 426 l 1
 526 426 l 1
 526 -75 l 2
 526 -147 491 -212 439 -251 c 0
 366 -306 269 -300 225 -300 c 0
 173 -300 112 -288 112 -288 c 1
 112 -163 l 1
 112 -163 157 -175 221 -175 c 0
 285 -175 312 -166 339 -149 c 0
 357 -137 377 -114 377 -75 c 1
 258 -75 l 2
 116 -75 33 52 33 164 c 0
 33 239 33 426 33 426 c 1
 182 426 l 1
360 507 m 1
 213 507 l 1
 107 695 l 1
 256 695 l 1
 360 507 l 1
EndSplineSet
EndChar

StartChar: uni1EF4
Encoding: 7924 7924 211
Width: 642
VWidth: 1074
Flags: W
HStem: -246 122<277.77 370.23> -75 21G<244 398> 559 20G<30 209.039 432.058 611>
VStem: 244 154<-75 243> 263 122<-231.23 -138.77>
LayerCount: 2
Fore
SplineSet
197 579 m 1xf0
 321 373 l 1
 444 579 l 1
 611 579 l 1
 398 243 l 1
 398 -75 l 1
 244 -75 l 1
 244 243 l 1
 30 579 l 1
 197 579 l 1xf0
263 -185 m 0xe8
 263 -151 290 -124 324 -124 c 0
 358 -124 385 -151 385 -185 c 0
 385 -219 358 -246 324 -246 c 0
 290 -246 263 -219 263 -185 c 0xe8
EndSplineSet
EndChar

StartChar: uni1EF5
Encoding: 7925 7925 212
Width: 563
VWidth: 1074
Flags: W
HStem: -476 122<258.77 351.23> -300 125<113.039 332.761> -75 139<240.423 378> 406 20G<34 183 379 528>
VStem: 35 148<121.574 426> 244 122<-461.23 -368.77> 378 150<-133.666 -75 64 426>
LayerCount: 2
Fore
SplineSet
183 426 m 1
 183 210 l 2
 183 116 230 64 318 64 c 2
 381 64 l 1
 379 426 l 1
 528 426 l 1
 528 -75 l 2
 528 -147 492 -212 440 -251 c 0
 367 -306 270 -300 226 -300 c 0
 174 -300 113 -288 113 -288 c 1
 113 -163 l 1
 113 -163 158 -175 222 -175 c 0
 286 -175 313 -166 340 -149 c 0
 358 -137 378 -114 378 -75 c 1
 260 -75 l 2
 118 -75 35 52 35 164 c 0
 35 239 34 426 34 426 c 1
 183 426 l 1
244 -415 m 0
 244 -381 271 -354 305 -354 c 0
 339 -354 366 -381 366 -415 c 0
 366 -449 339 -476 305 -476 c 0
 271 -476 244 -449 244 -415 c 0
EndSplineSet
EndChar

StartChar: uni1EF6
Encoding: 7926 7926 213
Width: 642
VWidth: 1074
Flags: W
HStem: -75 21G<244 398> 559 20G<30 209.039 432.058 611> 646 21G<277 379.771> 829 71<284.02 357.162>
VStem: 210 69<752.805 823.617> 244 154<-75 243> 361 75<743.583 824.378>
LayerCount: 2
Fore
SplineSet
322 900 m 0xfa
 396 900 436 849 436 788 c 0
 436 757 422 732 420 729 c 2
 367 646 l 1
 277 646 l 1
 335 737 l 2
 343 750 361 774 361 789 c 0
 361 814 344 829 321 829 c 0
 297 829 279 813 279 789 c 0
 279 759 305 750 305 750 c 1
 270 697 l 1
 270 697 210 722 210 790 c 0
 210 858 264 900 322 900 c 0xfa
197 579 m 1
 321 373 l 1
 444 579 l 1
 611 579 l 1
 398 243 l 1
 398 -75 l 1
 244 -75 l 1
 244 243 l 1xf4
 30 579 l 1
 197 579 l 1
EndSplineSet
EndChar

StartChar: uni1EF7
Encoding: 7927 7927 214
Width: 562
VWidth: 1074
Flags: W
HStem: -300 125<112.039 331.761> -75 139<238.423 377> 406 20G<33 182 378 526> 690 71<258.485 331.162>
VStem: 33 149<120.617 426> 185 69<613.327 685.289> 335 75<603.414 685.378> 377 149<-133.666 -75 64 426>
LayerCount: 2
Fore
SplineSet
182 426 m 1xfd
 182 209 l 2
 182 115 229 64 317 64 c 2
 379 64 l 1
 378 426 l 1
 526 426 l 1
 526 -75 l 2
 526 -147 491 -212 439 -251 c 0
 366 -306 269 -300 225 -300 c 0
 173 -300 112 -288 112 -288 c 1
 112 -163 l 1
 112 -163 157 -175 221 -175 c 0
 285 -175 312 -166 339 -149 c 0
 357 -137 377 -114 377 -75 c 1
 258 -75 l 2
 116 -75 33 51 33 163 c 0
 33 238 33 426 33 426 c 1
 182 426 l 1xfd
296 761 m 0
 370 761 410 710 410 649 c 0
 410 618 396 593 394 590 c 2
 342 507 l 1
 251 507 l 1
 310 598 l 2
 318 611 335 635 335 650 c 0xfe
 335 675 318 690 295 690 c 0
 271 690 254 674 254 650 c 0
 254 620 279 612 279 612 c 1
 245 559 l 1
 245 559 185 584 185 652 c 0
 185 720 238 761 296 761 c 0
EndSplineSet
EndChar

StartChar: uni1EF8
Encoding: 7928 7928 215
Width: 642
VWidth: 1074
Flags: W
HStem: -75 21G<244 398> 559 20G<30 209.039 432.058 611> 637 110<328.764 476.173> 674 110<186.934 336.911>
VStem: 244 154<-75 243>
LayerCount: 2
Fore
SplineSet
197 579 m 1xc8
 321 373 l 1
 444 579 l 1
 611 579 l 1
 398 243 l 1
 398 -75 l 1
 244 -75 l 1
 244 243 l 1
 30 579 l 1
 197 579 l 1xc8
494 674 m 1xd8
 494 674 459 637 420 637 c 0xe8
 326 637 330 674 246 674 c 0xd8
 206 674 167 637 167 637 c 1
 167 747 l 1xe8
 167 747 206 784 248 784 c 0xd8
 337 784 337 747 422 747 c 0xe8
 460 747 494 784 494 784 c 1
 494 674 l 1xd8
EndSplineSet
EndChar

StartChar: uni1EF9
Encoding: 7929 7929 216
Width: 562
VWidth: 1074
Flags: W
HStem: -300 125<112.039 331.761> -75 139<238.423 377> 406 20G<33 182 378 526> 536 110<288.764 436.173> 573 110<146.934 296.911>
VStem: 33 149<121.574 426> 377 149<-133.666 -75 64 426>
LayerCount: 2
Fore
SplineSet
182 426 m 1xe6
 182 210 l 2
 182 116 229 64 317 64 c 2
 379 64 l 1
 378 426 l 1
 526 426 l 1
 526 -75 l 2
 526 -147 491 -212 439 -251 c 0
 366 -306 269 -300 225 -300 c 0
 173 -300 112 -288 112 -288 c 1
 112 -163 l 1
 112 -163 157 -175 221 -175 c 0
 285 -175 312 -166 339 -149 c 0
 357 -137 377 -114 377 -75 c 1
 258 -75 l 2
 116 -75 33 52 33 164 c 0
 33 239 33 426 33 426 c 1
 182 426 l 1xe6
454 573 m 1xee
 454 573 419 536 380 536 c 0xf6
 286 536 290 573 206 573 c 0xee
 166 573 127 536 127 536 c 1
 127 646 l 1xf6
 127 646 166 683 208 683 c 0xee
 297 683 297 646 382 646 c 0xf6
 420 646 454 683 454 683 c 1
 454 573 l 1xee
EndSplineSet
EndChar

StartChar: uni1ECC
Encoding: 7884 7884 217
Width: 703
VWidth: 1074
Flags: W
HStem: -246 122<307.34 399.23> -94 160<266.496 436.504> 426 162<266.496 436.504>
VStem: 17 153<160.969 327.918> 293 121<-231.23 -138.77> 532 155<160.969 327.918>
LayerCount: 2
Fore
SplineSet
351 426 m 0
 251 426 170 345 170 246 c 0
 170 147 251 66 351 66 c 0
 451 66 532 147 532 246 c 0
 532 345 451 426 351 426 c 0
352 588 m 0
 537 588 687 436 687 247 c 0
 687 58 537 -94 352 -94 c 0
 167 -94 17 58 17 247 c 0
 17 436 167 588 352 588 c 0
293 -185 m 0
 293 -151 319 -124 353 -124 c 0
 387 -124 414 -151 414 -185 c 0
 414 -219 387 -246 353 -246 c 0
 319 -246 293 -219 293 -185 c 0
EndSplineSet
EndChar

StartChar: uni1ECD
Encoding: 7885 7885 218
Width: 547
VWidth: 1074
Flags: W
HStem: -246 122<227.77 320.23> -84 143<208.371 344.485> 295 141<208.371 344.485>
VStem: 17 140<109.993 243.007> 213 122<-231.23 -138.77> 394 136<109.993 243.007>
LayerCount: 2
Fore
SplineSet
276 295 m 0
 210 295 157 242 157 177 c 0
 157 112 210 59 276 59 c 0
 342 59 394 112 394 177 c 0
 394 242 342 295 276 295 c 0
274 436 m 0
 416 436 530 319 530 176 c 0
 530 33 416 -84 274 -84 c 0
 132 -84 17 33 17 176 c 0
 17 319 132 436 274 436 c 0
213 -185 m 0
 213 -151 240 -124 274 -124 c 0
 308 -124 335 -151 335 -185 c 0
 335 -219 308 -246 274 -246 c 0
 240 -246 213 -219 213 -185 c 0
EndSplineSet
EndChar

StartChar: uni1ECE
Encoding: 7886 7886 219
Width: 703
VWidth: 1074
Flags: W
HStem: -94 160<266.496 436.504> 426 162<266.496 436.504> 646 21G<314 416.771> 829 71<321.02 394.162>
VStem: 17 153<160.969 327.918> 247 69<752.805 823.617> 398 75<743.583 824.378> 532 155<160.969 327.918>
LayerCount: 2
Fore
SplineSet
351 426 m 0
 251 426 170 345 170 246 c 0
 170 147 251 66 351 66 c 0
 451 66 532 147 532 246 c 0
 532 345 451 426 351 426 c 0
352 588 m 0
 537 588 687 436 687 247 c 0
 687 58 537 -94 352 -94 c 0
 167 -94 17 58 17 247 c 0
 17 436 167 588 352 588 c 0
359 900 m 0
 433 900 473 849 473 788 c 0
 473 757 459 732 457 729 c 2
 404 646 l 1
 314 646 l 1
 372 737 l 2
 380 750 398 774 398 789 c 0
 398 814 381 829 358 829 c 0
 334 829 316 813 316 789 c 0
 316 759 342 750 342 750 c 1
 307 697 l 1
 307 697 247 722 247 790 c 0
 247 858 301 900 359 900 c 0
EndSplineSet
EndChar

StartChar: uni1ED0
Encoding: 7888 7888 220
Width: 718
VWidth: 1074
Flags: W
HStem: -94 160<266.496 436.504> 426 162<266.496 436.504> 646 21G<199 318.817 383.183 503>
VStem: 17 153<160.969 327.918> 532 155<160.969 327.918>
LayerCount: 2
Fore
SplineSet
351 426 m 0
 251 426 170 345 170 246 c 0
 170 147 251 66 351 66 c 0
 451 66 532 147 532 246 c 0
 532 345 451 426 351 426 c 0
352 588 m 0
 537 588 687 436 687 247 c 0
 687 58 537 -94 352 -94 c 0
 167 -94 17 58 17 247 c 0
 17 436 167 588 352 588 c 0
351 825 m 0
 409 825 440 792 455 757 c 2
 503 646 l 1
 392 646 l 1
 351 739 l 1
 310 646 l 1
 199 646 l 1
 247 757 l 2
 262 792 293 825 351 825 c 0
508 755 m 1
 612 944 l 1
 761 944 l 1
 655 755 l 1
 508 755 l 1
EndSplineSet
EndChar

StartChar: uni1ECF
Encoding: 7887 7887 221
Width: 547
VWidth: 1074
Flags: W
HStem: -82 142<209.547 343.32> 297 141<208.371 344.485> 690 71<244.02 317.162>
VStem: 17 140<111.823 245.007> 170 69<614.726 685.078> 321 75<604.583 685.378> 394 136<111.823 245.007>
LayerCount: 2
Fore
SplineSet
276 297 m 0xfa
 210 297 157 244 157 179 c 0
 157 114 210 60 276 60 c 0
 342 60 394 114 394 179 c 0
 394 244 342 297 276 297 c 0xfa
274 438 m 0
 416 438 530 321 530 178 c 0
 530 35 416 -82 274 -82 c 0
 132 -82 17 35 17 178 c 0
 17 321 132 438 274 438 c 0
282 761 m 0
 356 761 396 710 396 649 c 0
 396 618 382 593 380 590 c 2
 328 507 l 1
 237 507 l 1
 295 598 l 2
 303 611 321 635 321 650 c 0xfc
 321 675 304 690 281 690 c 0
 257 690 239 674 239 650 c 0
 239 620 265 612 265 612 c 1
 231 559 l 1
 231 559 170 584 170 652 c 0
 170 720 224 761 282 761 c 0
EndSplineSet
EndChar

StartChar: uni1ED1
Encoding: 7889 7889 222
Width: 558
VWidth: 1074
Flags: W
HStem: -82 142<208.371 344.485> 297 140<209.547 343.32>
VStem: 17 140<111.493 244.644> 394 136<111.493 244.644>
LayerCount: 2
Fore
SplineSet
276 297 m 0
 210 297 157 243 157 178 c 0
 157 113 210 60 276 60 c 0
 342 60 394 113 394 178 c 0
 394 243 342 297 276 297 c 0
274 437 m 0
 416 437 530 321 530 178 c 0
 530 35 416 -82 274 -82 c 0
 132 -82 17 35 17 178 c 0
 17 321 132 437 274 437 c 0
423 613 m 1
 527 802 l 1
 675 802 l 1
 569 613 l 1
 423 613 l 1
272 686 m 0
 330 686 361 653 376 618 c 2
 425 507 l 1
 314 507 l 1
 272 600 l 1
 231 507 l 1
 120 507 l 1
 169 618 l 2
 184 653 214 686 272 686 c 0
EndSplineSet
EndChar

StartChar: uni1ED2
Encoding: 7890 7890 223
Width: 703
VWidth: 1074
Flags: W
HStem: -94 160<266.496 436.504> 426 162<266.496 436.504> 646 21G<199 318.817 383.968 503>
VStem: 17 153<160.969 327.918> 532 155<160.969 327.918>
LayerCount: 2
Fore
SplineSet
351 426 m 0
 251 426 170 345 170 246 c 0
 170 147 251 66 351 66 c 0
 451 66 532 147 532 246 c 0
 532 345 451 426 351 426 c 0
352 588 m 0
 537 588 687 436 687 247 c 0
 687 58 537 -94 352 -94 c 0
 167 -94 17 58 17 247 c 0
 17 436 167 588 352 588 c 0
655 755 m 1
 509 755 l 1
 402 944 l 1
 551 944 l 1
 655 755 l 1
351 825 m 0
 409 825 440 792 455 757 c 2
 503 646 l 1
 393 646 l 1
 351 739 l 1
 310 646 l 1
 199 646 l 1
 247 757 l 2
 262 792 293 825 351 825 c 0
EndSplineSet
EndChar

StartChar: uni1ED3
Encoding: 7891 7891 224
Width: 554
VWidth: 1074
Flags: W
HStem: -82 142<208.371 344.485> 297 140<209.547 343.32>
VStem: 17 140<111.493 244.644> 394 136<111.493 244.644>
LayerCount: 2
Fore
SplineSet
611 613 m 1
 464 613 l 1
 358 802 l 1
 507 802 l 1
 611 613 l 1
276 297 m 0
 210 297 157 243 157 178 c 0
 157 113 210 60 276 60 c 0
 342 60 394 113 394 178 c 0
 394 243 342 297 276 297 c 0
274 437 m 0
 416 437 530 321 530 178 c 0
 530 35 416 -82 274 -82 c 0
 132 -82 17 35 17 178 c 0
 17 321 132 437 274 437 c 0
272 686 m 0
 330 686 361 653 376 618 c 2
 425 507 l 1
 314 507 l 1
 272 600 l 1
 231 507 l 1
 120 507 l 1
 169 618 l 2
 184 653 214 686 272 686 c 0
EndSplineSet
EndChar

StartChar: Uhorn
Encoding: 431 431 225
Width: 650
VWidth: 1074
Flags: W
HStem: -91 159<226.702 345.309> 494 85<541 581.422> 626 20G<587 678>
VStem: 28 158<113.041 579> 384 157<112.244 494> 587 91<584.937 646>
LayerCount: 2
Fore
SplineSet
491 579 m 1
 521 579 l 2
 567 579 587 585 587 633 c 2
 587 646 l 1
 678 646 l 1
 678 645 678 636 678 613 c 0
 678 567 653 494 556 494 c 2
 541 494 l 1
 541 188 l 2
 541 -7 433 -91 283 -91 c 0
 133 -91 28 20 28 176 c 2
 28 579 l 1
 185 579 l 1
 186 221 l 2
 186 115 219 68 284 68 c 0
 351 68 384 111 384 222 c 2
 384 579 l 1
 491 579 l 1
EndSplineSet
EndChar

StartChar: uhorn
Encoding: 432 432 226
Width: 619
VWidth: 1074
Flags: W
HStem: -91 150<210.068 326.5> 341 85<510 542.438>
VStem: 27 148<101.651 426> 362 148<100.844 341> 551 92<431.937 493>
LayerCount: 2
Fore
SplineSet
455 426 m 1
 486 426 l 2
 532 426 551 432 551 480 c 2
 551 493 l 1
 643 493 l 1
 643 492 643 483 643 460 c 0
 643 414 618 341 521 341 c 2
 510 341 l 1
 510 172 l 2
 510 -11 408 -91 267 -91 c 0
 126 -91 27 14 27 161 c 2
 27 426 l 1
 175 426 l 1
 175 203 l 2
 175 103 207 59 268 59 c 0
 331 59 362 100 362 204 c 2
 362 426 l 1
 455 426 l 1
EndSplineSet
EndChar

StartChar: eth
Encoding: 240 240 227
Width: 584
VWidth: 1074
Flags: W
HStem: -75 131<202.897 365> 291 135<206.509 300> 445 21G<299.025 338.951> 579 138<212 292.695>
VStem: 12 138<102.701 240.87> 365 149<56 484.285>
LayerCount: 2
Fore
SplineSet
472 727 m 1
 542 648 l 1
 484 596 l 1
 508 550 514 494 514 436 c 2
 514 -75 l 1
 274 -75 l 2
 91 -75 12 36 12 182 c 0
 12 328 125 426 263 426 c 2
 300 426 l 1
 300 291 l 1
 222 291 150 260 150 172 c 0
 150 105 188 56 301 56 c 2
 365 56 l 1
 365 450 l 2
 365 463 364 475 362 486 c 1
 317 445 l 1
 246 524 l 1
 294 567 l 1
 270 576 242 579 212 579 c 1
 212 717 l 1
 302 717 367 700 412 673 c 1
 472 727 l 1
EndSplineSet
EndChar

StartChar: uni1EE8
Encoding: 7912 7912 228
Width: 661
VWidth: 1074
Flags: W
HStem: -91 159<226.702 345.309> 494 85<541 581.422> 626 20G<587 678> 646 21G<186 343.383>
VStem: 28 158<113.041 579> 384 157<112.244 494> 587 91<584.937 646>
LayerCount: 2
Fore
SplineSet
186 646 m 1xde
 290 835 l 1
 439 834 l 1
 332 646 l 1
 186 646 l 1xde
491 579 m 1
 521 579 l 2
 567 579 587 585 587 633 c 2
 587 646 l 1
 678 646 l 1xee
 678 645 678 636 678 613 c 0
 678 567 653 494 556 494 c 2
 541 494 l 1
 541 188 l 2
 541 -7 433 -91 283 -91 c 0
 133 -91 28 20 28 176 c 2
 28 579 l 1
 185 579 l 1
 186 221 l 2
 186 115 219 68 284 68 c 0
 351 68 384 111 384 222 c 2
 384 579 l 1
 491 579 l 1
EndSplineSet
EndChar

StartChar: uni1EE9
Encoding: 7913 7913 229
Width: 630
VWidth: 1074
Flags: W
HStem: -91 150<209.041 325.5> 341 85<509 544.446>
VStem: 25 149<101.651 426> 361 148<100.844 341> 550 92<431.937 493>
LayerCount: 2
Fore
SplineSet
168 507 m 1
 272 695 l 1
 421 695 l 1
 314 507 l 1
 168 507 l 1
454 426 m 1
 484 426 l 2
 530 426 550 432 550 480 c 2
 550 493 l 1
 642 493 l 1
 642 492 642 483 642 460 c 0
 642 414 616 341 519 341 c 2
 509 341 l 1
 509 172 l 2
 509 -11 407 -91 266 -91 c 0
 125 -91 25 14 25 161 c 2
 25 426 l 1
 174 426 l 1
 174 203 l 2
 174 103 206 59 267 59 c 0
 330 59 361 100 361 204 c 2
 361 426 l 1
 454 426 l 1
EndSplineSet
EndChar

StartChar: uni1EEB
Encoding: 7915 7915 230
Width: 630
VWidth: 1074
Flags: W
HStem: -91 150<209.041 325.5> 341 85<509 544.446>
VStem: 25 149<101.651 426> 361 148<100.844 341> 550 92<431.937 493>
LayerCount: 2
Fore
SplineSet
377 507 m 1
 230 507 l 1
 124 695 l 1
 273 695 l 1
 377 507 l 1
454 426 m 1
 484 426 l 2
 530 426 550 432 550 480 c 2
 550 493 l 1
 642 493 l 1
 642 492 642 483 642 460 c 0
 642 414 616 341 519 341 c 2
 509 341 l 1
 509 172 l 2
 509 -11 407 -91 266 -91 c 0
 125 -91 25 14 25 161 c 2
 25 426 l 1
 174 426 l 1
 174 203 l 2
 174 103 206 59 267 59 c 0
 330 59 361 100 361 204 c 2
 361 426 l 1
 454 426 l 1
EndSplineSet
EndChar

StartChar: uni1EEA
Encoding: 7914 7914 231
Width: 661
VWidth: 1074
Flags: W
HStem: -91 159<226.702 345.309> 494 85<541 581.422> 626 20G<587 678> 646 21G<222.723 380>
VStem: 28 158<113.041 579> 384 157<112.244 494> 587 91<584.937 646>
LayerCount: 2
Fore
SplineSet
380 646 m 1xde
 234 646 l 1
 128 834 l 1
 276 835 l 1
 380 646 l 1xde
491 579 m 1
 521 579 l 2
 567 579 587 585 587 633 c 2
 587 646 l 1
 678 646 l 1xee
 678 645 678 636 678 613 c 0
 678 567 653 494 556 494 c 2
 541 494 l 1
 541 188 l 2
 541 -7 433 -91 283 -91 c 0
 133 -91 28 20 28 176 c 2
 28 579 l 1
 185 579 l 1
 186 221 l 2
 186 115 219 68 284 68 c 0
 351 68 384 111 384 222 c 2
 384 579 l 1
 491 579 l 1
EndSplineSet
EndChar

StartChar: uni1EEC
Encoding: 7916 7916 232
Width: 661
VWidth: 1074
Flags: W
HStem: -91 159<226.702 345.309> 494 85<541 581.422> 626 20G<587 678> 646 21G<246 349.53> 829 71<253.485 326.162>
VStem: 28 158<113.041 579> 180 69<752.576 823.828> 330 75<743.583 824.378> 384 157<112.244 494> 587 91<584.937 646>
LayerCount: 2
Fore
SplineSet
291 900 m 0xdb40
 365 900 405 849 405 788 c 0
 405 757 391 732 389 729 c 2
 337 646 l 1
 246 646 l 1
 304 737 l 2
 312 750 330 774 330 789 c 0
 330 814 313 829 290 829 c 0
 266 829 249 813 249 789 c 0
 249 759 274 750 274 750 c 1
 240 697 l 1
 240 697 180 722 180 790 c 0
 180 858 233 900 291 900 c 0xdb40
491 579 m 1
 521 579 l 2
 567 579 587 585 587 633 c 2
 587 646 l 1
 678 646 l 1
 678 645 678 636 678 613 c 0
 678 567 653 494 556 494 c 2
 541 494 l 1
 541 188 l 2
 541 -7 433 -91 283 -91 c 0
 133 -91 28 20 28 176 c 2
 28 579 l 1
 185 579 l 1
 186 221 l 2
 186 115 219 68 284 68 c 0
 351 68 384 111 384 222 c 2
 384 579 l 1xecc0
 491 579 l 1
EndSplineSet
EndChar

StartChar: uni1EED
Encoding: 7917 7917 233
Width: 629
VWidth: 1074
Flags: W
HStem: -91 150<208.041 324.5> 341 85<508 543.446> 690 71<233.02 306.162>
VStem: 24 149<101.651 426> 159 69<614.726 685.078> 310 75<604.583 685.378> 360 148<100.844 341> 549 92<431.937 493>
LayerCount: 2
Fore
SplineSet
271 761 m 0xed
 345 761 385 710 385 649 c 0
 385 618 371 593 369 590 c 2
 317 507 l 1
 226 507 l 1
 284 598 l 2
 292 611 310 635 310 650 c 0
 310 675 293 690 270 690 c 0
 246 690 228 674 228 650 c 0
 228 620 254 612 254 612 c 1
 220 559 l 1
 220 559 159 584 159 652 c 0
 159 720 213 761 271 761 c 0xed
453 426 m 1
 483 426 l 2
 529 426 549 432 549 480 c 2
 549 493 l 1
 641 493 l 1
 641 492 641 483 641 460 c 0
 641 414 615 341 518 341 c 2
 508 341 l 1
 508 172 l 2
 508 -11 406 -91 265 -91 c 0
 124 -91 24 14 24 161 c 2
 24 426 l 1
 173 426 l 1
 173 203 l 2
 173 103 205 59 266 59 c 0
 329 59 360 100 360 204 c 2
 360 426 l 1xf3
 453 426 l 1
EndSplineSet
EndChar

StartChar: uni1EEE
Encoding: 7918 7918 234
Width: 661
VWidth: 1074
Flags: W
HStem: -91 159<226.702 345.309> 494 85<541 581.422> 626 20G<587 678> 637 110<289.264 436.388> 674 110<147.137 296.391>
VStem: 28 158<113.041 579> 384 157<112.244 494> 587 91<584.937 646>
LayerCount: 2
Fore
SplineSet
454 674 m 1xcf
 454 674 419 637 380 637 c 0xd7
 286 637 290 674 206 674 c 0xcf
 166 674 127 637 127 637 c 1
 127 747 l 1xd7
 127 747 167 784 209 784 c 0xcf
 298 784 298 747 383 747 c 0xd7
 421 747 454 784 454 784 c 1
 454 674 l 1xcf
491 579 m 1
 521 579 l 2
 567 579 587 585 587 633 c 2
 587 646 l 1
 678 646 l 1xe7
 678 645 678 636 678 613 c 0
 678 567 653 494 556 494 c 2
 541 494 l 1
 541 188 l 2
 541 -7 433 -91 283 -91 c 0
 133 -91 28 20 28 176 c 2
 28 579 l 1
 185 579 l 1
 186 221 l 2
 186 115 219 68 284 68 c 0
 351 68 384 111 384 222 c 2
 384 579 l 1
 491 579 l 1
EndSplineSet
EndChar

StartChar: uni1EEF
Encoding: 7919 7919 235
Width: 629
VWidth: 1074
Flags: W
HStem: -91 150<208.041 324.5> 341 85<508 543.446> 536 110<271.967 419.388> 573 110<129.934 280.161>
VStem: 24 149<101.651 426> 360 148<100.844 341> 549 92<431.937 493>
LayerCount: 2
Fore
SplineSet
437 573 m 1xde
 437 573 402 536 363 536 c 0xee
 269 536 273 573 189 573 c 0xde
 149 573 110 536 110 536 c 1
 110 646 l 1xee
 110 646 149 683 191 683 c 0xde
 280 683 281 646 366 646 c 0xee
 404 646 437 683 437 683 c 1
 437 573 l 1xde
453 426 m 1
 483 426 l 2
 529 426 549 432 549 480 c 2
 549 493 l 1
 641 493 l 1
 641 492 641 483 641 460 c 0
 641 414 615 341 518 341 c 2
 508 341 l 1
 508 172 l 2
 508 -11 406 -91 265 -91 c 0
 124 -91 24 14 24 161 c 2
 24 426 l 1
 173 426 l 1
 173 203 l 2
 173 103 205 59 266 59 c 0
 329 59 360 100 360 204 c 2
 360 426 l 1
 453 426 l 1
EndSplineSet
EndChar

StartChar: uni1EF0
Encoding: 7920 7920 236
Width: 661
VWidth: 1074
Flags: W
HStem: -246 122<234.77 326.66> -91 159<226.702 345.309> 494 85<541 581.422> 626 20G<587 678>
VStem: 28 158<113.041 579> 220 121<-231.23 -138.77> 384 157<112.244 494> 587 91<584.937 646>
LayerCount: 2
Fore
SplineSet
220 -185 m 0
 220 -151 247 -124 281 -124 c 0
 315 -124 341 -151 341 -185 c 0
 341 -219 315 -246 281 -246 c 0
 247 -246 220 -219 220 -185 c 0
491 579 m 1
 521 579 l 2
 567 579 587 585 587 633 c 2
 587 646 l 1
 678 646 l 1
 678 645 678 636 678 613 c 0
 678 567 653 494 556 494 c 2
 541 494 l 1
 541 188 l 2
 541 -7 433 -91 283 -91 c 0
 133 -91 28 20 28 176 c 2
 28 579 l 1
 185 579 l 1
 186 221 l 2
 186 115 219 68 284 68 c 0
 351 68 384 111 384 222 c 2
 384 579 l 1
 491 579 l 1
EndSplineSet
EndChar

StartChar: uni1EF1
Encoding: 7921 7921 237
Width: 629
VWidth: 1074
Flags: W
HStem: -246 122<221.77 314.23> -91 150<208.041 324.5> 341 85<508 543.446>
VStem: 24 149<101.651 426> 207 122<-231.23 -138.77> 360 148<100.844 341> 549 92<431.937 493>
LayerCount: 2
Fore
SplineSet
207 -185 m 0
 207 -151 234 -124 268 -124 c 0
 302 -124 329 -151 329 -185 c 0
 329 -219 302 -246 268 -246 c 0
 234 -246 207 -219 207 -185 c 0
453 426 m 1
 483 426 l 2
 529 426 549 432 549 480 c 2
 549 493 l 1
 641 493 l 1
 641 492 641 483 641 460 c 0
 641 414 615 341 518 341 c 2
 508 341 l 1
 508 172 l 2
 508 -11 406 -91 265 -91 c 0
 124 -91 24 14 24 161 c 2
 24 426 l 1
 173 426 l 1
 173 203 l 2
 173 103 205 59 266 59 c 0
 329 59 360 100 360 204 c 2
 360 426 l 1
 453 426 l 1
EndSplineSet
EndChar

StartChar: uni1EE4
Encoding: 7908 7908 238
Width: 583
VWidth: 1074
Flags: W
HStem: -246 122<240.77 333.23> -91 159<230.306 352.309> 559 20G<34 192 391 548>
VStem: 34 158<113.041 579> 226 122<-231.23 -138.77> 391 157<112.244 579>
LayerCount: 2
Fore
SplineSet
226 -185 m 0
 226 -151 253 -124 287 -124 c 0
 321 -124 348 -151 348 -185 c 0
 348 -219 321 -246 287 -246 c 0
 253 -246 226 -219 226 -185 c 0
548 579 m 1
 548 188 l 2
 548 -7 440 -91 290 -91 c 0
 140 -91 34 20 34 176 c 2
 34 579 l 1
 192 579 l 1
 192 221 l 2
 192 115 226 68 291 68 c 0
 358 68 391 111 391 222 c 2
 391 579 l 1
 548 579 l 1
EndSplineSet
EndChar

StartChar: uni1EE5
Encoding: 7909 7909 239
Width: 553
VWidth: 1074
Flags: W
HStem: -246 122<232.77 325.23> -91 150<218.041 334.5> 406 20G<34 183 370 518>
VStem: 34 149<101.651 426> 218 122<-231.23 -138.77> 370 148<100.844 426>
LayerCount: 2
Fore
SplineSet
218 -185 m 0
 218 -151 245 -124 279 -124 c 0
 313 -124 340 -151 340 -185 c 0
 340 -219 313 -246 279 -246 c 0
 245 -246 218 -219 218 -185 c 0
518 426 m 1
 518 172 l 2
 518 -11 416 -91 275 -91 c 0
 134 -91 34 14 34 161 c 2
 34 426 l 1
 183 426 l 1
 183 203 l 2
 183 103 215 59 276 59 c 0
 339 59 370 100 370 204 c 2
 370 426 l 1
 518 426 l 1
EndSplineSet
EndChar

StartChar: uni1EE6
Encoding: 7910 7910 240
Width: 583
VWidth: 1074
Flags: W
HStem: -91 159<230.306 352.309> 559 20G<34 192 391 548> 646 21G<253 355.771> 829 71<260.02 333.162>
VStem: 34 158<113.041 579> 186 69<752.805 823.617> 337 75<743.583 824.378> 391 157<112.244 579>
LayerCount: 2
Fore
SplineSet
298 900 m 0xf6
 372 900 412 849 412 788 c 0
 412 757 398 732 396 729 c 2
 343 646 l 1
 253 646 l 1
 311 737 l 2
 319 750 337 774 337 789 c 0
 337 814 320 829 297 829 c 0
 273 829 255 813 255 789 c 0
 255 759 281 750 281 750 c 1
 246 697 l 1
 246 697 186 722 186 790 c 0
 186 858 240 900 298 900 c 0xf6
548 579 m 1xf9
 548 188 l 2
 548 -7 440 -91 290 -91 c 0
 140 -91 34 20 34 176 c 2
 34 579 l 1
 192 579 l 1
 192 221 l 2
 192 115 226 68 291 68 c 0
 358 68 391 111 391 222 c 2
 391 579 l 1
 548 579 l 1xf9
EndSplineSet
EndChar

StartChar: uni1EE7
Encoding: 7911 7911 241
Width: 553
VWidth: 1074
Flags: W
HStem: -91 150<218.041 334.5> 406 20G<34 183 370 518> 690 71<243.485 316.162>
VStem: 34 149<101.651 426> 170 69<613.327 685.289> 320 75<603.414 685.378> 370 148<100.844 426>
LayerCount: 2
Fore
SplineSet
281 761 m 0xec
 355 761 395 710 395 649 c 0
 395 618 381 593 379 590 c 2
 327 507 l 1
 236 507 l 1
 295 598 l 2
 303 611 320 635 320 650 c 0
 320 675 303 690 280 690 c 0
 256 690 239 674 239 650 c 0
 239 620 264 612 264 612 c 1
 230 559 l 1
 230 559 170 584 170 652 c 0
 170 720 223 761 281 761 c 0xec
518 426 m 1xf2
 518 172 l 2
 518 -11 416 -91 275 -91 c 0
 134 -91 34 14 34 161 c 2
 34 426 l 1
 183 426 l 1
 183 203 l 2
 183 103 215 59 276 59 c 0
 339 59 370 100 370 204 c 2
 370 426 l 1
 518 426 l 1xf2
EndSplineSet
EndChar

StartChar: Ohorn
Encoding: 416 416 242
Width: 703
VWidth: 1074
Flags: W
HStem: -89 160<266.496 436.504> 431 162<266.496 436.83> 626 20G<542 634>
VStem: 17 153<165.969 332.918> 532 155<165.969 335.749> 542 92<585.328 646>
LayerCount: 2
Fore
SplineSet
351 431 m 0xf8
 251 431 170 350 170 251 c 0
 170 152 251 71 351 71 c 0
 451 71 532 152 532 251 c 0
 532 350 451 431 351 431 c 0xf8
448 579 m 1
 477 579 l 2
 523 579 542 585 542 633 c 2
 542 646 l 1
 634 646 l 1
 634 645 634 636 634 613 c 0xf4
 634 579 620 530 574 507 c 1
 643 444 687 354 687 252 c 0
 687 63 537 -89 352 -89 c 0
 167 -89 17 63 17 252 c 0
 17 441 167 593 352 593 c 0
 386 593 417 588 448 579 c 1
EndSplineSet
EndChar

StartChar: ohorn
Encoding: 417 417 243
Width: 550
VWidth: 1074
Flags: W
HStem: -83 143<208.371 344.485> 296 141<208.371 344.754>
VStem: 17 140<110.993 244.007> 394 136<110.993 246.216> 442 91<432.517 493>
LayerCount: 2
Fore
SplineSet
276 296 m 0xf0
 210 296 157 243 157 178 c 0
 157 113 210 60 276 60 c 0
 342 60 394 113 394 178 c 0
 394 243 342 296 276 296 c 0xf0
347 426 m 1
 376 426 l 2
 422 426 442 432 442 480 c 2
 442 493 l 1
 533 493 l 1
 533 492 533 483 533 460 c 0xe8
 533 424 518 371 465 350 c 1
 506 304 530 244 530 177 c 0
 530 34 416 -83 274 -83 c 0
 132 -83 17 34 17 177 c 0
 17 320 132 437 274 437 c 0
 299 437 324 433 347 426 c 1
EndSplineSet
EndChar

StartChar: uni1EE2
Encoding: 7906 7906 244
Width: 703
VWidth: 1074
Flags: W
HStem: -246 122<309.34 401.23> -89 160<266.496 436.504> 431 162<266.496 436.83> 626 20G<542 634>
VStem: 17 153<165.969 332.918> 295 121<-231.23 -138.77> 532 155<165.969 335.749> 542 92<585.328 646>
LayerCount: 2
Fore
SplineSet
351 431 m 0xfe
 251 431 170 350 170 251 c 0
 170 152 251 71 351 71 c 0
 451 71 532 152 532 251 c 0
 532 350 451 431 351 431 c 0xfe
295 -185 m 0
 295 -151 321 -124 355 -124 c 0
 389 -124 416 -151 416 -185 c 0
 416 -219 389 -246 355 -246 c 0
 321 -246 295 -219 295 -185 c 0
574 507 m 1
 643 444 687 354 687 252 c 0xfe
 687 63 537 -89 352 -89 c 0
 167 -89 17 63 17 252 c 0
 17 441 167 593 352 593 c 0
 386 593 417 588 448 579 c 1
 477 579 l 2
 523 579 542 585 542 633 c 2
 542 646 l 1
 634 646 l 1
 634 645 634 636 634 613 c 0xfd
 634 579 620 530 574 507 c 1
EndSplineSet
EndChar

StartChar: uni1EE3
Encoding: 7907 7907 245
Width: 550
VWidth: 1074
Flags: W
HStem: -246 122<232.77 324.66> -83 143<208.371 344.485> 296 141<208.371 344.754>
VStem: 17 140<110.993 244.007> 218 121<-231.23 -138.77> 394 136<110.993 246.216> 442 91<432.517 493>
LayerCount: 2
Fore
SplineSet
218 -185 m 0xf8
 218 -151 245 -124 279 -124 c 0
 313 -124 339 -151 339 -185 c 0
 339 -219 313 -246 279 -246 c 0
 245 -246 218 -219 218 -185 c 0xf8
276 296 m 0
 210 296 157 243 157 178 c 0
 157 113 210 60 276 60 c 0
 342 60 394 113 394 178 c 0xfc
 394 243 342 296 276 296 c 0
347 426 m 1
 376 426 l 2
 422 426 442 432 442 480 c 2
 442 493 l 1
 533 493 l 1
 533 492 533 483 533 460 c 0xfa
 533 424 518 371 465 350 c 1
 506 304 530 244 530 177 c 0
 530 34 416 -83 274 -83 c 0
 132 -83 17 34 17 177 c 0
 17 320 132 437 274 437 c 0
 299 437 324 433 347 426 c 1
EndSplineSet
EndChar

StartChar: uni1ED4
Encoding: 7892 7892 246
Width: 703
VWidth: 1074
Flags: W
HStem: -94 160<266.496 436.504> 426 162<266.496 436.504> 646 21G<199 318.817 383.183 503> 938 71<515.923 587.16>
VStem: 17 153<160.969 327.918> 442 69<862.726 933.289> 532 155<160.969 327.918> 592 75<851.414 933.378>
LayerCount: 2
Fore
SplineSet
351 426 m 0xfe
 251 426 170 345 170 246 c 0
 170 147 251 66 351 66 c 0
 451 66 532 147 532 246 c 0
 532 345 451 426 351 426 c 0xfe
352 588 m 0
 537 588 687 436 687 247 c 0
 687 58 537 -94 352 -94 c 0
 167 -94 17 58 17 247 c 0
 17 436 167 588 352 588 c 0
554 1009 m 0
 628 1009 667 958 667 897 c 0
 667 866 654 841 652 838 c 2
 599 755 l 1
 508 755 l 1
 567 846 l 2
 575 859 592 883 592 898 c 0xfd
 592 923 575 938 552 938 c 0
 528 938 511 922 511 898 c 0
 511 868 537 860 537 860 c 1
 502 807 l 1
 502 807 442 832 442 900 c 0
 442 968 496 1009 554 1009 c 0
351 825 m 0
 409 825 440 792 455 757 c 2
 503 646 l 1
 392 646 l 1
 351 739 l 1
 310 646 l 1
 199 646 l 1
 247 757 l 2
 262 792 293 825 351 825 c 0
EndSplineSet
EndChar

StartChar: uni1ED5
Encoding: 7893 7893 247
Width: 553
VWidth: 1074
Flags: W
HStem: -82 142<208.371 344.485> 297 140<209.547 343.32> 796 72<444.02 517.162>
VStem: 17 140<111.493 244.644> 370 69<720.726 791.117> 394 136<111.493 244.644> 521 75<710.583 791.431>
LayerCount: 2
Fore
SplineSet
482 868 m 0xfa
 556 868 596 816 596 755 c 0
 596 724 582 699 580 696 c 2
 528 613 l 1
 437 613 l 1
 495 704 l 2
 503 717 521 741 521 756 c 0
 521 781 504 796 481 796 c 0
 457 796 439 780 439 756 c 0
 439 726 465 718 465 718 c 1
 431 665 l 1
 431 665 370 690 370 758 c 0
 370 826 424 868 482 868 c 0xfa
276 297 m 0
 210 297 157 243 157 178 c 0
 157 113 210 60 276 60 c 0
 342 60 394 113 394 178 c 0xf4
 394 243 342 297 276 297 c 0
274 437 m 0
 416 437 530 321 530 178 c 0
 530 35 416 -82 274 -82 c 0
 132 -82 17 35 17 178 c 0
 17 321 132 437 274 437 c 0
272 686 m 0
 330 686 361 653 376 618 c 2
 425 507 l 1
 314 507 l 1
 272 600 l 1
 231 507 l 1
 120 507 l 1
 169 618 l 2
 184 653 214 686 272 686 c 0
EndSplineSet
EndChar

StartChar: uni1EE0
Encoding: 7904 7904 248
Width: 703
VWidth: 1074
Flags: W
HStem: -89 160<266.496 436.504> 431 162<266.496 436.83> 626 20G<542 634> 637 110<345.764 493.173> 674 110<203.934 353.911>
VStem: 17 153<165.969 332.918> 532 155<165.969 335.749> 542 92<585.328 646>
LayerCount: 2
Fore
SplineSet
351 431 m 0xc6
 251 431 170 350 170 251 c 0
 170 152 251 71 351 71 c 0
 451 71 532 152 532 251 c 0
 532 350 451 431 351 431 c 0xc6
511 674 m 1xcc
 511 674 476 637 437 637 c 0xd4
 343 637 347 674 263 674 c 0xcc
 223 674 184 637 184 637 c 1
 184 747 l 1xd4
 184 747 223 784 265 784 c 0xcc
 354 784 354 747 439 747 c 0xd4
 477 747 511 784 511 784 c 1
 511 674 l 1xcc
574 507 m 1
 643 444 687 354 687 252 c 0xe6
 687 63 537 -89 352 -89 c 0
 167 -89 17 63 17 252 c 0
 17 441 167 593 352 593 c 0
 386 593 417 588 448 579 c 1
 477 579 l 2
 523 579 542 585 542 633 c 2
 542 646 l 1
 634 646 l 1
 634 645 634 636 634 613 c 0xe5
 634 579 620 530 574 507 c 1
EndSplineSet
EndChar

StartChar: uni1EE1
Encoding: 7905 7905 249
Width: 550
VWidth: 1074
Flags: W
HStem: -83 143<208.371 344.485> 296 141<208.371 344.754> 536 110<272.264 419.388> 573 110<130.137 279.391>
VStem: 17 140<110.993 244.007> 394 136<110.993 246.216> 442 91<432.517 493>
LayerCount: 2
Fore
SplineSet
437 573 m 1xd8
 437 573 402 536 363 536 c 0xe8
 269 536 273 573 189 573 c 0xd8
 149 573 110 536 110 536 c 1
 110 646 l 1xe8
 110 646 150 683 192 683 c 0xd8
 281 683 281 646 366 646 c 0xe8
 404 646 437 683 437 683 c 1
 437 573 l 1xd8
276 296 m 0
 210 296 157 243 157 178 c 0
 157 113 210 60 276 60 c 0
 342 60 394 113 394 178 c 0xcc
 394 243 342 296 276 296 c 0
347 426 m 1
 376 426 l 2
 422 426 442 432 442 480 c 2
 442 493 l 1
 533 493 l 1
 533 492 533 483 533 460 c 0xca
 533 424 518 371 465 350 c 1
 506 304 530 244 530 177 c 0
 530 34 416 -83 274 -83 c 0
 132 -83 17 34 17 177 c 0
 17 320 132 437 274 437 c 0
 299 437 324 433 347 426 c 1
EndSplineSet
EndChar

StartChar: uni1ED6
Encoding: 7894 7894 250
Width: 703
VWidth: 1074
Flags: W
HStem: -94 160<266.496 436.504> 426 162<266.496 436.504> 646 21G<200 319.817 384.968 505> 827 110<426.514 573.388> 864 110<284.649 434.615>
VStem: 17 153<160.969 327.918> 532 155<160.969 327.918>
LayerCount: 2
Fore
SplineSet
351 426 m 0xe6
 251 426 170 345 170 246 c 0
 170 147 251 66 351 66 c 0
 451 66 532 147 532 246 c 0
 532 345 451 426 351 426 c 0xe6
352 588 m 0
 537 588 687 436 687 247 c 0
 687 58 537 -94 352 -94 c 0
 167 -94 17 58 17 247 c 0
 17 436 167 588 352 588 c 0
591 864 m 1xee
 591 864 556 827 517 827 c 0xf6
 423 827 428 864 344 864 c 0xee
 304 864 264 827 264 827 c 1
 265 937 l 1xf6
 265 937 304 974 346 974 c 0xee
 435 974 435 937 520 937 c 0xf6
 558 937 591 974 591 974 c 1
 591 864 l 1xee
352 825 m 0
 410 825 441 792 456 757 c 2
 505 646 l 1
 394 646 l 1
 352 739 l 1
 311 646 l 1
 200 646 l 1
 249 757 l 2
 264 792 294 825 352 825 c 0
EndSplineSet
EndChar

StartChar: uni1ED7
Encoding: 7895 7895 251
Width: 547
VWidth: 1074
Flags: W
HStem: -82 142<208.371 344.485> 297 140<209.547 343.32> 692 110<347.514 494.388> 729 110<205.352 355.615>
VStem: 17 140<111.493 244.644> 394 136<111.493 244.644>
LayerCount: 2
Fore
SplineSet
512 729 m 1xdc
 512 729 477 692 438 692 c 0xec
 344 692 349 729 265 729 c 0xdc
 225 729 185 692 185 692 c 1
 185 802 l 1xec
 185 802 225 839 267 839 c 0xdc
 356 839 356 802 441 802 c 0xec
 479 802 512 839 512 839 c 1
 512 729 l 1xdc
276 297 m 0
 210 297 157 243 157 178 c 0
 157 113 210 60 276 60 c 0
 342 60 394 113 394 178 c 0
 394 243 342 297 276 297 c 0
274 437 m 0
 416 437 530 321 530 178 c 0
 530 35 416 -82 274 -82 c 0
 132 -82 17 35 17 178 c 0
 17 321 132 437 274 437 c 0
272 686 m 0
 330 686 361 653 376 618 c 2
 425 507 l 1
 314 507 l 1
 272 600 l 1
 231 507 l 1
 120 507 l 1
 169 618 l 2
 184 653 214 686 272 686 c 0
EndSplineSet
EndChar

StartChar: uni1ED8
Encoding: 7896 7896 252
Width: 703
VWidth: 1074
Flags: W
HStem: -247 123<306.75 399.75> -94 160<266.496 436.504> 426 162<266.496 436.504> 646 21G<199 318.817 383.183 503>
VStem: 17 153<160.969 327.918> 291 124<-231.372 -139.738> 532 155<160.969 327.918>
LayerCount: 2
Fore
SplineSet
351 426 m 0
 251 426 170 345 170 246 c 0
 170 147 251 66 351 66 c 0
 451 66 532 147 532 246 c 0
 532 345 451 426 351 426 c 0
352 588 m 0
 537 588 687 436 687 247 c 0
 687 58 537 -94 352 -94 c 0
 167 -94 17 58 17 247 c 0
 17 436 167 588 352 588 c 0
351 824 m 0
 409 824 440 792 455 757 c 2
 503 646 l 1
 392 646 l 1
 351 739 l 1
 310 646 l 1
 199 646 l 1
 247 757 l 2
 262 792 293 824 351 824 c 0
362 -246 m 0
 359 -246 355 -247 352 -247 c 0
 318 -247 291 -220 291 -186 c 0
 291 -155 315 -129 345 -125 c 0
 348 -125 351 -124 354 -124 c 0
 388 -124 415 -151 415 -185 c 0
 415 -216 392 -242 362 -246 c 0
EndSplineSet
EndChar

StartChar: uni1ED9
Encoding: 7897 7897 253
Width: 547
VWidth: 1074
Flags: W
HStem: -244 121<226.77 319.23> -84 143<208.371 344.485> 295 141<208.371 344.485>
VStem: 17 140<109.993 243.007> 212 122<-229.23 -137.34> 394 136<109.993 243.007>
LayerCount: 2
Fore
SplineSet
212 -183 m 0
 212 -149 239 -123 273 -123 c 0
 307 -123 334 -149 334 -183 c 0
 334 -217 307 -244 273 -244 c 0
 239 -244 212 -217 212 -183 c 0
270 686 m 0
 328 686 359 653 374 618 c 2
 422 507 l 1
 311 507 l 1
 270 600 l 1
 229 507 l 1
 118 507 l 1
 166 618 l 2
 181 653 212 686 270 686 c 0
276 295 m 0
 210 295 157 242 157 177 c 0
 157 112 210 59 276 59 c 0
 342 59 394 112 394 177 c 0
 394 242 342 295 276 295 c 0
274 436 m 0
 416 436 530 319 530 176 c 0
 530 33 416 -84 274 -84 c 0
 132 -84 17 33 17 176 c 0
 17 319 132 436 274 436 c 0
EndSplineSet
EndChar

StartChar: uni1EDA
Encoding: 7898 7898 254
Width: 703
VWidth: 1074
Flags: W
HStem: -89 160<266.496 436.504> 431 162<266.496 436.83> 626 20G<542 634> 647 21G<284 441.383>
VStem: 17 153<165.969 332.918> 532 155<165.969 335.749> 542 92<585.328 646>
LayerCount: 2
Fore
SplineSet
351 431 m 0xfc
 251 431 170 350 170 251 c 0
 170 152 251 71 351 71 c 0
 451 71 532 152 532 251 c 0
 532 350 451 431 351 431 c 0xfc
284 647 m 1
 388 835 l 1
 537 835 l 1
 430 647 l 1
 284 647 l 1
574 507 m 1
 643 444 687 354 687 252 c 0xfc
 687 63 537 -89 352 -89 c 0
 167 -89 17 63 17 252 c 0
 17 441 167 593 352 593 c 0
 386 593 417 588 448 579 c 1
 477 579 l 2
 523 579 542 585 542 633 c 2
 542 646 l 1
 634 646 l 1
 634 645 634 636 634 613 c 0xfa
 634 579 620 530 574 507 c 1
EndSplineSet
EndChar

StartChar: uni1EDB
Encoding: 7899 7899 255
Width: 550
VWidth: 1074
Flags: W
HStem: -83 143<208.371 344.485> 296 141<208.371 344.754>
VStem: 17 140<110.993 244.007> 394 136<110.993 246.216> 442 91<432.517 493>
LayerCount: 2
Fore
SplineSet
197 507 m 1xe0
 301 696 l 1
 450 696 l 1
 343 507 l 1
 197 507 l 1xe0
276 296 m 0
 210 296 157 243 157 178 c 0
 157 113 210 60 276 60 c 0
 342 60 394 113 394 178 c 0xf0
 394 243 342 296 276 296 c 0
347 426 m 1
 376 426 l 2
 422 426 442 432 442 480 c 2
 442 493 l 1
 533 493 l 1
 533 492 533 483 533 460 c 0xe8
 533 424 518 371 465 350 c 1
 506 304 530 244 530 177 c 0
 530 34 416 -83 274 -83 c 0
 132 -83 17 34 17 177 c 0
 17 320 132 437 274 437 c 0
 299 437 324 433 347 426 c 1
EndSplineSet
EndChar

StartChar: uni1EDC
Encoding: 7900 7900 256
Width: 703
VWidth: 1074
Flags: W
HStem: -89 160<266.496 436.504> 431 162<266.496 436.83> 626 20G<542 634> 647 21G<290.723 449>
VStem: 17 153<165.969 332.918> 532 155<165.969 335.749> 542 92<585.328 646>
LayerCount: 2
Fore
SplineSet
351 431 m 0xfc
 251 431 170 350 170 251 c 0
 170 152 251 71 351 71 c 0
 451 71 532 152 532 251 c 0
 532 350 451 431 351 431 c 0xfc
449 647 m 1
 302 647 l 1
 196 835 l 1
 345 835 l 1
 449 647 l 1
574 507 m 1
 643 444 687 354 687 252 c 0xfc
 687 63 537 -89 352 -89 c 0
 167 -89 17 63 17 252 c 0
 17 441 167 593 352 593 c 0
 386 593 417 588 448 579 c 1
 477 579 l 2
 523 579 542 585 542 633 c 2
 542 646 l 1
 634 646 l 1
 634 645 634 636 634 613 c 0xfa
 634 579 620 530 574 507 c 1
EndSplineSet
EndChar

StartChar: uni1EDD
Encoding: 7901 7901 257
Width: 550
VWidth: 1074
Flags: W
HStem: -83 143<208.371 344.485> 296 141<208.371 344.754>
VStem: 17 140<110.993 244.007> 394 136<110.993 246.216> 442 91<432.517 493>
LayerCount: 2
Fore
SplineSet
367 507 m 1xe0
 220 507 l 1
 114 696 l 1
 263 696 l 1
 367 507 l 1xe0
276 296 m 0
 210 296 157 243 157 178 c 0
 157 113 210 60 276 60 c 0
 342 60 394 113 394 178 c 0xf0
 394 243 342 296 276 296 c 0
347 426 m 1
 376 426 l 2
 422 426 442 432 442 480 c 2
 442 493 l 1
 533 493 l 1
 533 492 533 483 533 460 c 0xe8
 533 424 518 371 465 350 c 1
 506 304 530 244 530 177 c 0
 530 34 416 -83 274 -83 c 0
 132 -83 17 34 17 177 c 0
 17 320 132 437 274 437 c 0
 299 437 324 433 347 426 c 1
EndSplineSet
EndChar

StartChar: uni1EDE
Encoding: 7902 7902 258
Width: 703
VWidth: 1074
Flags: W
HStem: -89 160<266.496 436.504> 431 162<266.496 436.83> 626 20G<542 634> 646 21G<305 408.53> 829 71<312.923 384.16>
VStem: 17 153<165.969 332.918> 239 69<752.805 823.828> 389 75<742.414 824.378> 532 155<165.969 335.749> 542 92<585.328 646>
LayerCount: 2
Fore
SplineSet
351 431 m 0xcf80
 251 431 170 350 170 251 c 0
 170 152 251 71 351 71 c 0
 451 71 532 152 532 251 c 0
 532 350 451 431 351 431 c 0xcf80
351 900 m 0
 425 900 464 849 464 788 c 0
 464 757 450 732 448 729 c 2
 396 646 l 1
 305 646 l 1xdf
 364 737 l 2
 372 750 389 774 389 789 c 0
 389 814 372 829 349 829 c 0
 325 829 308 813 308 789 c 0
 308 759 334 750 334 750 c 1
 299 697 l 1
 299 697 239 722 239 790 c 0
 239 858 293 900 351 900 c 0
574 507 m 1
 643 444 687 354 687 252 c 0xef80
 687 63 537 -89 352 -89 c 0
 167 -89 17 63 17 252 c 0
 17 441 167 593 352 593 c 0
 386 593 417 588 448 579 c 1
 477 579 l 2
 523 579 542 585 542 633 c 2
 542 646 l 1
 634 646 l 1
 634 645 634 636 634 613 c 0xef40
 634 579 620 530 574 507 c 1
EndSplineSet
EndChar

StartChar: uni1EDF
Encoding: 7903 7903 259
Width: 550
VWidth: 1074
Flags: W
HStem: -82 142<209.547 343.32> 297 141<208.371 344.754> 690 71<244.02 317.162>
VStem: 17 140<111.823 245.007> 170 69<614.726 685.078> 321 75<604.583 685.378> 394 136<111.823 247.216> 442 91<433.517 494>
LayerCount: 2
Fore
SplineSet
276 297 m 0xfa
 210 297 157 244 157 179 c 0
 157 114 210 60 276 60 c 0
 342 60 394 114 394 179 c 0
 394 244 342 297 276 297 c 0xfa
282 761 m 0
 356 761 396 710 396 649 c 0
 396 618 382 593 380 590 c 2
 328 507 l 1
 237 507 l 1
 295 598 l 2
 303 611 321 635 321 650 c 0xfc
 321 675 304 690 281 690 c 0
 257 690 239 674 239 650 c 0
 239 620 265 612 265 612 c 1
 231 559 l 1
 231 559 170 584 170 652 c 0
 170 720 224 761 282 761 c 0
347 427 m 1
 376 427 l 2
 422 427 442 433 442 481 c 2
 442 494 l 1
 533 494 l 1
 533 493 533 484 533 461 c 0xf9
 533 425 518 372 465 351 c 1
 506 305 530 245 530 178 c 0xfa
 530 35 416 -82 274 -82 c 0
 132 -82 17 35 17 178 c 0
 17 321 132 438 274 438 c 0
 299 438 324 434 347 427 c 1
EndSplineSet
EndChar

StartChar: uni0400
Encoding: 1024 1024 260
Width: 445
VWidth: 1074
Flags: W
HStem: -75 153<186 414> 171 153<186 363> 426 153<186 414> 646 21G<170.723 329>
VStem: 33 381<-75 78 426 579> 33 153<78 171 324 426>
LayerCount: 2
Fore
SplineSet
329 646 m 1xf0
 182 646 l 1
 76 834 l 1
 224 835 l 1
 329 646 l 1xf0
33 579 m 1xf8
 414 579 l 1
 414 426 l 1xf8
 186 426 l 1
 186 324 l 1
 363 324 l 1
 363 171 l 1
 186 171 l 1
 186 78 l 1xf4
 414 78 l 1
 414 -75 l 1
 33 -75 l 1
 33 579 l 1xf8
EndSplineSet
EndChar

StartChar: uni0401
Encoding: 1025 1025 261
Width: 491
VWidth: 1074
Flags: W
HStem: -75 153<206 434> 172 153<206 382> 426 153<206 434> 636 142<42.875 143.125 346.875 447.125>
VStem: 22 142<656.875 757.125> 53 381<-75 78 426 579> 53 153<78 172 325 426> 326 142<656.375 757.125>
LayerCount: 2
Fore
SplineSet
53 579 m 1xf4
 434 579 l 1
 434 426 l 1xf4
 206 426 l 1
 206 325 l 1
 382 325 l 1
 382 172 l 1
 206 172 l 1
 206 78 l 1xf2
 434 78 l 1
 434 -75 l 1
 53 -75 l 1
 53 579 l 1xf4
397 778 m 0
 436 778 468 746 468 707 c 0
 468 668 436 635 397 635 c 0
 358 635 326 668 326 707 c 0xf1
 326 746 358 778 397 778 c 0
93 778 m 0
 132 778 164 746 164 707 c 0
 164 668 132 636 93 636 c 0
 54 636 22 668 22 707 c 0xf8
 22 746 54 778 93 778 c 0
EndSplineSet
EndChar

StartChar: uni0410
Encoding: 1040 1040 262
Width: 646
VWidth: 1074
Flags: W
HStem: -75 21G<22 184.849 461.074 624> 60 111<310 394> 571 20G<276.5 367.5>
LayerCount: 2
Fore
SplineSet
322 591 m 0
 413 591 441 498 441 498 c 1
 624 -75 l 1
 467 -75 l 1
 427 60 l 1
 279 60 l 1
 310 171 l 1
 394 171 l 1
 322 414 l 1
 179 -75 l 1
 22 -75 l 1
 202 498 l 1
 202 498 231 591 322 591 c 0
EndSplineSet
EndChar

StartChar: uni0412
Encoding: 1042 1042 263
Width: 563
VWidth: 1074
Flags: W
HStem: -75 116<251 365.423> 196 110<251 340.356> 426 153<186 341.259>
VStem: 33 153<-75 426> 361 157<326.598 451.508> 393 144<69.2027 164.277>
LayerCount: 2
Fore
SplineSet
33 579 m 1xf8
 251 579 l 2
 447 579 518 494 518 406 c 0xf8
 518 361 508 295 443 258 c 1
 502 231 537 183 537 107 c 0
 537 -29 410 -75 342 -75 c 2
 251 -75 l 1
 251 41 l 1
 274 41 l 2
 344 41 393 63 393 115 c 0xf4
 393 183 314 196 251 196 c 1
 251 306 l 1
 314 306 361 323 361 370 c 0
 361 426 285 426 235 426 c 0
 225 426 186 426 186 426 c 1
 186 -75 l 1
 33 -75 l 1
 33 579 l 1xf8
EndSplineSet
EndChar

StartChar: uni0405
Encoding: 1029 1029 264
Width: 501
VWidth: 1074
Flags: W
HStem: -75 152<42 264.309> 426 153<226.154 450>
VStem: 25 176<326.779 404.518> 282 192<92.2745 161.773>
LayerCount: 2
Fore
SplineSet
450 426 m 1
 299 426 l 2
 253 426 201 410 201 363 c 0
 201 313 263 315 329 306 c 0
 423 293 474 216 474 115 c 0
 474 -4 395 -75 251 -75 c 2
 42 -75 l 1
 42 77 l 1
 193 77 l 2
 213 77 282 79 282 128 c 0
 282 176 214 177 162 187 c 0
 105 198 25 242 25 358 c 0
 25 482 65 579 295 579 c 2
 450 579 l 1
 450 426 l 1
EndSplineSet
EndChar

StartChar: uni0406
Encoding: 1030 1030 265
Width: 221
VWidth: 1074
Flags: W
HStem: -75 21G<33 186> 559 20G<33 186>
VStem: 33 153<-75 579>
LayerCount: 2
Fore
SplineSet
33 -75 m 1
 33 579 l 1
 186 579 l 1
 186 -75 l 1
 33 -75 l 1
EndSplineSet
EndChar

StartChar: uni0407
Encoding: 1031 1031 266
Width: 491
VWidth: 1074
Flags: W
HStem: -75 21G<169 321> 559 20G<169 321> 636 142<42.875 143.125 346.875 447.125>
VStem: 22 142<656.875 757.125> 169 152<-75 579> 326 142<656.375 757.125>
CounterMasks: 1 1c
LayerCount: 2
Fore
SplineSet
169 -75 m 1
 169 579 l 1
 321 579 l 1
 321 -75 l 1
 169 -75 l 1
397 778 m 0
 436 778 468 746 468 707 c 0
 468 668 436 635 397 635 c 0
 358 635 326 668 326 707 c 0
 326 746 358 778 397 778 c 0
93 778 m 0
 132 778 164 746 164 707 c 0
 164 668 132 636 93 636 c 0
 54 636 22 668 22 707 c 0
 22 746 54 778 93 778 c 0
EndSplineSet
EndChar

StartChar: uni0408
Encoding: 1032 1032 267
Width: 372
VWidth: 1074
Flags: W
HStem: -75 140<28 129.539> 426 153<33 187>
VStem: 187 152<121.603 426>
LayerCount: 2
Fore
SplineSet
33 579 m 1
 135 579 237 579 339 579 c 1
 339 205 l 2
 339 50 278 -75 28 -75 c 1
 28 65 l 1
 116 65 188 93 187 201 c 2
 187 426 l 1
 33 426 l 1
 33 579 l 1
EndSplineSet
EndChar

StartChar: uni0415
Encoding: 1045 1045 268
Width: 445
VWidth: 1074
Flags: W
HStem: -75 153<186 414> 172 153<186 363> 426 153<186 414>
VStem: 33 381<-75 78 426 579> 33 153<78 172 325 426>
LayerCount: 2
Fore
SplineSet
33 579 m 1xf0
 414 579 l 1
 414 426 l 1xf0
 186 426 l 1
 186 325 l 1
 363 325 l 1
 363 172 l 1
 186 172 l 1
 186 78 l 1xe8
 414 78 l 1
 414 -75 l 1
 33 -75 l 1
 33 579 l 1xf0
EndSplineSet
EndChar

StartChar: uni041C
Encoding: 1052 1052 269
Width: 863
VWidth: 1074
Flags: W
HStem: -75 21G<33 186.161 355 508 676.946 830> 441 151<189 327.755 535.006 648.048>
VStem: 33 156<-75 441> 355 153<-75 412.161> 677 153<-75 405.59>
LayerCount: 2
Fore
SplineSet
265 592 m 0
 332 592 391 579 431 510 c 1
 471 579 531 592 598 592 c 0
 739 592 830 487 830 340 c 2
 830 -75 l 1
 677 -75 l 1
 676 298 l 2
 676 398 654 441 593 441 c 0
 530 441 508 401 508 297 c 2
 508 -75 l 1
 355 -75 l 1
 355 297 l 2
 355 401 333 441 270 441 c 0
 235 441 189 441 189 441 c 1
 189 298 l 1
 186 -75 l 1
 33 -75 l 1
 33 591 l 1
 33 591 165 592 265 592 c 0
EndSplineSet
EndChar

StartChar: uni041D
Encoding: 1053 1053 270
Width: 550
VWidth: 1074
Flags: W
HStem: -75 22G<33 186 362 515> 170 153<186 362> 559 20G<33 186 362 515>
VStem: 33 153<-75 170 323 579> 362 153<-74 170 323 579>
LayerCount: 2
Fore
SplineSet
362 579 m 1
 515 579 l 1
 515 -74 l 1
 362 -74 l 1
 362 170 l 1
 186 170 l 1
 186 -75 l 1
 33 -75 l 1
 33 579 l 1
 186 579 l 1
 186 323 l 1
 362 323 l 1
 362 579 l 1
EndSplineSet
EndChar

StartChar: uni041E
Encoding: 1054 1054 271
Width: 723
VWidth: 1074
Flags: W
HStem: -89 160<274.496 444.504> 431 162<274.496 444.504>
VStem: 25 153<165.969 332.918> 540 155<165.969 332.918>
LayerCount: 2
Fore
SplineSet
359 431 m 0
 259 431 178 350 178 251 c 0
 178 152 259 71 359 71 c 0
 459 71 540 152 540 251 c 0
 540 350 459 431 359 431 c 0
360 593 m 0
 545 593 695 441 695 252 c 0
 695 63 545 -89 360 -89 c 0
 175 -89 25 63 25 252 c 0
 25 441 175 593 360 593 c 0
EndSplineSet
EndChar

StartChar: uni0420
Encoding: 1056 1056 272
Width: 588
VWidth: 1074
Flags: W
HStem: -75 21G<33 186> 80 140<251 348.424> 426 153<186 365.137>
VStem: 33 153<-75 426> 401 159<267.477 392.172>
LayerCount: 2
Fore
SplineSet
33 579 m 1
 274 579 l 2
 469 579 560 489 560 327 c 0
 560 165 435 80 288 80 c 2
 251 80 l 1
 251 220 l 1
 329 220 401 245 401 332 c 0
 401 408 343 426 250 426 c 2
 186 426 l 1
 186 -75 l 1
 33 -75 l 1
 33 579 l 1
EndSplineSet
EndChar

StartChar: uni0421
Encoding: 1057 1057 273
Width: 487
VWidth: 1074
Flags: W
HStem: -75 149<269.946 457> 426 153<286.734 457>
VStem: 26 169<147.871 338.212>
LayerCount: 2
Fore
SplineSet
457 579 m 1
 457 426 l 1
 373 426 l 2
 235 426 195 323 195 242 c 0
 195 167 216 74 384 74 c 0
 386 74 457 74 457 74 c 1
 457 -75 l 1
 311 -75 l 2
 127 -75 26 52 26 242 c 0
 26 394 85 579 358 579 c 2
 457 579 l 1
EndSplineSet
EndChar

StartChar: uni0422
Encoding: 1058 1058 274
Width: 540
VWidth: 1074
Flags: W
HStem: -75 21G<190 343> 426 153<24 190 343 513>
VStem: 190 153<-75 426>
LayerCount: 2
Fore
SplineSet
24 579 m 1
 513 579 l 1
 513 426 l 1
 343 426 l 1
 343 -75 l 1
 190 -75 l 1
 190 426 l 1
 24 426 l 1
 24 579 l 1
EndSplineSet
EndChar

StartChar: uni0425
Encoding: 1061 1061 275
Width: 626
VWidth: 1074
Flags: W
HStem: -74 21G<22 201.039 424.058 603> 559 20G<22 201.039 424.058 603>
LayerCount: 2
Fore
SplineSet
189 579 m 1
 313 373 l 1
 436 579 l 1
 603 579 l 1
 396 252 l 1
 603 -74 l 1
 436 -74 l 1
 313 132 l 1
 189 -74 l 1
 22 -74 l 1
 229 252 l 1
 22 579 l 1
 189 579 l 1
EndSplineSet
EndChar

StartChar: uni0435
Encoding: 1077 1077 276
Width: 552
VWidth: 1074
Flags: W
HStem: -83 129<222.03 425.967> 119 88<241 383> 296 141<207.433 350.356>
VStem: 26 134<100.736 246.434>
LayerCount: 2
Fore
SplineSet
522 120 m 1
 455 120 241 119 241 119 c 1
 241 207 l 1
 383 207 l 1
 386 248 352 296 277 296 c 0
 230 296 160 268 160 170 c 0
 160 76 243 46 313 46 c 0
 386 46 426 53 426 53 c 1
 426 -75 l 1
 426 -75 375 -83 315 -83 c 0
 103 -83 26 48 26 171 c 0
 26 321 121 437 275 437 c 0
 412 437 542 367 522 120 c 1
EndSplineSet
EndChar

StartChar: uni0430
Encoding: 1072 1072 277
Width: 565
VWidth: 1074
Flags: W
HStem: -75 135<222.509 316> 295 131<219.844 381>
VStem: 28 138<110.13 248.299> 381 149<-75 295>
LayerCount: 2
Fore
SplineSet
530 426 m 1
 530 -75 l 1
 381 -75 l 1
 381 295 l 1
 317 295 l 2
 204 295 166 246 166 179 c 0
 166 91 238 60 316 60 c 1
 316 -75 l 1
 279 -75 l 2
 141 -75 28 23 28 169 c 0
 28 315 108 426 291 426 c 2
 530 426 l 1
EndSplineSet
EndChar

StartChar: uni0402
Encoding: 1026 1026 278
Width: 721
VWidth: 1074
Flags: W
HStem: -215 140<426 500.122> -75 21G<190 343> 149 139<343 493.746> 426 153<24 190 343 513>
VStem: 190 153<-75 149 288 426> 544 148<-36.3729 100.855>
LayerCount: 2
Fore
SplineSet
24 579 m 1x7c
 513 579 l 1
 513 426 l 1
 343 426 l 1
 343 288 l 1
 446 288 l 2
 598 288 692 178 692 41 c 0
 692 -121 618 -215 426 -215 c 1
 426 -75 l 1xbc
 503 -75 545 -38 544 40 c 0
 544 100 493 149 413 149 c 2
 343 149 l 1
 343 -75 l 1
 190 -75 l 1
 190 426 l 1
 24 426 l 1
 24 579 l 1x7c
EndSplineSet
EndChar

StartChar: uni0452
Encoding: 1106 1106 279
Width: 616
VWidth: 1074
Flags: W
HStem: -288 141<280 382.459> -75 21G<90 238.911> 149 139<238 387.708> 426 128<23 90 237 389> 626 20G<90 237>
VStem: 90 147<-74 149 288 426 554 646> 440 148<-97.9778 94.8012>
LayerCount: 2
Fore
SplineSet
389 554 m 1
 389 426 l 1
 237 426 l 1
 238 288 l 1
 349 288 l 2
 491 288 588 191 588 16 c 0
 588 -158 542 -288 314 -288 c 2
 280 -288 l 1
 280 -147 l 1
 385 -147 440 -117 440 -11 c 0
 440 100 401 149 313 149 c 2
 238 149 l 1
 239 -75 l 1
 90 -74 l 1
 90 426 l 1
 23 426 l 1
 23 554 l 1
 90 554 l 1
 90 646 l 1
 237 646 l 1
 237 554 l 1
 389 554 l 1
EndSplineSet
EndChar

StartChar: uni0416
Encoding: 1046 1046 280
Width: 731
VWidth: 1074
Flags: W
HStem: -75 21G<24 175.462 295 434 554.538 706> 173 158<232.892 295 434 496.469> 559 20G<32 183.154 295 434 546.846 697>
VStem: 295 139<-75 173 331 579>
LayerCount: 2
Fore
SplineSet
32 579 m 1
 181 579 l 1
 195 449 l 2
 203 375 229 331 295 331 c 1
 295 579 l 1
 434 579 l 1
 434 331 l 1
 500 331 527 375 535 449 c 2
 549 579 l 1
 697 579 l 1
 679 414 l 2
 670 333 637 277 560 254 c 1
 639 236 677 176 687 90 c 2
 706 -75 l 1
 557 -75 l 1
 541 55 l 2
 530 144 502 173 434 173 c 1
 434 -75 l 1
 295 -75 l 1
 295 173 l 1
 227 173 200 144 189 55 c 2
 173 -75 l 1
 24 -75 l 1
 43 90 l 2
 53 176 90 236 169 254 c 1
 92 277 60 333 51 414 c 2
 32 579 l 1
EndSplineSet
EndChar

StartChar: uni0436
Encoding: 1078 1078 281
Width: 632
VWidth: 1074
Flags: W
HStem: -75 21G<29 158.857 250 382 470.242 604> 101 149<194.574 250 382 438.25> 406 20G<33 166.758 250 382 466.242 600>
VStem: 250 132<-75 101 250 426>
LayerCount: 2
Fore
SplineSet
33 426 m 1
 165 426 l 1
 173 335 l 2
 178 278 199 250 250 250 c 1
 250 426 l 1
 382 426 l 1
 382 250 l 1
 433 250 455 278 460 335 c 2
 468 426 l 1
 600 426 l 1
 586 300 l 2
 579 238 559 195 500 177 c 1
 560 164 586 117 592 51 c 2
 604 -75 l 1
 472 -75 l 1
 464 16 l 2
 458 84 434 101 382 101 c 1
 382 -75 l 1
 250 -75 l 1
 250 101 l 1
 198 101 178 84 169 16 c 2
 156 -75 l 1
 29 -75 l 1
 41 51 l 2
 46 117 73 164 133 177 c 1
 74 195 54 238 47 300 c 2
 33 426 l 1
EndSplineSet
EndChar

StartChar: uni0453
Encoding: 1107 1107 282
Width: 402
VWidth: 1074
Flags: W
HStem: -75 21G<32 173> 285 141<173 371>
VStem: 32 141<-75 285>
LayerCount: 2
Fore
SplineSet
32 -75 m 1
 32 426 l 1
 371 426 l 1
 371 285 l 1
 173 285 l 1
 173 -75 l 1
 32 -75 l 1
121 507 m 1
 225 695 l 1
 374 695 l 1
 268 507 l 1
 121 507 l 1
EndSplineSet
EndChar

StartChar: uni0403
Encoding: 1027 1027 283
Width: 441
VWidth: 1074
Flags: W
HStem: -75 21G<33 186> 426 153<186 414> 646 21G<147 305.277>
VStem: 33 153<-75 426>
LayerCount: 2
Fore
SplineSet
147 646 m 1
 251 835 l 1
 400 834 l 1
 294 646 l 1
 147 646 l 1
33 -75 m 1
 33 579 l 1
 414 579 l 1
 414 426 l 1
 186 426 l 1
 186 -75 l 1
 33 -75 l 1
EndSplineSet
EndChar

StartChar: uni042F
Encoding: 1071 1071 284
Width: 587
VWidth: 1074
Flags: W
HStem: -75 21G<61 242.677 399 552> 426 153<227.161 399>
VStem: 25 160<265.716 392.172> 399 153<-75 426>
LayerCount: 2
Fore
SplineSet
552 579 m 1
 552 -75 l 1
 399 -75 l 1
 399 426 l 1
 336 426 l 2
 243 426 185 408 185 332 c 0
 185 245 257 220 335 220 c 1
 335 80 l 1
 229 -75 l 1
 61 -75 l 1
 179 101 l 1
 89 135 25 212 25 327 c 0
 25 489 116 579 311 579 c 2
 552 579 l 1
EndSplineSet
EndChar

StartChar: uni044F
Encoding: 1103 1103 285
Width: 518
VWidth: 1074
Flags: W
HStem: -75 21G<53 217.171 350 484> 286 140<195.323 350>
VStem: 25 145<178.96 263.17> 350 134<-75 286>
LayerCount: 2
Fore
SplineSet
484 426 m 1
 484 -75 l 1
 350 -75 l 1
 350 286 l 1
 286 286 l 2
 215 286 170 267 170 223 c 0
 170 173 225 151 285 151 c 1
 285 48 l 1
 204 -75 l 1
 53 -75 l 1
 143 53 l 1
 68 71 25 143 25 231 c 0
 25 343 118 426 267 426 c 2
 484 426 l 1
EndSplineSet
EndChar

StartChar: uni0456
Encoding: 1110 1110 286
Width: 224
VWidth: 1074
Flags: W
HStem: -75 21G<37 186> 406 20G<37 186> 495 173<53.5147 166.485>
VStem: 24 172<525.085 638.485> 37 149<-75 426>
LayerCount: 2
Fore
SplineSet
24 582 m 0xf0
 24 630 62 668 110 668 c 0
 158 668 196 630 196 582 c 0
 196 534 158 495 110 495 c 0
 62 495 24 534 24 582 c 0xf0
186 426 m 1xe8
 186 -75 l 1
 37 -75 l 1
 37 426 l 1
 186 426 l 1xe8
EndSplineSet
EndChar

StartChar: uni0457
Encoding: 1111 1111 287
Width: 491
VWidth: 1074
Flags: W
HStem: -75 21G<171 319> 406 20G<171 319> 534 142<42.875 143.125 346.875 447.125>
VStem: 22 142<554.875 655.125> 171 148<-75 426> 326 142<554.875 655.125>
CounterMasks: 1 1c
LayerCount: 2
Fore
SplineSet
319 426 m 1
 319 -75 l 1
 171 -75 l 1
 171 426 l 1
 319 426 l 1
397 676 m 0
 436 676 468 644 468 605 c 0
 468 566 436 534 397 534 c 0
 358 534 326 566 326 605 c 0
 326 644 358 676 397 676 c 0
93 676 m 0
 132 676 164 644 164 605 c 0
 164 566 132 534 93 534 c 0
 54 534 22 566 22 605 c 0
 22 644 54 676 93 676 c 0
EndSplineSet
EndChar

StartChar: uni0458
Encoding: 1112 1112 288
Width: 362
VWidth: 1074
Flags: W
HStem: -288 136<23 122.506> 406 20G<175 322.092> 495 173<192.085 305.485>
VStem: 162 173<525.085 638.485> 175 149<-102.014 426>
LayerCount: 2
Fore
SplineSet
162 582 m 0xf0
 162 630 201 668 249 668 c 0
 297 668 335 630 335 582 c 0
 335 534 297 495 249 495 c 0
 201 495 162 534 162 582 c 0xf0
322 426 m 1
 322 426 324 104 324 -8 c 0
 324 -157 262 -288 23 -288 c 1
 23 -152 l 1
 108 -152 176 -125 175 -21 c 2
 175 426 l 1xe8
 322 426 l 1
EndSplineSet
EndChar

StartChar: uni0455
Encoding: 1109 1109 289
Width: 395
VWidth: 1074
Flags: W
HStem: -75 128<38 211.711> 298 128<173.282 351>
VStem: 25 142<225.983 287.917> 215 154<59.0943 113.313>
LayerCount: 2
Fore
SplineSet
351 298 m 1
 235 298 l 2
 199 298 167 289 167 255 c 0
 167 218 212 219 258 212 c 0
 319 202 369 148 369 78 c 0
 369 -27 307 -75 184 -75 c 2
 38 -75 l 1
 38 53 l 1
 154 53 l 2
 169 53 215 55 215 86 c 0
 215 122 158 122 130 126 c 0
 96 131 25 163 25 250 c 0
 25 349 65 426 239 426 c 2
 351 426 l 1
 351 298 l 1
EndSplineSet
EndChar

StartChar: uni0427
Encoding: 1063 1063 290
Width: 556
VWidth: 1074
Flags: W
HStem: -75 21G<374 521> 108 157<206.504 333.668>
VStem: 28 148<300.986 579> 374 147<-75 148 301.453 579>
LayerCount: 2
Fore
SplineSet
176 579 m 1
 176 406 l 2
 176 312 194 265 272 265 c 0
 319 265 356 302 373 323 c 1
 372 579 l 1
 521 579 l 1
 521 -75 l 1
 374 -75 l 1
 374 148 l 1
 359 132 325 108 257 108 c 0
 67 108 28 241 28 365 c 0
 28 440 28 579 28 579 c 1
 176 579 l 1
EndSplineSet
EndChar

StartChar: uni0447
Encoding: 1095 1095 291
Width: 511
VWidth: 1074
Flags: W
HStem: -75 21G<338.858 476> 45 143<196.863 322.328> 406 20G<28 169 337 476>
VStem: 28 141<215.444 426> 338 138<-75 66 205.866 426>
LayerCount: 2
Fore
SplineSet
169 426 m 1
 169 317 l 2
 169 231 185 188 260 188 c 0
 292 188 319 205 338 222 c 1
 337 426 l 1
 476 426 l 1
 476 -75 l 1
 339 -75 l 1
 338 66 l 1
 320 55 291 45 246 45 c 0
 65 45 28 166 28 279 c 0
 28 348 28 426 28 426 c 1
 169 426 l 1
EndSplineSet
EndChar

StartChar: AE
Encoding: 198 198 292
Width: 779
VWidth: 1074
Flags: W
HStem: -75 153<522 750> 60 111<312 369> 171 153<522 698> 426 153<321.491 369 522 750>
VStem: 369 153<324 426>
LayerCount: 2
Fore
SplineSet
320 579 m 0x98
 464 579 606 579 750 579 c 1
 750 426 l 1
 522 426 l 1
 522 324 l 1
 698 324 l 1
 698 171 l 1
 522 171 l 1
 522 78 l 1
 750 78 l 1
 750 -75 l 1
 369 -75 l 1xb8
 369 60 l 1
 280 60 l 1
 312 171 l 1
 369 171 l 1x58
 369 426 l 1
 363 426 l 2
 332 426 324 416 316 390 c 2
 180 -75 l 1
 23 -75 l 1
 200 486 l 1
 200 486 229 579 320 579 c 0x98
EndSplineSet
EndChar

StartChar: ae
Encoding: 230 230 293
Width: 865
VWidth: 1074
Flags: W
HStem: -83 124<527.909 750.204> -75 135<213.455 306> 119 88<566 708> 295 131<209.844 371 498 678.105>
VStem: 18 138<110.13 248.299> 371 127<68.3132 295>
LayerCount: 2
Fore
SplineSet
281 426 m 2x7c
 603 426 l 2
 740 426 867 367 847 120 c 1
 780 120 566 119 566 119 c 1
 566 207 l 1
 708 207 l 1
 708 267 662 295 608 295 c 2
 498 295 l 1
 498 105 l 2
 498 63 564 41 619 41 c 0xbc
 693 41 751 53 751 53 c 1
 751 -75 l 1x7c
 718 -81 681 -83 619 -83 c 0xbc
 496 -83 371 -44 371 86 c 2
 371 295 l 1
 308 295 l 2
 195 295 156 246 156 179 c 0
 156 91 228 60 306 60 c 1
 306 -75 l 1
 270 -75 l 2
 132 -75 18 23 18 169 c 0
 18 315 98 426 281 426 c 2x7c
EndSplineSet
EndChar

StartChar: germandbls
Encoding: 223 223 294
Width: 557
VWidth: 1074
Flags: W
HStem: -82 122<236.308 379.724> -75 21G<31 175> 272 96<253 305.459> 520 133<201.503 310.853>
VStem: 31 144<-75 493.317> 331 140<392.947 500.123> 416 125<75.1835 204.859>
LayerCount: 2
Fore
SplineSet
31 429 m 2x7c
 31 521 73 653 249 653 c 0
 389 653 471 561 471 470 c 0x7c
 471 417 450 362 404 341 c 1
 467 323 541 236 541 144 c 0
 541 3 467 -82 320 -82 c 0xba
 285 -82 265 -81 235 -75 c 1x7a
 235 48 l 1
 261 42 284 40 310 40 c 0
 365 40 416 65 416 142 c 0xba
 416 233 309 272 253 272 c 1
 253 368 l 1
 293 368 331 400 331 446 c 0
 331 486 308 520 253 520 c 0
 192 520 175 466 175 421 c 2
 175 -75 l 1
 31 -75 l 1
 31 429 l 2x7c
EndSplineSet
EndChar

StartChar: uni0431
Encoding: 1073 1073 295
Width: 556
VWidth: 1074
Flags: W
HStem: -100 142<199.381 354.841> 224 135<244 343.357> 452 146<216.661 407.126>
VStem: 30 149<62.2173 414.617> 380 148<68.7578 190.192>
LayerCount: 2
Fore
SplineSet
277 -100 m 0
 46 -100 30 -39 30 147 c 2
 30 357 l 2
 30 524 167 598 306 598 c 0
 346 598 412 615 444 639 c 1
 444 489 l 1
 417 468 352 452 305 452 c 0
 256 452 179 445 179 339 c 2
 179 160 l 2
 179 74 184 42 287 42 c 0
 359 42 380 81 380 135 c 0
 380 188 344 227 244 224 c 1
 244 359 l 1
 295 359 l 2
 410 359 528 295 528 131 c 0
 528 -4 479 -100 277 -100 c 0
EndSplineSet
EndChar

StartChar: uni0411
Encoding: 1041 1041 296
Width: 564
VWidth: 1074
Flags: W
HStem: -75 131<183 357.909> 245 135<248 358.5> 473 106<183 467>
VStem: 33 150<56 473> 398 138<92.5279 208.738>
LayerCount: 2
Fore
SplineSet
467 579 m 1
 467 473 l 1
 183 473 l 1
 183 56 l 1
 256 56 l 2
 347 56 398 82 398 149 c 0
 398 237 318 245 248 245 c 1
 248 380 l 1
 284 380 l 2
 422 380 536 316 536 159 c 0
 536 13 466 -75 266 -75 c 2
 33 -75 l 1
 33 579 l 1
 164 579 l 1
 183 579 l 1
 467 579 l 1
EndSplineSet
EndChar

StartChar: uni0450
Encoding: 1104 1104 297
Width: 552
VWidth: 1074
Flags: W
HStem: -83 129<222.03 425.967> 119 88<241 383> 296 141<207.433 350.356>
VStem: 26 134<100.736 246.434>
LayerCount: 2
Fore
SplineSet
522 120 m 1
 455 120 241 119 241 119 c 1
 241 207 l 1
 383 207 l 1
 386 248 352 296 277 296 c 0
 230 296 160 268 160 170 c 0
 160 76 243 46 313 46 c 0
 386 46 426 53 426 53 c 1
 426 -75 l 1
 426 -75 375 -83 315 -83 c 0
 103 -83 26 48 26 171 c 0
 26 321 121 437 275 437 c 0
 412 437 542 367 522 120 c 1
363 507 m 1
 217 507 l 1
 110 695 l 1
 259 695 l 1
 363 507 l 1
EndSplineSet
EndChar

StartChar: uni0451
Encoding: 1105 1105 298
Width: 552
VWidth: 1074
Flags: W
HStem: -83 129<222.03 425.967> 119 88<241 383> 296 141<207.433 350.356> 534 142<79.875 180.125 383.875 484.625>
VStem: 26 134<100.736 246.434> 59 142<554.875 655.125> 363 143<554.875 655.125>
LayerCount: 2
Fore
SplineSet
522 120 m 1xfa
 455 120 241 119 241 119 c 1
 241 207 l 1
 383 207 l 1
 386 248 352 296 277 296 c 0
 230 296 160 268 160 170 c 0
 160 76 243 46 313 46 c 0
 386 46 426 53 426 53 c 1
 426 -75 l 1
 426 -75 375 -83 315 -83 c 0
 103 -83 26 48 26 171 c 0
 26 321 121 437 275 437 c 0
 412 437 542 367 522 120 c 1xfa
434 676 m 0
 473 676 506 644 506 605 c 0
 506 566 473 534 434 534 c 0
 395 534 363 566 363 605 c 0
 363 644 395 676 434 676 c 0
130 676 m 0
 169 676 201 644 201 605 c 0
 201 566 169 534 130 534 c 0
 91 534 59 566 59 605 c 0xf6
 59 644 91 676 130 676 c 0
EndSplineSet
EndChar

StartChar: uni042E
Encoding: 1070 1070 299
Width: 957
VWidth: 1074
Flags: W
HStem: -89 135<507.728 678.702> -75 21G<33 186> 192 106<186 265.408> 455 138<509.154 678.702> 559 20G<33 186>
VStem: 33 153<-75 192 298 579> 791 139<158.09 340.732>
LayerCount: 2
Fore
SplineSet
595 593 m 0x36
 780 593 930 441 930 252 c 0
 930 63 780 -89 595 -89 c 0
 458 -89 340 -6 288 114 c 1
 447 114 l 1
 483 73 535 46 593 46 c 0
 702 46 791 138 791 251 c 0
 791 364 702 455 593 455 c 0xb6
 484 455 396 364 396 251 c 0
 396 231 399 211 404 192 c 1
 186 192 l 1
 186 -75 l 1
 33 -75 l 1
 33 579 l 1
 186 579 l 1x6e
 186 298 l 1
 263 298 l 1
 285 465 426 593 595 593 c 0x36
EndSplineSet
EndChar

StartChar: uni044E
Encoding: 1102 1102 300
Width: 778
VWidth: 1074
Flags: W
HStem: -83 143<434.705 563.379> -75 21G<32 181> 103 148<181 254.783> 296 141<426.27 563.694> 406 20G<32 181>
VStem: 32 149<-75 103 251 426> 614 136<110.993 244.174>
LayerCount: 2
Fore
SplineSet
493 437 m 0x36
 635 437 750 321 750 177 c 0
 750 34 635 -83 493 -83 c 0
 395 -83 306 -26 263 63 c 1
 461 63 l 2
 471 60 482 60 495 60 c 0
 561 60 614 113 614 178 c 0
 614 243 561 296 495 296 c 0xb6
 429 296 377 243 377 178 c 0
 377 151 387 124 404 103 c 1
 181 103 l 1
 181 -75 l 1
 32 -75 l 1
 32 426 l 1
 181 426 l 1x6e
 181 251 l 1
 248 251 l 1
 280 361 380 437 493 437 c 0x36
EndSplineSet
EndChar

StartChar: uni0445
Encoding: 1093 1093 301
Width: 512
VWidth: 1074
Flags: W
HStem: -75 21G<22 184.086 327.914 490> 406 20G<22 183.057 328.943 490>
LayerCount: 2
Fore
SplineSet
22 426 m 1
 171 426 l 1
 256 285 l 1
 341 426 l 1
 490 426 l 1
 331 175 l 1
 490 -75 l 1
 340 -75 l 1
 256 64 l 1
 172 -75 l 1
 22 -75 l 1
 181 175 l 1
 22 426 l 1
EndSplineSet
EndChar

StartChar: uni043E
Encoding: 1086 1086 302
Width: 598
VWidth: 1074
Flags: W
HStem: -100 150<229.954 367.855> 300 149<229.954 367.855>
VStem: 26 148<105.68 244.287> 425 144<105.68 244.287>
LayerCount: 2
Fore
SplineSet
300 300 m 0
 231 300 174 244 174 175 c 0
 174 106 231 50 300 50 c 0
 369 50 425 106 425 175 c 0
 425 244 369 300 300 300 c 0
298 449 m 0
 448 449 569 327 569 175 c 0
 569 23 448 -100 298 -100 c 0
 148 -100 26 23 26 175 c 0
 26 327 148 449 298 449 c 0
EndSplineSet
EndChar

StartChar: uni043C
Encoding: 1084 1084 303
Width: 844
VWidth: 1074
Flags: W
HStem: -75 21G<32 182.178 347 496 661 811> 290 147<184 319.552 522.714 633.519>
VStem: 32 152<-75 290> 347 149<-75 261.82> 661 150<-75 260.522>
LayerCount: 2
Fore
SplineSet
258 437 m 0
 323 437 382 425 421 357 c 1
 460 425 532 437 597 437 c 0
 735 437 811 335 811 191 c 2
 811 -75 l 1
 661 -75 l 1
 661 150 l 2
 661 247 639 290 579 290 c 0
 517 290 496 251 496 149 c 2
 496 -75 l 1
 347 -75 l 1
 347 149 l 2
 347 251 326 290 264 290 c 0
 230 290 184 290 184 290 c 1
 184 150 l 1
 182 -75 l 1
 32 -75 l 1
 32 437 l 1
 32 437 160 437 258 437 c 0
EndSplineSet
EndChar

StartChar: uni0440
Encoding: 1088 1088 304
Width: 564
VWidth: 1074
Flags: W
HStem: -75 135<248 340.545> 295 131<183 344.156>
VStem: 33 150<-288 295> 398 138<110.13 248.299>
LayerCount: 2
Fore
SplineSet
33 426 m 1
 273 426 l 2
 456 426 536 315 536 169 c 0
 536 23 422 -75 284 -75 c 2
 248 -75 l 1
 248 60 l 1
 326 60 398 91 398 179 c 0
 398 246 359 295 246 295 c 2
 183 295 l 1
 183 -288 l 1
 33 -288 l 1
 33 426 l 1
EndSplineSet
EndChar

StartChar: uni0441
Encoding: 1089 1089 305
Width: 412
VWidth: 1074
Flags: W
HStem: -75 135<222.656 381> 295 131<220.012 381>
VStem: 28 138<111.399 247.18>
LayerCount: 2
Fore
SplineSet
381 426 m 1
 381 295 l 1
 322 295 l 2
 209 295 166 246 166 179 c 0
 166 91 243 60 321 60 c 2
 381 60 l 1
 381 -75 l 1
 279 -75 l 2
 141 -75 28 23 28 169 c 0
 28 315 108 426 291 426 c 2
 381 426 l 1
EndSplineSet
EndChar

StartChar: uni0442
Encoding: 1090 1090 306
Width: 497
VWidth: 1074
Flags: W
HStem: -75 21G<177 314> 289 137<28 177 314 467>
VStem: 177 137<-75 289>
LayerCount: 2
Fore
SplineSet
28 426 m 1
 467 426 l 1
 467 289 l 1
 314 289 l 1
 314 -75 l 1
 177 -75 l 1
 177 289 l 1
 28 289 l 1
 28 426 l 1
EndSplineSet
EndChar

StartChar: uni043D
Encoding: 1085 1085 307
Width: 489
VWidth: 1074
Flags: W
HStem: -75 21G<33 167 320 454> 107 133<167 320> 406 20G<33 167 320 454>
VStem: 33 134<-75 107 240 426> 320 134<-75 107 240 426>
LayerCount: 2
Fore
SplineSet
320 426 m 1
 454 426 l 1
 454 -75 l 1
 320 -75 l 1
 320 107 l 1
 167 107 l 1
 167 -75 l 1
 33 -75 l 1
 33 426 l 1
 167 426 l 1
 167 240 l 1
 320 240 l 1
 320 426 l 1
EndSplineSet
EndChar

StartChar: uni0432
Encoding: 1074 1074 308
Width: 484
VWidth: 1074
Flags: W
HStem: -75 102<226 332.476> 129 87<226 307.778> 304 122<168 308.336>
VStem: 32 136<-75 304> 317 131<227.599 292.304> 344 114<39.4749 111.233>
LayerCount: 2
Fore
SplineSet
32 426 m 1xf8
 234 426 l 2
 381 426 448 378 448 283 c 0xf8
 448 244 428 195 385 178 c 1
 427 163 458 115 458 68 c 0
 458 -37 369 -75 278 -75 c 2
 226 -75 l 1
 226 27 l 1
 261 27 l 2
 317 27 344 44 344 76 c 0xf4
 344 125 270 129 226 129 c 1
 226 216 l 1
 285 216 317 229 317 263 c 0
 317 298 266 304 219 304 c 0
 210 304 168 304 168 304 c 1
 168 -75 l 1
 32 -75 l 1
 32 426 l 1xf8
EndSplineSet
EndChar

StartChar: uni041B
Encoding: 1051 1051 309
Width: 680
VWidth: 1074
Flags: W
HStem: -75 140<28 129.539> 426 153<339 492>
VStem: 187 152<121.603 426> 492 153<-75 426>
LayerCount: 2
Fore
SplineSet
187 579 m 1
 645 579 l 1
 645 -75 l 1
 492 -75 l 1
 492 426 l 1
 339 426 l 1
 339 205 l 2
 339 50 278 -75 28 -75 c 1
 28 65 l 1
 116 65 188 93 187 201 c 0
 187 327 187 579 187 579 c 1
EndSplineSet
EndChar

StartChar: uni043B
Encoding: 1083 1083 310
Width: 611
VWidth: 1074
Flags: W
HStem: -75 125<28 120.193> 290 136<304 440>
VStem: 169 135<94.3392 290> 440 136<-75 290>
LayerCount: 2
Fore
SplineSet
169 426 m 1
 576 426 l 1
 576 -75 l 1
 440 -75 l 1
 440 290 l 1
 304 290 l 1
 304 174 l 2
 304 37 250 -75 28 -75 c 1
 28 50 l 1
 106 50 170 74 169 170 c 0
 169 255 169 426 169 426 c 1
EndSplineSet
EndChar

StartChar: uni041F
Encoding: 1055 1055 311
Width: 550
VWidth: 1074
Flags: W
HStem: -75 22G<33 186 362 515> 426 153<186 362>
VStem: 33 153<-75 426> 362 153<-74 426>
LayerCount: 2
Fore
SplineSet
33 579 m 1
 515 579 l 1
 515 -74 l 1
 362 -74 l 1
 362 426 l 1
 186 426 l 1
 186 -75 l 1
 33 -75 l 1
 33 579 l 1
EndSplineSet
EndChar

StartChar: uni043F
Encoding: 1087 1087 312
Width: 497
VWidth: 1074
Flags: W
HStem: -75 22G<32 169 325 462> 290 136<169 325>
VStem: 32 137<-75 290> 325 137<-74 290>
LayerCount: 2
Fore
SplineSet
32 426 m 1
 462 426 l 1
 462 -74 l 1
 325 -74 l 1
 325 290 l 1
 169 290 l 1
 169 -75 l 1
 32 -75 l 1
 32 426 l 1
EndSplineSet
EndChar

StartChar: uni0443
Encoding: 1091 1091 313
Width: 558
VWidth: 1074
Flags: W
HStem: -300 125<109.039 326.154> -75 139<235.423 373> 406 20G<30 178 375 523>
VStem: 30 148<121.574 426> 373 150<-133.666 -75 64 426>
LayerCount: 2
Fore
SplineSet
178 426 m 1
 178 210 l 2
 178 116 226 64 314 64 c 2
 376 64 l 1
 375 426 l 1
 523 426 l 1
 523 -75 l 2
 523 -147 487 -212 435 -251 c 0
 362 -306 266 -300 222 -300 c 0
 170 -300 109 -288 109 -288 c 1
 109 -163 l 1
 109 -163 154 -175 218 -175 c 0
 282 -175 308 -166 335 -149 c 0
 353 -137 373 -114 373 -75 c 1
 255 -75 l 2
 113 -75 30 52 30 164 c 0
 30 239 30 426 30 426 c 1
 178 426 l 1
EndSplineSet
EndChar

StartChar: uni0423
Encoding: 1059 1059 314
Width: 555
VWidth: 1074
Flags: W
HStem: -87 125<106.039 325.761> 138 139<233.423 371> 559 20G<28 176 372 521>
VStem: 28 148<333.617 579> 371 150<79.3338 138 277 579>
LayerCount: 2
Fore
SplineSet
176 579 m 1
 176 422 l 2
 176 328 223 277 311 277 c 2
 374 277 l 1
 372 579 l 1
 521 579 l 1
 521 138 l 2
 521 66 485 1 433 -38 c 0
 360 -93 263 -87 219 -87 c 0
 167 -87 106 -75 106 -75 c 1
 106 50 l 1
 106 50 151 38 215 38 c 0
 279 38 306 47 333 64 c 0
 351 76 371 99 371 138 c 1
 253 138 l 2
 111 138 28 264 28 376 c 0
 28 451 28 579 28 579 c 1
 176 579 l 1
EndSplineSet
EndChar

StartChar: uni0424
Encoding: 1060 1060 315
Width: 915
VWidth: 1074
Flags: W
HStem: -75 21G<380 533> -0 135<218.938 325 588 693.062> 370 131<219.012 380 533 693.988> 559 20G<380 533>
VStem: 26 139<183.896 322.18> 380 153<-75 370 501 579> 748 138<183.896 322.18>
LayerCount: 2
Fore
SplineSet
380 579 m 1
 533 579 l 1
 533 501 l 1
 623 501 l 2
 806 501 886 390 886 244 c 0
 886 98 781 0 643 -0 c 2
 588 -0 l 1
 588 135 l 1
 602 135 l 2
 680 135 748 166 748 254 c 0
 748 321 705 370 592 370 c 2
 533 370 l 1
 533 -75 l 1
 380 -75 l 1
 380 370 l 1
 321 370 l 2
 208 370 165 321 165 254 c 0
 165 166 233 135 311 135 c 2
 325 135 l 1
 325 -0 l 1
 269 -0 l 2
 131 0 26 98 26 244 c 0
 26 390 106 501 289 501 c 2
 380 501 l 1
 380 579 l 1
EndSplineSet
EndChar

StartChar: uni0444
Encoding: 1092 1092 316
Width: 910
VWidth: 1074
Flags: W
HStem: -75 135<218.938 325 584 689.062> 295 131<219.012 380 528 688.988> 626 20G<380 528>
VStem: 26 139<108.896 247.18> 380 148<-287 295 426 646> 743 139<108.896 247.18>
CounterMasks: 1 1c
LayerCount: 2
Fore
SplineSet
380 646 m 1
 528 646 l 1
 528 426 l 1
 619 426 l 2
 802 426 882 315 882 169 c 0
 882 23 777 -75 639 -75 c 2
 584 -75 l 1
 584 60 l 1
 598 60 l 2
 676 60 743 91 743 179 c 0
 743 246 700 295 587 295 c 2
 528 295 l 1
 528 -288 l 1
 380 -287 l 1
 380 295 l 1
 321 295 l 2
 208 295 165 246 165 179 c 0
 165 91 233 60 311 60 c 2
 325 60 l 1
 325 -75 l 1
 269 -75 l 2
 131 -75 26 23 26 169 c 0
 26 315 106 426 289 426 c 2
 380 426 l 1
 380 646 l 1
EndSplineSet
EndChar

StartChar: uni0426
Encoding: 1062 1062 317
Width: 679
VWidth: 1074
Flags: W
HStem: -75 153<186 362> 559 20G<33 186 362 515>
VStem: 33 153<78 579> 362 153<78 579> 515 138<-219 -77.0187>
LayerCount: 2
Fore
SplineSet
33 579 m 1xe8
 186 579 l 1
 186 78 l 1
 362 78 l 1
 362 579 l 1
 515 579 l 1
 515 78 l 1xf0
 533 78 l 2
 620 78 653 22 653 -35 c 2
 653 -219 l 1
 515 -219 l 1
 515 -124 l 2
 515 -86 508 -75 473 -75 c 2
 33 -75 l 1
 33 579 l 1xe8
EndSplineSet
EndChar

StartChar: uni0446
Encoding: 1094 1094 318
Width: 598
VWidth: 1074
Flags: W
HStem: -75 133<165 318> 406 20G<32 165 318 450>
VStem: 32 133<58 426> 318 132<58 426> 450 121<-201 -76.0481>
LayerCount: 2
Fore
SplineSet
32 426 m 1xe8
 165 426 l 1
 165 58 l 1
 318 58 l 1
 318 426 l 1
 450 426 l 1
 450 58 l 1xf0
 466 58 l 2
 541 58 571 10 571 -40 c 2
 571 -201 l 1
 450 -201 l 1
 450 -117 l 2
 450 -84 444 -75 414 -75 c 2
 32 -75 l 1
 32 426 l 1xe8
EndSplineSet
EndChar

StartChar: uni0417
Encoding: 1047 1047 319
Width: 446
VWidth: 1074
Flags: W
HStem: -75 152<28 211.373> 209 86<126 212.148> 433 153<45.0198 209.415>
VStem: 238 180<102.601 183.469 317.75 405.446>
LayerCount: 2
Fore
SplineSet
144 586 m 0
 280 586 418 548 418 388 c 0
 418 336 393 279 346 252 c 1
 393 220 418 166 418 113 c 0
 418 -46 293 -75 132 -75 c 0
 97 -75 28 -75 28 -75 c 1
 28 77 l 1
 28 77 75 78 111 78 c 0
 194 78 238 97 238 142 c 0
 238 188 182 209 126 209 c 1
 126 295 l 1
 187 295 238 312 238 364 c 0
 238 406 194 433 130 433 c 0
 98 433 62 426 44 417 c 1
 44 570 l 1
 69 579 109 586 144 586 c 0
EndSplineSet
EndChar

StartChar: uni0437
Encoding: 1079 1079 320
Width: 386
VWidth: 1074
Flags: W
HStem: -75 131<28 189.901> 138 89<103 187.246> 315 131<37.912 189.258>
VStem: 198 160<66.6588 124.753 240.806 301.293>
LayerCount: 2
Fore
SplineSet
150 446 m 0
 254 446 358 411 358 288 c 0
 358 245 332 203 292 183 c 1
 334 163 358 123 358 73 c 0
 358 -58 217 -75 172 -75 c 0
 142 -75 28 -75 28 -75 c 1
 28 56 l 1
 28 56 88 56 119 56 c 0
 169 56 198 70 198 97 c 0
 198 126 154 138 103 138 c 1
 103 227 l 1
 159 227 198 242 198 272 c 0
 198 300 165 315 116 315 c 0
 89 315 53 309 37 301 c 1
 37 432 l 1
 59 440 120 446 150 446 c 0
EndSplineSet
EndChar

StartChar: uni0404
Encoding: 1028 1028 321
Width: 487
VWidth: 1074
Flags: W
HStem: -75 149<269.632 457> 187 106<200 376> 426 153<286.734 457>
VStem: 26 350<190.276 292.774>
LayerCount: 2
Fore
SplineSet
376 293 m 1
 376 187 l 1
 200 187 l 1
 213 128 256 74 384 74 c 0
 386 74 457 74 457 74 c 1
 457 -75 l 1
 311 -75 l 2
 127 -75 26 52 26 242 c 0
 26 394 85 579 358 579 c 2
 457 579 l 1
 457 426 l 1
 373 426 l 2
 263 426 215 361 200 293 c 1
 376 293 l 1
EndSplineSet
EndChar

StartChar: uni0454
Encoding: 1108 1108 322
Width: 412
VWidth: 1074
Flags: W
HStem: -79 136<222.546 381> 126 93<176 310> 291 132<219.844 381>
VStem: 28 282<126.22 218.961>
LayerCount: 2
Fore
SplineSet
381 423 m 1
 381 291 l 1
 322 291 l 2
 235 291 191 262 174 219 c 1
 310 219 l 1
 310 126 l 1
 176 126 l 1
 199 76 260 57 321 57 c 2
 381 56 l 1
 381 -79 l 1
 279 -79 l 2
 141 -79 28 20 28 166 c 0
 28 312 108 423 291 423 c 2
 381 423 l 1
EndSplineSet
EndChar

StartChar: uni042D
Encoding: 1069 1069 323
Width: 487
VWidth: 1074
Flags: W
HStem: -75 149<29 208.512> 187 106<110 285> 426 153<29 198.266>
VStem: 110 349<190.276 292.774>
LayerCount: 2
Fore
SplineSet
29 579 m 1
 127 579 l 2
 400 579 459 394 459 242 c 0
 459 52 359 -75 175 -75 c 2
 29 -75 l 1
 29 74 l 1
 29 74 100 74 102 74 c 0
 230 74 272 128 285 187 c 1
 110 187 l 1
 110 293 l 1
 285 293 l 1
 270 361 223 426 113 426 c 2
 29 426 l 1
 29 579 l 1
EndSplineSet
EndChar

StartChar: uni044D
Encoding: 1101 1101 324
Width: 411
VWidth: 1074
Flags: W
HStem: -79 135<30 186.174> 126 93<101 235> 291 132<30 191.156>
VStem: 101 282<126.22 218.961>
LayerCount: 2
Fore
SplineSet
30 423 m 1
 120 423 l 2
 303 423 383 312 383 166 c 0
 383 20 269 -79 131 -79 c 2
 30 -79 l 1
 30 56 l 1
 90 57 l 2
 151 57 212 76 235 126 c 1
 101 126 l 1
 101 219 l 1
 237 219 l 1
 220 262 176 291 89 291 c 2
 30 291 l 1
 30 423 l 1
EndSplineSet
EndChar

StartChar: uni0413
Encoding: 1043 1043 325
Width: 441
VWidth: 1074
Flags: W
HStem: -75 21G<33 186> 426 153<186 414>
VStem: 33 153<-75 426>
LayerCount: 2
Fore
SplineSet
33 -75 m 1
 33 579 l 1
 414 579 l 1
 414 426 l 1
 186 426 l 1
 186 -75 l 1
 33 -75 l 1
EndSplineSet
EndChar

StartChar: uni0433
Encoding: 1075 1075 326
Width: 403
VWidth: 1074
Flags: W
HStem: -75 21G<33 170> 289 137<170 374>
VStem: 33 137<-75 289>
LayerCount: 2
Fore
SplineSet
33 -75 m 1
 33 426 l 1
 374 426 l 1
 374 289 l 1
 170 289 l 1
 170 -75 l 1
 33 -75 l 1
EndSplineSet
EndChar

StartChar: uni0414
Encoding: 1044 1044 327
Width: 833
VWidth: 1074
Flags: W
HStem: -219 297<28 138.136 668 762.201> -75 153<320 515> 426 153<339 668>
VStem: 28 138<-219 -75> 187 152<124.961 426> 515 153<78 334> 668 138<-219 -77.0187>
LayerCount: 2
Fore
SplineSet
187 579 m 1xba
 348 579 508 579 668 579 c 1
 668 426 l 1xba
 339 426 l 1
 339 205 l 2
 339 159 334 116 320 78 c 1
 515 78 l 1x7c
 515 334 l 1
 668 334 l 1
 668 78 l 1xbc
 686 78 l 2
 773 78 806 22 806 -35 c 2
 806 -219 l 1
 668 -219 l 1xba
 668 -124 l 2
 668 -86 661 -75 626 -75 c 2
 166 -75 l 1x7a
 166 -219 l 1
 28 -219 l 1xba
 28 -171 28 -123 28 -75 c 2x7a
 28 78 l 1
 116 78 188 97 187 205 c 2
 187 426 l 1
 187 579 l 1xba
EndSplineSet
EndChar

StartChar: uni0434
Encoding: 1076 1076 328
Width: 669
VWidth: 1074
Flags: W
HStem: -204 266<10 97.375 535 623.504> -75 137<249 398> 290 136<266 535>
VStem: 10 124<-204 -75> 130 136<93.5248 290> 398 137<62 207> 535 124<-204 -76.2481>
LayerCount: 2
Fore
SplineSet
130 426 m 1xa8
 274 426 392 426 535 426 c 1
 535 290 l 1xaa
 266 290 l 1
 266 176 l 2
 266 135 262 96 249 62 c 1
 398 62 l 1x6c
 398 207 l 1
 535 207 l 1
 535 62 l 1xac
 551 62 l 2
 629 62 659 12 659 -39 c 2
 659 -204 l 1
 535 -204 l 1xa2
 535 -118 l 2
 534 -84 529 -75 498 -75 c 2
 134 -75 l 1x72
 134 -204 l 1
 10 -204 l 1xb2
 10 -161 10 -118 10 -75 c 2x72
 10 62 l 1xb2
 82 62 131 79 130 176 c 2
 130 290 l 1
 130 426 l 1xa8
EndSplineSet
EndChar

StartChar: uni041A
Encoding: 1050 1050 329
Width: 469
VWidth: 1074
Flags: W
HStem: -75 21G<33 172 292.538 444> 559 20G<33 172 284.846 435>
VStem: 33 139<-75 173 331 579>
LayerCount: 2
Fore
SplineSet
33 -75 m 1
 33 579 l 1
 172 579 l 1
 172 331 l 1
 238 331 265 375 273 449 c 2
 287 579 l 1
 435 579 l 1
 417 414 l 2
 408 333 375 277 298 254 c 1
 377 236 415 176 425 90 c 2
 444 -75 l 1
 295 -75 l 1
 279 55 l 2
 268 144 240 173 172 173 c 1
 172 -75 l 1
 33 -75 l 1
EndSplineSet
EndChar

StartChar: uni043A
Encoding: 1082 1082 330
Width: 455
VWidth: 1074
Flags: W
HStem: -75 21G<32 181 286.551 435> 406 20G<32 181 279.959 428>
VStem: 32 149<-75 101 250 426>
LayerCount: 2
Fore
SplineSet
32 -75 m 1
 32 426 l 1
 181 426 l 1
 181 250 l 1
 239 250 266 271 272 328 c 2
 282 426 l 1
 428 426 l 1
 411 300 l 2
 402 238 387 195 319 177 c 1
 389 164 411 117 419 51 c 2
 435 -75 l 1
 289 -75 l 1
 277 23 l 2
 269 91 241 101 181 101 c 1
 181 -75 l 1
 32 -75 l 1
EndSplineSet
EndChar

StartChar: uni0418
Encoding: 1048 1048 331
Width: 619
VWidth: 1074
Flags: W
HStem: -75 21G<33 64.5 431 584> 559 20G<33 186 554.5 584>
VStem: 33 153<221 579> 431 153<-75 283>
LayerCount: 2
Fore
SplineSet
186 579 m 1
 186 221 l 1
 431 524 l 2
 486 588 525 587 584 588 c 1
 584 -75 l 1
 431 -75 l 1
 431 283 l 1
 186 -20 l 2
 134 -85 96 -84 33 -84 c 1
 33 579 l 1
 186 579 l 1
EndSplineSet
EndChar

StartChar: uni0438
Encoding: 1080 1080 332
Width: 509
VWidth: 1074
Flags: W
HStem: -76 21G<33 57 348 474> 406 20G<33 160 451.5 474>
VStem: 33 127<160 426> 348 126<-76 190>
LayerCount: 2
Fore
SplineSet
160 426 m 1
 160 160 l 1
 348 383 l 2
 390 432 429 432 474 433 c 1
 474 -76 l 1
 348 -76 l 1
 348 190 l 1
 160 -34 l 2
 119 -83 81 -83 33 -83 c 1
 33 426 l 1
 160 426 l 1
EndSplineSet
EndChar

StartChar: uni0419
Encoding: 1049 1049 333
Width: 619
VWidth: 1074
Flags: W
HStem: -75 21G<33 64.5 431 584> 559 20G<33 186 554.5 584> 637 91<264.672 363.56>
VStem: 33 153<221 579> 149 101<744.753 808> 376 101<741.604 808> 431 153<-75 283>
LayerCount: 2
Fore
SplineSet
477 808 m 1xec
 477 776 l 2
 477 677 408 637 312 637 c 0
 216 637 149 690 149 770 c 2
 149 808 l 1
 250 808 l 1
 250 795 l 2
 250 751 277 728 314 728 c 0
 353 728 376 750 376 793 c 2
 376 808 l 1
 477 808 l 1xec
186 579 m 1xf2
 186 221 l 1
 431 524 l 2
 486 588 525 587 584 588 c 1
 584 -75 l 1
 431 -75 l 1
 431 283 l 1
 186 -20 l 2
 134 -85 96 -84 33 -84 c 1
 33 579 l 1
 186 579 l 1xf2
EndSplineSet
EndChar

StartChar: uni0439
Encoding: 1081 1081 334
Width: 508
VWidth: 1074
Flags: W
HStem: -76 21G<32 56 347 473> 406 20G<32 159 450.5 473> 503 92<204.632 303.56>
VStem: 32 127<160 426> 88 102<611.72 675> 316 101<608.561 675> 347 126<-76 190>
LayerCount: 2
Fore
SplineSet
417 675 m 1xec
 417 643 l 2
 417 544 348 503 252 503 c 0
 156 503 88 557 88 637 c 2
 88 675 l 1
 190 675 l 1
 190 662 l 2
 190 618 217 595 254 595 c 0
 293 595 316 617 316 660 c 2
 316 675 l 1
 417 675 l 1xec
159 426 m 1xf2
 159 160 l 1
 347 383 l 2
 389 432 428 432 473 433 c 1
 473 -76 l 1
 347 -76 l 1
 347 190 l 1
 159 -34 l 2
 118 -83 80 -83 32 -83 c 1
 32 426 l 1
 159 426 l 1xf2
EndSplineSet
EndChar

StartChar: uni042C
Encoding: 1068 1068 335
Width: 564
VWidth: 1074
Flags: W
HStem: -75 131<183 357.909> 245 135<248 358.5> 559 20G<33 183>
VStem: 33 150<56 579> 398 138<92.5279 208.738>
LayerCount: 2
Fore
SplineSet
33 -75 m 1
 33 579 l 1
 183 579 l 1
 183 56 l 1
 256 56 l 2
 347 56 398 82 398 149 c 0
 398 237 318 245 248 245 c 1
 248 380 l 1
 284 380 l 2
 422 380 536 316 536 159 c 0
 536 13 466 -75 266 -75 c 2
 33 -75 l 1
EndSplineSet
EndChar

StartChar: uni044C
Encoding: 1100 1100 336
Width: 505
VWidth: 1074
Flags: W
HStem: -75 117<166 329.826> 197 121<224 327.247> 406 20G<32 166>
VStem: 32 134<42 426> 353 124<65.8074 173.192>
LayerCount: 2
Fore
SplineSet
32 -75 m 1
 32 426 l 1
 166 426 l 1
 166 42 l 1
 231 42 l 2
 312 42 353 58 353 118 c 0
 353 193 287 197 224 197 c 1
 224 318 l 1
 256 318 l 2
 379 318 477 265 477 125 c 0
 477 -6 423 -75 240 -75 c 2
 32 -75 l 1
EndSplineSet
EndChar

StartChar: uni0428
Encoding: 1064 1064 337
Width: 878
VWidth: 1074
Flags: W
HStem: -75 153<186 362 515 690> 559 20G<33 186 362 515 690 843>
VStem: 33 153<78 579> 362 153<78 579> 690 153<78 578>
LayerCount: 2
Fore
SplineSet
33 579 m 1
 186 579 l 1
 186 78 l 1
 362 78 l 1
 362 579 l 1
 515 579 l 1
 515 78 l 1
 690 78 l 1
 690 578 l 1
 843 578 l 1
 843 -75 l 1
 33 -75 l 1
 33 579 l 1
EndSplineSet
EndChar

StartChar: uni0448
Encoding: 1096 1096 338
Width: 791
VWidth: 1074
Flags: W
HStem: -75 137<169 325 462 619> 406 20G<32 169 325 462 619 755>
VStem: 32 137<62 426> 325 137<62 426> 619 136<62 426>
LayerCount: 2
Fore
SplineSet
32 426 m 1
 169 426 l 1
 169 62 l 1
 325 62 l 1
 325 426 l 1
 462 426 l 1
 462 62 l 1
 619 62 l 1
 619 426 l 1
 755 426 l 1
 755 -75 l 1
 32 -74 l 1
 32 426 l 1
EndSplineSet
EndChar

